<svg width="25" height="25" viewBox="0 0 25 25" fill="none" xmlns="http://www.w3.org/2000/svg">
<g clip-path="url(#clip0_416_6431)">
<path fill-rule="evenodd" clip-rule="evenodd" d="M24.02 12.5268C24.02 11.6759 23.9436 10.8577 23.8018 10.0723H12.5V14.7141H18.9582C18.68 16.2141 17.8345 17.485 16.5636 18.3359V21.3468H20.4418C22.7109 19.2577 24.02 16.1814 24.02 12.5268Z" fill="black"/>
<path fill-rule="evenodd" clip-rule="evenodd" d="M12.5 24.2532C15.74 24.2532 18.4564 23.1787 20.4418 21.3459L16.5636 18.335C15.4891 19.055 14.1145 19.4805 12.5 19.4805C9.37455 19.4805 6.72909 17.3696 5.78546 14.5332H1.77637V17.6423C3.75091 21.5641 7.80909 24.2532 12.5 24.2532Z" fill="black"/>
<path fill-rule="evenodd" clip-rule="evenodd" d="M5.78545 14.5343C5.54545 13.8143 5.40909 13.0452 5.40909 12.2543C5.40909 11.4634 5.54545 10.6943 5.78545 9.97433V6.86523H1.77636C0.963636 8.48523 0.5 10.318 0.5 12.2543C0.5 14.1907 0.963636 16.0234 1.77636 17.6434L5.78545 14.5343Z" fill="black"/>
<path fill-rule="evenodd" clip-rule="evenodd" d="M12.5 5.02663C14.2618 5.02663 15.8436 5.63209 17.0873 6.82118L20.5291 3.37936C18.4509 1.443 15.7345 0.253906 12.5 0.253906C7.80909 0.253906 3.75091 2.943 1.77637 6.86482L5.78546 9.97391C6.72909 7.13754 9.37455 5.02663 12.5 5.02663Z" fill="black"/>
</g>
<defs>
<clipPath id="clip0_416_6431">
<rect width="24" height="24" fill="white" transform="translate(0.5 0.253906)"/>
</clipPath>
</defs>
</svg>
