<svg width="24" height="25" viewBox="0 0 24 25" fill="none" xmlns="http://www.w3.org/2000/svg">
<g clip-path="url(#clip0_416_6435)">
<path d="M21.7723 18.9572C21.406 19.7957 20.9725 20.5675 20.4702 21.2771C19.7855 22.2445 19.2249 22.9141 18.7928 23.286C18.1231 23.8963 17.4055 24.2089 16.6371 24.2267C16.0855 24.2267 15.4202 24.0711 14.6459 23.7556C13.8689 23.4415 13.1549 23.286 12.5021 23.286C11.8174 23.286 11.0831 23.4415 10.2977 23.7556C9.51102 24.0711 8.87732 24.2356 8.3928 24.2518C7.65595 24.283 6.92148 23.9615 6.18836 23.286C5.72044 22.8815 5.13517 22.1882 4.43404 21.206C3.68179 20.1572 3.06333 18.9409 2.57882 17.5543C2.05992 16.0565 1.7998 14.6062 1.7998 13.2021C1.7998 11.5937 2.15052 10.2065 2.85299 9.04401C3.40508 8.11026 4.13954 7.37369 5.05878 6.83297C5.97802 6.29224 6.97126 6.0167 8.0409 5.99907C8.62617 5.99907 9.39367 6.17847 10.3474 6.53105C11.2985 6.88482 11.9092 7.06422 12.177 7.06422C12.3771 7.06422 13.0555 6.85445 14.2056 6.43624C15.2932 6.0484 16.2111 5.88781 16.963 5.95107C19.0006 6.11403 20.5315 6.91 21.5495 8.34403C19.7272 9.43822 18.8257 10.9708 18.8437 12.9368C18.8601 14.4681 19.4207 15.7425 20.5225 16.7543C21.0218 17.2239 21.5794 17.5869 22.1998 17.8446C22.0653 18.2313 21.9232 18.6016 21.7723 18.9572ZM17.0991 0.734043C17.0991 1.93432 16.6566 3.05501 15.7745 4.09231C14.7101 5.32546 13.4227 6.03803 12.0266 5.92559C12.0088 5.78159 11.9985 5.63004 11.9985 5.47079C11.9985 4.31853 12.5046 3.08538 13.4036 2.07711C13.8523 1.56661 14.4231 1.14213 15.1153 0.803522C15.8059 0.469961 16.4592 0.285495 17.0736 0.253906C17.0916 0.414364 17.0991 0.574832 17.0991 0.734027V0.734043Z" fill="black"/>
</g>
<defs>
<clipPath id="clip0_416_6435">
<rect width="24" height="24" fill="white" transform="translate(0 0.253906)"/>
</clipPath>
</defs>
</svg>
