<svg width="105" height="117" viewBox="0 0 105 117" fill="none" xmlns="http://www.w3.org/2000/svg">
<mask id="path-1-inside-1_416_6614" fill="white">
<path d="M22.4398 106.851C21.2994 109.192 22.2667 112.033 24.6913 112.981C33.5637 116.451 43.1739 117.711 52.6856 116.617C63.7626 115.342 74.2447 110.929 82.8972 103.897C91.5497 96.864 98.0122 87.5052 101.524 76.9225C105.035 66.3398 105.449 54.9741 102.716 44.1641C99.9838 33.3541 94.219 23.5501 86.1008 15.9069C77.9827 8.26375 67.8493 3.09981 56.8944 1.02337C45.9394 -1.05308 34.6192 0.044461 24.2672 4.1867C15.3779 7.74363 7.52052 13.4184 1.36268 20.6878C-0.320079 22.6743 0.17878 25.6337 2.2943 27.1511V27.1511C4.40981 28.6685 7.33865 28.166 9.05196 26.2058C14.1406 20.3838 20.5494 15.829 27.7697 12.9399C36.4533 9.46519 45.9492 8.54454 55.1386 10.2863C64.3281 12.0281 72.8283 16.3599 79.6382 22.7712C86.448 29.1826 91.2838 37.4066 93.5758 46.4745C95.8679 55.5423 95.5207 65.0764 92.5753 73.9535C89.6299 82.8307 84.2089 90.6813 76.9508 96.5804C69.6927 102.48 60.9 106.182 51.6082 107.251C43.8823 108.139 36.079 107.177 28.835 104.472C26.396 103.561 23.5802 104.511 22.4398 106.851V106.851Z"/>
</mask>
<path d="M22.4398 106.851C21.2994 109.192 22.2667 112.033 24.6913 112.981C33.5637 116.451 43.1739 117.711 52.6856 116.617C63.7626 115.342 74.2447 110.929 82.8972 103.897C91.5497 96.864 98.0122 87.5052 101.524 76.9225C105.035 66.3398 105.449 54.9741 102.716 44.1641C99.9838 33.3541 94.219 23.5501 86.1008 15.9069C77.9827 8.26375 67.8493 3.09981 56.8944 1.02337C45.9394 -1.05308 34.6192 0.044461 24.2672 4.1867C15.3779 7.74363 7.52052 13.4184 1.36268 20.6878C-0.320079 22.6743 0.17878 25.6337 2.2943 27.1511V27.1511C4.40981 28.6685 7.33865 28.166 9.05196 26.2058C14.1406 20.3838 20.5494 15.829 27.7697 12.9399C36.4533 9.46519 45.9492 8.54454 55.1386 10.2863C64.3281 12.0281 72.8283 16.3599 79.6382 22.7712C86.448 29.1826 91.2838 37.4066 93.5758 46.4745C95.8679 55.5423 95.5207 65.0764 92.5753 73.9535C89.6299 82.8307 84.2089 90.6813 76.9508 96.5804C69.6927 102.48 60.9 106.182 51.6082 107.251C43.8823 108.139 36.079 107.177 28.835 104.472C26.396 103.561 23.5802 104.511 22.4398 106.851V106.851Z" stroke="#00BFB2" stroke-width="29.25" mask="url(#path-1-inside-1_416_6614)"/>
</svg>
