<svg width="209" height="45" viewBox="0 0 209 45" fill="none" xmlns="http://www.w3.org/2000/svg">
<g clip-path="url(#clip0_416_6413)">
<path d="M13.9699 13.3782C13.692 13.6573 13.5361 14.0351 13.5361 14.4289C13.5361 14.8228 13.692 15.2005 13.9699 15.4796L18.934 20.4437H0.873047C1.27505 15.1552 3.55801 10.1856 7.30833 6.43529C11.0587 2.68496 16.0283 0.402004 21.3168 0V18.0527L16.3527 13.0886C16.0736 12.8107 15.6958 12.6547 15.302 12.6547C14.9081 12.6547 14.5303 12.8107 14.2512 13.0886L13.9699 13.3782Z" fill="#00BFB2"/>
<path d="M32.0226 15.4796C32.3005 15.2005 32.4565 14.8228 32.4565 14.4289C32.4565 14.0351 32.3005 13.6573 32.0226 13.3782L31.7413 13.0969C31.4622 12.819 31.0844 12.663 30.6906 12.663C30.2967 12.663 29.919 12.819 29.6399 13.0969L24.6758 18.061V0C29.9637 0.40366 34.9323 2.68716 38.6823 6.43715C42.4323 10.1871 44.7158 15.1558 45.1195 20.4437H27.0585L32.0226 15.4796Z" fill="#00BFB2"/>
<path d="M21.3163 26.1933V44.2543C16.0293 43.8504 11.0617 41.5666 7.31304 37.8164C3.56441 34.0663 1.28261 29.0977 0.880859 23.8105H18.9336L13.9695 28.7746C13.6916 29.0537 13.5356 29.4315 13.5356 29.8253C13.5356 30.2192 13.6916 30.597 13.9695 30.8761L14.2508 31.1574C14.3879 31.297 14.5514 31.4078 14.7318 31.4835C14.9122 31.5592 15.1059 31.5982 15.3015 31.5982C15.4972 31.5982 15.6908 31.5592 15.8712 31.4835C16.0516 31.4078 16.2152 31.297 16.3522 31.1574L21.3163 26.1933Z" fill="#00BFB2"/>
<path d="M45.1273 23.8105C44.7236 29.0985 42.4401 34.0671 38.6902 37.8171C34.9402 41.5671 29.9715 43.8506 24.6836 44.2543V26.1933L29.6477 31.1574C29.7847 31.297 29.9482 31.4078 30.1287 31.4835C30.3091 31.5592 30.5027 31.5982 30.6984 31.5982C30.894 31.5982 31.0877 31.5592 31.2681 31.4835C31.4485 31.4078 31.612 31.297 31.7491 31.1574L32.0304 30.8761C32.3083 30.597 32.4643 30.2192 32.4643 29.8253C32.4643 29.4315 32.3083 29.0537 32.0304 28.7746L27.0664 23.8105H45.1273Z" fill="#00BFB2"/>
</g>
<path d="M57.0745 31.627V11.8914H69.9103V14.8884H60.6496V20.2463H69.2454V23.2432H60.6496V28.63H69.9874V31.627H57.0745ZM85.5393 16.8253L80.2682 31.627H76.4136L71.1424 16.8253H74.8621L78.2638 27.8205H78.418L81.8293 16.8253H85.5393ZM92.9171 31.916C91.4331 31.916 90.1515 31.6077 89.0722 30.9909C87.9993 30.3678 87.1738 29.4877 86.5956 28.3505C86.0174 27.207 85.7283 25.8611 85.7283 24.3129C85.7283 22.7903 86.0174 21.454 86.5956 20.3041C87.1802 19.1477 87.9961 18.2483 89.0433 17.6059C90.0904 16.957 91.3207 16.6326 92.7341 16.6326C93.6463 16.6326 94.5072 16.7803 95.3166 17.0758C96.1325 17.3649 96.852 17.8146 97.4752 18.425C98.1048 19.0353 98.5995 19.8126 98.9592 20.757C99.319 21.6949 99.4989 22.8128 99.4989 24.1105V25.1801H87.3665V22.8288H96.155C96.1486 22.1607 96.004 21.5665 95.7214 21.0461C95.4387 20.5193 95.0436 20.1049 94.5361 19.803C94.035 19.501 93.4504 19.3501 92.7822 19.3501C92.0691 19.3501 91.4428 19.5235 90.9031 19.8704C90.3635 20.2109 89.9427 20.6606 89.6407 21.2195C89.3452 21.772 89.1942 22.3791 89.1878 23.0408V25.0934C89.1878 25.9543 89.3452 26.6931 89.66 27.3098C89.9748 27.9201 90.4149 28.3891 90.9802 28.7167C91.5455 29.0379 92.2073 29.1986 92.9653 29.1986C93.4728 29.1986 93.9322 29.1279 94.3433 28.9866C94.7545 28.8388 95.1111 28.6236 95.413 28.3409C95.7149 28.0582 95.943 27.7081 96.0972 27.2905L99.3543 27.6567C99.1487 28.5176 98.7569 29.2692 98.1787 29.9117C97.6069 30.5477 96.8745 31.0423 95.9815 31.3957C95.0886 31.7426 94.0671 31.916 92.9171 31.916ZM104.853 22.9541V31.627H101.365V16.8253H104.699V19.3404H104.872C105.213 18.5117 105.756 17.8532 106.501 17.3649C107.252 16.8767 108.181 16.6326 109.286 16.6326C110.307 16.6326 111.197 16.851 111.955 17.2879C112.72 17.7247 113.311 18.3575 113.728 19.1862C114.152 20.015 114.361 21.0204 114.355 22.2025V31.627H110.866V22.7421C110.866 21.7528 110.609 20.9786 110.095 20.4197C109.588 19.8608 108.884 19.5813 107.985 19.5813C107.375 19.5813 106.832 19.7162 106.356 19.9861C105.887 20.2495 105.518 20.6317 105.248 21.1328C104.985 21.6339 104.853 22.241 104.853 22.9541ZM124.207 16.8253V19.5235H115.698V16.8253H124.207ZM117.798 13.2791H121.287V27.1749C121.287 27.6439 121.357 28.0036 121.499 28.2542C121.646 28.4983 121.839 28.6653 122.077 28.7553C122.315 28.8452 122.578 28.8902 122.867 28.8902C123.086 28.8902 123.285 28.8741 123.465 28.842C123.651 28.8099 123.792 28.781 123.889 28.7553L124.476 31.4824C124.29 31.5466 124.023 31.6173 123.677 31.6944C123.336 31.7715 122.918 31.8165 122.424 31.8293C121.55 31.855 120.763 31.7233 120.063 31.4342C119.363 31.1387 118.807 30.6826 118.396 30.0658C117.991 29.4491 117.792 28.6782 117.798 27.7531V13.2791ZM143.085 18.5502H139.481C139.379 17.9592 139.189 17.4356 138.913 16.9795C138.637 16.5169 138.293 16.125 137.882 15.8038C137.471 15.4826 137.002 15.2417 136.475 15.0811C135.954 14.9141 135.392 14.8305 134.788 14.8305C133.716 14.8305 132.765 15.1004 131.936 15.64C131.107 16.1732 130.458 16.957 129.989 17.9913C129.521 19.0192 129.286 20.2752 129.286 21.7592C129.286 23.2689 129.521 24.5409 129.989 25.5752C130.465 26.6031 131.114 27.3805 131.936 27.9073C132.765 28.4276 133.712 28.6878 134.779 28.6878C135.37 28.6878 135.922 28.6107 136.436 28.4565C136.957 28.2959 137.422 28.0615 137.834 27.7531C138.251 27.4447 138.601 27.0657 138.884 26.616C139.173 26.1663 139.372 25.6523 139.481 25.0741L143.085 25.0934C142.951 26.0314 142.658 26.9115 142.209 27.7338C141.765 28.5561 141.184 29.2821 140.464 29.9117C139.745 30.5348 138.903 31.0231 137.94 31.3764C136.976 31.7233 135.906 31.8968 134.731 31.8968C132.996 31.8968 131.448 31.4953 130.086 30.6922C128.724 29.8892 127.651 28.7296 126.867 27.2134C126.084 25.6973 125.692 23.8792 125.692 21.7592C125.692 19.6327 126.087 17.8146 126.877 16.3049C127.667 14.7888 128.743 13.6292 130.105 12.8262C131.467 12.0231 133.009 11.6216 134.731 11.6216C135.829 11.6216 136.851 11.7758 137.795 12.0841C138.739 12.3925 139.581 12.8454 140.32 13.4429C141.059 14.0339 141.666 14.7599 142.141 15.6207C142.623 16.4752 142.938 17.4517 143.085 18.5502ZM145.12 31.627V16.8253H148.608V31.627H145.12ZM146.874 14.7245C146.321 14.7245 145.846 14.5415 145.447 14.1753C145.049 13.8027 144.85 13.3562 144.85 12.8358C144.85 12.309 145.049 11.8625 145.447 11.4963C145.846 11.1237 146.321 10.9374 146.874 10.9374C147.433 10.9374 147.908 11.1237 148.3 11.4963C148.698 11.8625 148.897 12.309 148.897 12.8358C148.897 13.3562 148.698 13.8027 148.3 14.1753C147.908 14.5415 147.433 14.7245 146.874 14.7245ZM151.11 31.627V16.8253H154.492V19.2922H154.647C154.916 18.4378 155.379 17.7793 156.034 17.3168C156.696 16.8478 157.451 16.6133 158.299 16.6133C158.492 16.6133 158.707 16.6229 158.944 16.6422C159.189 16.6551 159.391 16.6775 159.552 16.7097V19.9186C159.404 19.8672 159.169 19.8222 158.848 19.7837C158.533 19.7387 158.228 19.7162 157.933 19.7162C157.297 19.7162 156.725 19.8544 156.217 20.1306C155.716 20.4004 155.321 20.7763 155.032 21.2581C154.743 21.7399 154.598 22.2956 154.598 22.9252V31.627H151.11ZM166.631 31.916C165.153 31.916 163.884 31.5916 162.824 30.9428C161.771 30.2939 160.958 29.3977 160.386 28.2542C159.821 27.1042 159.538 25.7808 159.538 24.2839C159.538 22.7807 159.827 21.454 160.405 20.3041C160.984 19.1477 161.8 18.2483 162.853 17.6059C163.913 16.957 165.166 16.6326 166.611 16.6326C167.813 16.6326 168.876 16.8542 169.801 17.2975C170.733 17.7343 171.475 18.3543 172.027 19.1573C172.58 19.9539 172.894 20.8855 172.971 21.9519H169.637C169.502 21.2388 169.181 20.6446 168.674 20.1692C168.172 19.6873 167.501 19.4464 166.66 19.4464C165.946 19.4464 165.32 19.6392 164.78 20.0246C164.241 20.4037 163.82 20.9497 163.518 21.6628C163.223 22.3759 163.075 23.2304 163.075 24.2261C163.075 25.2347 163.223 26.102 163.518 26.828C163.814 27.5475 164.228 28.1032 164.761 28.4951C165.301 28.8806 165.934 29.0733 166.66 29.0733C167.173 29.0733 167.633 28.9769 168.038 28.7842C168.449 28.585 168.792 28.2992 169.069 27.9265C169.345 27.5539 169.534 27.101 169.637 26.5678H172.971C172.888 27.615 172.58 28.5433 172.046 29.3527C171.513 30.1558 170.787 30.7854 169.868 31.2415C168.95 31.6912 167.871 31.916 166.631 31.916ZM178.239 11.8914V31.627H174.75V11.8914H178.239ZM187.293 31.916C185.809 31.916 184.528 31.6077 183.448 30.9909C182.376 30.3678 181.55 29.4877 180.972 28.3505C180.394 27.207 180.105 25.8611 180.105 24.3129C180.105 22.7903 180.394 21.454 180.972 20.3041C181.556 19.1477 182.372 18.2483 183.42 17.6059C184.467 16.957 185.697 16.6326 187.11 16.6326C188.023 16.6326 188.883 16.7803 189.693 17.0758C190.509 17.3649 191.228 17.8146 191.851 18.425C192.481 19.0353 192.976 19.8126 193.335 20.757C193.695 21.6949 193.875 22.8128 193.875 24.1105V25.1801H181.743V22.8288H190.531C190.525 22.1607 190.38 21.5665 190.098 21.0461C189.815 20.5193 189.42 20.1049 188.912 19.803C188.411 19.501 187.827 19.3501 187.158 19.3501C186.445 19.3501 185.819 19.5235 185.279 19.8704C184.74 20.2109 184.319 20.6606 184.017 21.2195C183.721 21.772 183.57 22.3791 183.564 23.0408V25.0934C183.564 25.9543 183.721 26.6931 184.036 27.3098C184.351 27.9201 184.791 28.3891 185.356 28.7167C185.922 29.0379 186.583 29.1986 187.342 29.1986C187.849 29.1986 188.308 29.1279 188.72 28.9866C189.131 28.8388 189.487 28.6236 189.789 28.3409C190.091 28.0582 190.319 27.7081 190.473 27.2905L193.731 27.6567C193.525 28.5176 193.133 29.2692 192.555 29.9117C191.983 30.5477 191.251 31.0423 190.358 31.3957C189.465 31.7426 188.443 31.916 187.293 31.916Z" fill="white"/>
<defs>
<clipPath id="clip0_416_6413">
<rect width="44.2547" height="44.2547" fill="white" transform="translate(0.873047)"/>
</clipPath>
</defs>
</svg>
