<svg width="296" height="133" viewBox="0 0 296 133" fill="none" xmlns="http://www.w3.org/2000/svg">
<rect width="296" height="133" rx="5" fill="white"/>
<mask id="mask0_416_1717" style="mask-type:alpha" maskUnits="userSpaceOnUse" x="0" y="0" width="296" height="133">
<rect width="296" height="133" rx="5" fill="white"/>
</mask>
<g mask="url(#mask0_416_1717)">
<g opacity="0.2">
<path d="M230.188 22.6843L264.069 56.5658H138.083C141.172 19.2919 157.38 -15.6933 183.843 -42.1568C210.307 -68.6203 245.292 -84.8282 282.566 -87.9174V38.0097L248.684 4.12813L248.683 4.12658C246.494 1.94785 243.532 0.724701 240.444 0.724701C237.356 0.724701 234.394 1.94784 232.206 4.12658L232.2 4.13247L232.194 4.13846L230.186 6.20571C230.184 6.20721 230.183 6.2087 230.181 6.2102C228.006 8.39809 226.784 11.3585 226.784 14.4443C226.784 17.5323 228.007 20.4944 230.186 22.6827L230.188 22.6843Z" stroke="#00BFB2" stroke-width="2"/>
<path d="M282.565 101.204V227.19C245.302 224.087 210.331 207.874 183.88 181.412C157.428 154.949 141.229 119.972 138.141 82.707H264.068L230.187 116.589L230.185 116.59C228.007 118.778 226.783 121.741 226.783 124.829C226.783 127.916 228.007 130.879 230.185 133.067L230.187 133.068L232.197 135.079C232.198 135.08 232.199 135.081 232.201 135.082C233.276 136.176 234.558 137.045 235.972 137.639C237.388 138.233 238.908 138.538 240.444 138.538C241.979 138.538 243.499 138.233 244.915 137.639C246.329 137.045 247.611 136.176 248.687 135.082C248.688 135.081 248.689 135.08 248.69 135.079L282.565 101.204Z" stroke="#00BFB2" stroke-width="2"/>
</g>
</g>
<path d="M54.3315 90V79.8182H55.8677V84.2429H60.9437V79.8182H62.4849V90H60.9437V85.5604H55.8677V90H54.3315ZM69.4402 86.8331V82.3636H70.9316V90H69.47V88.6776H69.3904C69.2148 89.0852 68.9331 89.425 68.5453 89.6967C68.1608 89.9652 67.6819 90.0994 67.1085 90.0994C66.618 90.0994 66.1838 89.9917 65.8059 89.7763C65.4314 89.5575 65.1364 89.2344 64.921 88.8068C64.7089 88.3793 64.6028 87.8506 64.6028 87.2209V82.3636H66.0893V87.0419C66.0893 87.5623 66.2335 87.9766 66.5218 88.2848C66.8102 88.593 67.1847 88.7472 67.6454 88.7472C67.9238 88.7472 68.2006 88.6776 68.4757 88.5384C68.7541 88.3991 68.9844 88.1887 69.1667 87.907C69.3523 87.6252 69.4435 87.2673 69.4402 86.8331ZM72.929 90V82.3636H74.3658V83.5767H74.4453C74.5845 83.1657 74.8298 82.8426 75.1811 82.6072C75.5357 82.3686 75.9368 82.2493 76.3842 82.2493C76.477 82.2493 76.5864 82.2526 76.7124 82.2592C76.8416 82.2659 76.9427 82.2741 77.0156 82.2841V83.706C76.956 83.6894 76.8499 83.6712 76.6974 83.6513C76.545 83.6281 76.3925 83.6165 76.2401 83.6165C75.8887 83.6165 75.5755 83.6911 75.3004 83.8402C75.0286 83.986 74.8132 84.1899 74.6541 84.4517C74.495 84.7102 74.4155 85.0052 74.4155 85.3366V90H72.929ZM78.302 90V82.3636H79.7388V83.5767H79.8184C79.9576 83.1657 80.2028 82.8426 80.5542 82.6072C80.9088 82.3686 81.3098 82.2493 81.7573 82.2493C81.8501 82.2493 81.9595 82.2526 82.0854 82.2592C82.2147 82.2659 82.3158 82.2741 82.3887 82.2841V83.706C82.329 83.6894 82.223 83.6712 82.0705 83.6513C81.918 83.6281 81.7656 83.6165 81.6131 83.6165C81.2618 83.6165 80.9486 83.6911 80.6735 83.8402C80.4017 83.986 80.1863 84.1899 80.0272 84.4517C79.8681 84.7102 79.7885 85.0052 79.7885 85.3366V90H78.302ZM85.829 90.169C85.3451 90.169 84.9076 90.0795 84.5165 89.9006C84.1254 89.7183 83.8155 89.4548 83.5868 89.1101C83.3614 88.7654 83.2488 88.3428 83.2488 87.8423C83.2488 87.4115 83.3316 87.0568 83.4973 86.7784C83.6631 86.5 83.8868 86.2796 84.1685 86.1172C84.4502 85.9548 84.7651 85.8321 85.1131 85.7493C85.4611 85.6664 85.8158 85.6035 86.177 85.5604C86.6344 85.5073 87.0056 85.4643 87.2907 85.4311C87.5757 85.3946 87.7828 85.3366 87.9121 85.2571C88.0414 85.1776 88.106 85.0483 88.106 84.8693V84.8345C88.106 84.4003 87.9834 84.0639 87.7381 83.8253C87.4962 83.5866 87.1349 83.4673 86.6543 83.4673C86.1538 83.4673 85.7594 83.5784 85.4711 83.8004C85.186 84.0192 84.9888 84.2628 84.8794 84.5312L83.4824 84.2131C83.6481 83.7491 83.8901 83.3745 84.2083 83.0895C84.5298 82.8011 84.8993 82.5923 85.3169 82.4631C85.7346 82.3305 86.1737 82.2642 86.6344 82.2642C86.9393 82.2642 87.2625 82.3007 87.6039 82.3736C87.9486 82.4432 88.2701 82.5724 88.5684 82.7614C88.87 82.9503 89.1169 83.2204 89.3091 83.5717C89.5014 83.9197 89.5975 84.3722 89.5975 84.929V90H88.1458V88.956H88.0861C87.99 89.1482 87.8458 89.3371 87.6536 89.5227C87.4614 89.7083 87.2144 89.8625 86.9128 89.9851C86.6112 90.1077 86.2499 90.169 85.829 90.169ZM86.1522 88.9759C86.5632 88.9759 86.9145 88.8946 87.2061 88.7322C87.5011 88.5698 87.7248 88.3577 87.8773 88.0959C88.0331 87.8307 88.111 87.5473 88.111 87.2457V86.2614C88.0579 86.3144 87.9552 86.3641 87.8027 86.4105C87.6536 86.4536 87.4829 86.4917 87.2907 86.5249C87.0984 86.5547 86.9112 86.5829 86.7289 86.6094C86.5466 86.6326 86.3941 86.6525 86.2715 86.669C85.9831 86.7055 85.7196 86.7668 85.481 86.853C85.2457 86.9392 85.0568 87.0634 84.9142 87.2259C84.775 87.3849 84.7054 87.5971 84.7054 87.8622C84.7054 88.2301 84.8413 88.5085 85.1131 88.6974C85.3849 88.883 85.7312 88.9759 86.1522 88.9759ZM92.2436 92.8636C92.0215 92.8636 91.8194 92.8454 91.6371 92.8089C91.4548 92.7758 91.3189 92.7393 91.2294 92.6996L91.5874 91.4815C91.8591 91.5545 92.1011 91.5859 92.3132 91.576C92.5253 91.5661 92.7126 91.4865 92.875 91.3374C93.0407 91.1882 93.1866 90.9446 93.3125 90.6065L93.4964 90.0994L90.7024 82.3636H92.2933L94.2273 88.2898H94.3068L96.2408 82.3636H97.8366L94.6896 91.0192C94.5438 91.4169 94.3582 91.7533 94.1328 92.0284C93.9074 92.3068 93.639 92.5156 93.3274 92.6548C93.0159 92.794 92.6546 92.8636 92.2436 92.8636ZM101.108 79.8182L100.979 87.0717H99.6016L99.4723 79.8182H101.108ZM100.293 90.0945C100.018 90.0945 99.7822 89.9983 99.5866 89.8061C99.3911 89.6106 99.295 89.3752 99.2983 89.1001C99.295 88.8284 99.3911 88.5964 99.5866 88.4041C99.7822 88.2086 100.018 88.1108 100.293 88.1108C100.561 88.1108 100.793 88.2086 100.989 88.4041C101.184 88.5964 101.284 88.8284 101.287 89.1001C101.284 89.2824 101.236 89.4498 101.143 89.6023C101.053 89.7514 100.934 89.8707 100.785 89.9602C100.636 90.0497 100.472 90.0945 100.293 90.0945ZM110.469 90H107.173V79.8182H110.574C111.571 79.8182 112.428 80.022 113.144 80.4297C113.86 80.834 114.409 81.4157 114.79 82.1747C115.174 82.9304 115.366 83.8369 115.366 84.8942C115.366 85.9548 115.173 86.8662 114.785 87.6286C114.4 88.3909 113.844 88.9775 113.114 89.3885C112.385 89.7962 111.504 90 110.469 90ZM108.71 88.6577H110.385C111.161 88.6577 111.805 88.5118 112.319 88.2202C112.833 87.9252 113.217 87.4993 113.472 86.9425C113.728 86.3823 113.855 85.6996 113.855 84.8942C113.855 84.0954 113.728 83.4176 113.472 82.8608C113.22 82.304 112.844 81.8814 112.344 81.593C111.843 81.3047 111.222 81.1605 110.479 81.1605H108.71V88.6577ZM119.38 90.169C118.896 90.169 118.458 90.0795 118.067 89.9006C117.676 89.7183 117.366 89.4548 117.138 89.1101C116.912 88.7654 116.8 88.3428 116.8 87.8423C116.8 87.4115 116.882 87.0568 117.048 86.7784C117.214 86.5 117.438 86.2796 117.719 86.1172C118.001 85.9548 118.316 85.8321 118.664 85.7493C119.012 85.6664 119.367 85.6035 119.728 85.5604C120.185 85.5073 120.556 85.4643 120.841 85.4311C121.126 85.3946 121.334 85.3366 121.463 85.2571C121.592 85.1776 121.657 85.0483 121.657 84.8693V84.8345C121.657 84.4003 121.534 84.0639 121.289 83.8253C121.047 83.5866 120.686 83.4673 120.205 83.4673C119.705 83.4673 119.31 83.5784 119.022 83.8004C118.737 84.0192 118.54 84.2628 118.43 84.5312L117.033 84.2131C117.199 83.7491 117.441 83.3745 117.759 83.0895C118.081 82.8011 118.45 82.5923 118.868 82.4631C119.285 82.3305 119.724 82.2642 120.185 82.2642C120.49 82.2642 120.813 82.3007 121.155 82.3736C121.499 82.4432 121.821 82.5724 122.119 82.7614C122.421 82.9503 122.668 83.2204 122.86 83.5717C123.052 83.9197 123.148 84.3722 123.148 84.929V90H121.697V88.956H121.637C121.541 89.1482 121.397 89.3371 121.204 89.5227C121.012 89.7083 120.765 89.8625 120.464 89.9851C120.162 90.1077 119.801 90.169 119.38 90.169ZM119.703 88.9759C120.114 88.9759 120.465 88.8946 120.757 88.7322C121.052 88.5698 121.276 88.3577 121.428 88.0959C121.584 87.8307 121.662 87.5473 121.662 87.2457V86.2614C121.609 86.3144 121.506 86.3641 121.354 86.4105C121.204 86.4536 121.034 86.4917 120.841 86.5249C120.649 86.5547 120.462 86.5829 120.28 86.6094C120.097 86.6326 119.945 86.6525 119.822 86.669C119.534 86.7055 119.27 86.7668 119.032 86.853C118.796 86.9392 118.608 87.0634 118.465 87.2259C118.326 87.3849 118.256 87.5971 118.256 87.8622C118.256 88.2301 118.392 88.5085 118.664 88.6974C118.936 88.883 119.282 88.9759 119.703 88.9759ZM125.794 92.8636C125.572 92.8636 125.37 92.8454 125.188 92.8089C125.006 92.7758 124.87 92.7393 124.78 92.6996L125.138 91.4815C125.41 91.5545 125.652 91.5859 125.864 91.576C126.076 91.5661 126.263 91.4865 126.426 91.3374C126.592 91.1882 126.737 90.9446 126.863 90.6065L127.047 90.0994L124.253 82.3636H125.844L127.778 88.2898H127.858L129.792 82.3636H131.387L128.24 91.0192C128.095 91.4169 127.909 91.7533 127.684 92.0284C127.458 92.3068 127.19 92.5156 126.878 92.6548C126.567 92.794 126.205 92.8636 125.794 92.8636ZM135.741 90.1541C135.025 90.1541 134.401 89.9901 133.867 89.6619C133.333 89.3338 132.919 88.8748 132.624 88.2848C132.329 87.6948 132.182 87.0054 132.182 86.2166C132.182 85.4245 132.329 84.7318 132.624 84.1385C132.919 83.5452 133.333 83.0845 133.867 82.7564C134.401 82.4283 135.025 82.2642 135.741 82.2642C136.457 82.2642 137.082 82.4283 137.616 82.7564C138.149 83.0845 138.564 83.5452 138.858 84.1385C139.153 84.7318 139.301 85.4245 139.301 86.2166C139.301 87.0054 139.153 87.6948 138.858 88.2848C138.564 88.8748 138.149 89.3338 137.616 89.6619C137.082 89.9901 136.457 90.1541 135.741 90.1541ZM135.746 88.9062C136.21 88.9062 136.595 88.7836 136.9 88.5384C137.205 88.2931 137.43 87.9666 137.576 87.5589C137.725 87.1513 137.8 86.7022 137.8 86.2116C137.8 85.7244 137.725 85.277 137.576 84.8693C137.43 84.4583 137.205 84.1286 136.9 83.88C136.595 83.6314 136.21 83.5071 135.746 83.5071C135.279 83.5071 134.891 83.6314 134.583 83.88C134.278 84.1286 134.051 84.4583 133.902 84.8693C133.756 85.277 133.683 85.7244 133.683 86.2116C133.683 86.7022 133.756 87.1513 133.902 87.5589C134.051 87.9666 134.278 88.2931 134.583 88.5384C134.891 88.7836 135.279 88.9062 135.746 88.9062ZM144.665 82.3636H146.152V90.4972C146.152 91.0076 146.059 91.4384 145.873 91.7898C145.691 92.1411 145.419 92.4079 145.058 92.5902C144.7 92.7725 144.258 92.8636 143.731 92.8636C143.678 92.8636 143.628 92.8636 143.581 92.8636C143.532 92.8636 143.48 92.862 143.427 92.8587V91.581C143.474 91.581 143.515 91.581 143.552 91.581C143.585 91.581 143.623 91.581 143.666 91.581C144.017 91.581 144.271 91.4865 144.427 91.2976C144.586 91.112 144.665 90.8419 144.665 90.4872V82.3636ZM145.401 81.1854C145.143 81.1854 144.921 81.0992 144.735 80.9268C144.553 80.7512 144.461 80.5424 144.461 80.3004C144.461 80.0552 144.553 79.8464 144.735 79.674C144.921 79.4983 145.143 79.4105 145.401 79.4105C145.66 79.4105 145.88 79.4983 146.062 79.674C146.248 79.8464 146.341 80.0552 146.341 80.3004C146.341 80.5424 146.248 80.7512 146.062 80.9268C145.88 81.0992 145.66 81.1854 145.401 81.1854ZM152.989 86.8331V82.3636H154.48V90H153.019V88.6776H152.939C152.764 89.0852 152.482 89.425 152.094 89.6967C151.71 89.9652 151.231 90.0994 150.657 90.0994C150.167 90.0994 149.733 89.9917 149.355 89.7763C148.98 89.5575 148.685 89.2344 148.47 88.8068C148.258 88.3793 148.152 87.8506 148.152 87.2209V82.3636H149.638V87.0419C149.638 87.5623 149.782 87.9766 150.071 88.2848C150.359 88.593 150.734 88.7472 151.194 88.7472C151.473 88.7472 151.749 88.6776 152.025 88.5384C152.303 88.3991 152.533 88.1887 152.716 87.907C152.901 87.6252 152.992 87.2673 152.989 86.8331ZM162.2 84.228L160.853 84.4666C160.796 84.2943 160.707 84.1302 160.584 83.9744C160.465 83.8187 160.303 83.6911 160.097 83.5916C159.892 83.4922 159.635 83.4425 159.327 83.4425C158.906 83.4425 158.554 83.5369 158.273 83.7259C157.991 83.9115 157.85 84.1518 157.85 84.4467C157.85 84.7019 157.944 84.9074 158.133 85.0632C158.322 85.219 158.627 85.3466 159.048 85.446L160.261 85.7244C160.964 85.8868 161.488 86.1371 161.832 86.4751C162.177 86.8132 162.349 87.2524 162.349 87.7926C162.349 88.25 162.217 88.6577 161.952 89.0156C161.69 89.3703 161.323 89.6487 160.853 89.8509C160.385 90.053 159.844 90.1541 159.227 90.1541C158.372 90.1541 157.674 89.9718 157.134 89.6072C156.594 89.2393 156.262 88.7173 156.14 88.0412L157.577 87.8224C157.666 88.197 157.85 88.4804 158.128 88.6726C158.407 88.8615 158.77 88.956 159.217 88.956C159.704 88.956 160.094 88.8549 160.385 88.6527C160.677 88.4472 160.823 88.197 160.823 87.902C160.823 87.6634 160.733 87.4628 160.555 87.3004C160.379 87.138 160.109 87.0154 159.744 86.9325L158.452 86.6491C157.739 86.4867 157.212 86.2282 156.871 85.8736C156.532 85.5189 156.363 85.0698 156.363 84.5263C156.363 84.0755 156.489 83.6811 156.741 83.343C156.993 83.005 157.341 82.7415 157.785 82.5526C158.229 82.3603 158.738 82.2642 159.312 82.2642C160.137 82.2642 160.787 82.4432 161.26 82.8011C161.734 83.1558 162.048 83.6314 162.2 84.228ZM167.548 82.3636V83.5568H163.377V82.3636H167.548ZM164.496 80.5341H165.982V87.7578C165.982 88.0462 166.025 88.2633 166.112 88.4091C166.198 88.5516 166.309 88.6494 166.445 88.7024C166.584 88.7521 166.735 88.777 166.897 88.777C167.016 88.777 167.121 88.7687 167.21 88.7521C167.3 88.7356 167.369 88.7223 167.419 88.7124L167.688 89.9403C167.601 89.9735 167.479 90.0066 167.32 90.0398C167.161 90.0762 166.962 90.0961 166.723 90.0994C166.332 90.1061 165.967 90.0365 165.629 89.8906C165.291 89.7448 165.018 89.5194 164.809 89.2145C164.6 88.9096 164.496 88.5268 164.496 88.0661V80.5341ZM172.898 92.8636V82.3636H174.349V83.6016H174.474C174.56 83.4425 174.684 83.2585 174.847 83.0497C175.009 82.8409 175.234 82.6586 175.523 82.5028C175.811 82.3438 176.192 82.2642 176.666 82.2642C177.283 82.2642 177.833 82.42 178.317 82.7315C178.801 83.0431 179.18 83.4922 179.455 84.0788C179.734 84.6655 179.873 85.3714 179.873 86.1967C179.873 87.022 179.735 87.7296 179.46 88.3196C179.185 88.9062 178.807 89.3587 178.327 89.6768C177.846 89.9917 177.298 90.1491 176.681 90.1491C176.217 90.1491 175.838 90.0713 175.543 89.9155C175.251 89.7597 175.022 89.5774 174.857 89.3686C174.691 89.1598 174.563 88.9742 174.474 88.8118H174.384V92.8636H172.898ZM174.354 86.1818C174.354 86.7187 174.432 87.1894 174.588 87.5938C174.744 87.9981 174.969 88.3146 175.264 88.5433C175.559 88.7687 175.92 88.8814 176.348 88.8814C176.792 88.8814 177.163 88.7637 177.462 88.5284C177.76 88.2898 177.985 87.9666 178.138 87.5589C178.294 87.1513 178.371 86.6922 178.371 86.1818C178.371 85.678 178.295 85.2256 178.143 84.8246C177.994 84.4235 177.768 84.107 177.467 83.875C177.168 83.643 176.795 83.527 176.348 83.527C175.917 83.527 175.553 83.638 175.254 83.8601C174.959 84.0821 174.736 84.392 174.583 84.7898C174.431 85.1875 174.354 85.6515 174.354 86.1818ZM186.376 86.8331V82.3636H187.867V90H186.406V88.6776H186.326C186.15 89.0852 185.869 89.425 185.481 89.6967C185.096 89.9652 184.617 90.0994 184.044 90.0994C183.554 90.0994 183.119 89.9917 182.741 89.7763C182.367 89.5575 182.072 89.2344 181.857 88.8068C181.644 88.3793 181.538 87.8506 181.538 87.2209V82.3636H183.025V87.0419C183.025 87.5623 183.169 87.9766 183.457 88.2848C183.746 88.593 184.12 88.7472 184.581 88.7472C184.859 88.7472 185.136 88.6776 185.411 88.5384C185.69 88.3991 185.92 88.1887 186.102 87.907C186.288 87.6252 186.379 87.2673 186.376 86.8331ZM189.865 90V82.3636H191.301V83.5767H191.381C191.52 83.1657 191.765 82.8426 192.117 82.6072C192.471 82.3686 192.872 82.2493 193.32 82.2493C193.413 82.2493 193.522 82.2526 193.648 82.2592C193.777 82.2659 193.878 82.2741 193.951 82.2841V83.706C193.892 83.6894 193.785 83.6712 193.633 83.6513C193.481 83.6281 193.328 83.6165 193.176 83.6165C192.824 83.6165 192.511 83.6911 192.236 83.8402C191.964 83.986 191.749 84.1899 191.59 84.4517C191.431 84.7102 191.351 85.0052 191.351 85.3366V90H189.865ZM198.181 90.1541C197.442 90.1541 196.805 89.9867 196.272 89.652C195.741 89.3139 195.334 88.8482 195.049 88.255C194.764 87.6617 194.621 86.9822 194.621 86.2166C194.621 85.4411 194.767 84.7566 195.059 84.1634C195.35 83.5668 195.761 83.1011 196.292 82.7663C196.822 82.4316 197.447 82.2642 198.166 82.2642C198.746 82.2642 199.263 82.3719 199.717 82.5874C200.171 82.7995 200.537 83.0978 200.816 83.4822C201.097 83.8667 201.265 84.3158 201.318 84.8295H199.871C199.792 84.4716 199.609 84.1634 199.324 83.9048C199.042 83.6463 198.665 83.517 198.191 83.517C197.776 83.517 197.413 83.6264 197.102 83.8452C196.794 84.0606 196.553 84.3688 196.381 84.7699C196.209 85.1676 196.123 85.6383 196.123 86.1818C196.123 86.7386 196.207 87.2192 196.376 87.6236C196.545 88.0279 196.784 88.3411 197.092 88.5632C197.404 88.7853 197.77 88.8963 198.191 88.8963C198.472 88.8963 198.728 88.8449 198.956 88.7422C199.188 88.6361 199.382 88.4853 199.538 88.2898C199.697 88.0942 199.808 87.8589 199.871 87.5838H201.318C201.265 88.0777 201.104 88.5185 200.836 88.9062C200.567 89.294 200.208 89.599 199.757 89.821C199.309 90.0431 198.784 90.1541 198.181 90.1541ZM204.394 85.4659V90H202.907V79.8182H204.374V83.6065H204.469C204.648 83.1955 204.921 82.8691 205.289 82.6271C205.657 82.3852 206.137 82.2642 206.731 82.2642C207.254 82.2642 207.712 82.3719 208.103 82.5874C208.497 82.8028 208.802 83.1243 209.018 83.5518C209.236 83.9761 209.346 84.5064 209.346 85.1428V90H207.859V85.3217C207.859 84.7616 207.715 84.3274 207.427 84.0192C207.138 83.7076 206.737 83.5518 206.224 83.5518C205.872 83.5518 205.557 83.6264 205.279 83.7756C205.004 83.9247 204.787 84.1435 204.628 84.4318C204.472 84.7169 204.394 85.0616 204.394 85.4659ZM213.552 90.169C213.068 90.169 212.63 90.0795 212.239 89.9006C211.848 89.7183 211.538 89.4548 211.309 89.1101C211.084 88.7654 210.971 88.3428 210.971 87.8423C210.971 87.4115 211.054 87.0568 211.22 86.7784C211.386 86.5 211.609 86.2796 211.891 86.1172C212.173 85.9548 212.488 85.8321 212.836 85.7493C213.184 85.6664 213.538 85.6035 213.9 85.5604C214.357 85.5073 214.728 85.4643 215.013 85.4311C215.298 85.3946 215.506 85.3366 215.635 85.2571C215.764 85.1776 215.829 85.0483 215.829 84.8693V84.8345C215.829 84.4003 215.706 84.0639 215.461 83.8253C215.219 83.5866 214.858 83.4673 214.377 83.4673C213.876 83.4673 213.482 83.5784 213.194 83.8004C212.909 84.0192 212.711 84.2628 212.602 84.5312L211.205 84.2131C211.371 83.7491 211.613 83.3745 211.931 83.0895C212.252 82.8011 212.622 82.5923 213.04 82.4631C213.457 82.3305 213.896 82.2642 214.357 82.2642C214.662 82.2642 214.985 82.3007 215.327 82.3736C215.671 82.4432 215.993 82.5724 216.291 82.7614C216.593 82.9503 216.84 83.2204 217.032 83.5717C217.224 83.9197 217.32 84.3722 217.32 84.929V90H215.868V88.956H215.809C215.713 89.1482 215.568 89.3371 215.376 89.5227C215.184 89.7083 214.937 89.8625 214.635 89.9851C214.334 90.1077 213.973 90.169 213.552 90.169ZM213.875 88.9759C214.286 88.9759 214.637 88.8946 214.929 88.7322C215.224 88.5698 215.448 88.3577 215.6 88.0959C215.756 87.8307 215.834 87.5473 215.834 87.2457V86.2614C215.781 86.3144 215.678 86.3641 215.525 86.4105C215.376 86.4536 215.206 86.4917 215.013 86.5249C214.821 86.5547 214.634 86.5829 214.452 86.6094C214.269 86.6326 214.117 86.6525 213.994 86.669C213.706 86.7055 213.442 86.7668 213.204 86.853C212.968 86.9392 212.779 87.0634 212.637 87.2259C212.498 87.3849 212.428 87.5971 212.428 87.8622C212.428 88.2301 212.564 88.5085 212.836 88.6974C213.108 88.883 213.454 88.9759 213.875 88.9759ZM225.022 84.228L223.675 84.4666C223.619 84.2943 223.529 84.1302 223.407 83.9744C223.287 83.8187 223.125 83.6911 222.919 83.5916C222.714 83.4922 222.457 83.4425 222.149 83.4425C221.728 83.4425 221.377 83.5369 221.095 83.7259C220.813 83.9115 220.672 84.1518 220.672 84.4467C220.672 84.7019 220.767 84.9074 220.956 85.0632C221.145 85.219 221.449 85.3466 221.87 85.446L223.083 85.7244C223.786 85.8868 224.31 86.1371 224.654 86.4751C224.999 86.8132 225.172 87.2524 225.172 87.7926C225.172 88.25 225.039 88.6577 224.774 89.0156C224.512 89.3703 224.146 89.6487 223.675 89.8509C223.208 90.053 222.666 90.1541 222.049 90.1541C221.194 90.1541 220.497 89.9718 219.956 89.6072C219.416 89.2393 219.085 88.7173 218.962 88.0412L220.399 87.8224C220.488 88.197 220.672 88.4804 220.951 88.6726C221.229 88.8615 221.592 88.956 222.039 88.956C222.527 88.956 222.916 88.8549 223.208 88.6527C223.499 88.4472 223.645 88.197 223.645 87.902C223.645 87.6634 223.556 87.4628 223.377 87.3004C223.201 87.138 222.931 87.0154 222.566 86.9325L221.274 86.6491C220.561 86.4867 220.034 86.2282 219.693 85.8736C219.355 85.5189 219.186 85.0698 219.186 84.5263C219.186 84.0755 219.312 83.6811 219.564 83.343C219.815 83.005 220.163 82.7415 220.608 82.5526C221.052 82.3603 221.56 82.2642 222.134 82.2642C222.959 82.2642 223.609 82.4432 224.083 82.8011C224.557 83.1558 224.87 83.6314 225.022 84.228ZM230.097 90.1541C229.345 90.1541 228.697 89.9934 228.153 89.6719C227.613 89.3471 227.195 88.8913 226.9 88.3047C226.609 87.7147 226.463 87.0237 226.463 86.2315C226.463 85.4493 226.609 84.7599 226.9 84.1634C227.195 83.5668 227.606 83.1011 228.133 82.7663C228.664 82.4316 229.283 82.2642 229.993 82.2642C230.424 82.2642 230.841 82.3355 231.246 82.478C231.65 82.6205 232.013 82.8442 232.334 83.1491C232.656 83.4541 232.909 83.8501 233.095 84.3374C233.281 84.8213 233.373 85.4096 233.373 86.1023V86.6293H227.303V85.5156H231.917C231.917 85.1245 231.837 84.7782 231.678 84.4766C231.519 84.1716 231.295 83.9313 231.007 83.7557C230.722 83.58 230.387 83.4922 230.003 83.4922C229.585 83.4922 229.22 83.5949 228.909 83.8004C228.601 84.0026 228.362 84.2678 228.193 84.5959C228.027 84.9207 227.944 85.2737 227.944 85.6548V86.5249C227.944 87.0353 228.034 87.4695 228.213 87.8274C228.395 88.1854 228.649 88.4588 228.974 88.6477C229.298 88.8333 229.678 88.9261 230.112 88.9261C230.394 88.9261 230.651 88.8864 230.883 88.8068C231.115 88.724 231.315 88.6013 231.484 88.4389C231.653 88.2765 231.782 88.076 231.872 87.8374L233.279 88.0909C233.166 88.5052 232.964 88.8681 232.672 89.1797C232.384 89.4879 232.021 89.7282 231.584 89.9006C231.149 90.0696 230.654 90.1541 230.097 90.1541ZM237.881 90.1491C237.265 90.1491 236.715 89.9917 236.231 89.6768C235.75 89.3587 235.372 88.9062 235.097 88.3196C234.826 87.7296 234.69 87.022 234.69 86.1967C234.69 85.3714 234.827 84.6655 235.102 84.0788C235.381 83.4922 235.762 83.0431 236.246 82.7315C236.73 82.42 237.278 82.2642 237.891 82.2642C238.365 82.2642 238.746 82.3438 239.035 82.5028C239.326 82.6586 239.552 82.8409 239.711 83.0497C239.873 83.2585 239.999 83.4425 240.089 83.6016H240.178V79.8182H241.665V90H240.213V88.8118H240.089C239.999 88.9742 239.87 89.1598 239.701 89.3686C239.535 89.5774 239.307 89.7597 239.015 89.9155C238.723 90.0713 238.345 90.1491 237.881 90.1491ZM238.21 88.8814C238.637 88.8814 238.998 88.7687 239.293 88.5433C239.592 88.3146 239.817 87.9981 239.969 87.5938C240.125 87.1894 240.203 86.7187 240.203 86.1818C240.203 85.6515 240.127 85.1875 239.974 84.7898C239.822 84.392 239.598 84.0821 239.303 83.8601C239.008 83.638 238.644 83.527 238.21 83.527C237.762 83.527 237.389 83.643 237.091 83.875C236.793 84.107 236.567 84.4235 236.415 84.8246C236.266 85.2256 236.191 85.678 236.191 86.1818C236.191 86.6922 236.267 87.1513 236.42 87.5589C236.572 87.9666 236.798 88.2898 237.096 88.5284C237.397 88.7637 237.769 88.8814 238.21 88.8814ZM106.815 112.169C106.331 112.169 105.894 112.08 105.503 111.901C105.112 111.718 104.802 111.455 104.573 111.11C104.348 110.765 104.235 110.343 104.235 109.842C104.235 109.411 104.318 109.057 104.484 108.778C104.649 108.5 104.873 108.28 105.155 108.117C105.437 107.955 105.751 107.832 106.099 107.749C106.447 107.666 106.802 107.603 107.163 107.56C107.621 107.507 107.992 107.464 108.277 107.431C108.562 107.395 108.769 107.337 108.898 107.257C109.028 107.178 109.092 107.048 109.092 106.869V106.835C109.092 106.4 108.97 106.064 108.724 105.825C108.482 105.587 108.121 105.467 107.641 105.467C107.14 105.467 106.746 105.578 106.457 105.8C106.172 106.019 105.975 106.263 105.866 106.531L104.469 106.213C104.634 105.749 104.876 105.375 105.195 105.089C105.516 104.801 105.886 104.592 106.303 104.463C106.721 104.33 107.16 104.264 107.621 104.264C107.926 104.264 108.249 104.301 108.59 104.374C108.935 104.443 109.256 104.572 109.555 104.761C109.856 104.95 110.103 105.22 110.295 105.572C110.488 105.92 110.584 106.372 110.584 106.929V112H109.132V110.956H109.072C108.976 111.148 108.832 111.337 108.64 111.523C108.448 111.708 108.201 111.862 107.899 111.985C107.598 112.108 107.236 112.169 106.815 112.169ZM107.138 110.976C107.549 110.976 107.901 110.895 108.192 110.732C108.487 110.57 108.711 110.358 108.864 110.096C109.019 109.831 109.097 109.547 109.097 109.246V108.261C109.044 108.314 108.942 108.364 108.789 108.411C108.64 108.454 108.469 108.492 108.277 108.525C108.085 108.555 107.897 108.583 107.715 108.609C107.533 108.633 107.38 108.652 107.258 108.669C106.969 108.705 106.706 108.767 106.467 108.853C106.232 108.939 106.043 109.063 105.901 109.226C105.761 109.385 105.692 109.597 105.692 109.862C105.692 110.23 105.828 110.509 106.099 110.697C106.371 110.883 106.718 110.976 107.138 110.976ZM119.471 115.023C118.864 115.023 118.342 114.943 117.904 114.784C117.47 114.625 117.116 114.415 116.841 114.153C116.565 113.891 116.36 113.604 116.224 113.293L117.502 112.766C117.591 112.911 117.711 113.066 117.86 113.228C118.012 113.394 118.218 113.535 118.476 113.651C118.738 113.767 119.074 113.825 119.485 113.825C120.049 113.825 120.515 113.687 120.882 113.412C121.25 113.14 121.434 112.706 121.434 112.109V110.608H121.34C121.25 110.77 121.121 110.951 120.952 111.15C120.786 111.349 120.558 111.521 120.266 111.667C119.974 111.813 119.595 111.886 119.127 111.886C118.524 111.886 117.981 111.745 117.497 111.463C117.016 111.178 116.635 110.759 116.353 110.205C116.075 109.648 115.936 108.964 115.936 108.152C115.936 107.34 116.073 106.644 116.348 106.064C116.627 105.484 117.008 105.04 117.492 104.732C117.976 104.42 118.524 104.264 119.137 104.264C119.611 104.264 119.994 104.344 120.286 104.503C120.578 104.659 120.805 104.841 120.967 105.05C121.133 105.259 121.26 105.442 121.35 105.602H121.459V104.364H122.916V112.169C122.916 112.825 122.763 113.364 122.458 113.785C122.154 114.206 121.741 114.517 121.221 114.719C120.703 114.922 120.12 115.023 119.471 115.023ZM119.456 110.653C119.883 110.653 120.244 110.553 120.539 110.354C120.838 110.152 121.063 109.864 121.216 109.489C121.371 109.112 121.449 108.659 121.449 108.132C121.449 107.618 121.373 107.166 121.221 106.775C121.068 106.384 120.844 106.079 120.549 105.86C120.254 105.638 119.89 105.527 119.456 105.527C119.008 105.527 118.635 105.643 118.337 105.875C118.039 106.104 117.813 106.415 117.661 106.81C117.512 107.204 117.437 107.645 117.437 108.132C117.437 108.633 117.513 109.072 117.666 109.45C117.818 109.827 118.044 110.122 118.342 110.335C118.644 110.547 119.015 110.653 119.456 110.653ZM124.909 112V104.364H126.396V112H124.909ZM125.66 103.185C125.402 103.185 125.18 103.099 124.994 102.927C124.812 102.751 124.721 102.542 124.721 102.3C124.721 102.055 124.812 101.846 124.994 101.674C125.18 101.498 125.402 101.411 125.66 101.411C125.919 101.411 126.139 101.498 126.321 101.674C126.507 101.846 126.6 102.055 126.6 102.3C126.6 102.542 126.507 102.751 126.321 102.927C126.139 103.099 125.919 103.185 125.66 103.185ZM132.03 104.364V105.557H127.715V104.364H132.03ZM128.898 112V103.479C128.898 103.001 129.002 102.605 129.211 102.29C129.42 101.972 129.697 101.735 130.041 101.58C130.386 101.42 130.761 101.341 131.165 101.341C131.463 101.341 131.718 101.366 131.931 101.415C132.143 101.462 132.3 101.505 132.403 101.545L132.055 102.748C131.985 102.728 131.896 102.705 131.786 102.678C131.677 102.648 131.544 102.634 131.389 102.634C131.027 102.634 130.769 102.723 130.613 102.902C130.461 103.081 130.384 103.339 130.384 103.678V112H128.898ZM137.128 104.364V105.557H132.957V104.364H137.128ZM134.076 102.534H135.562V109.758C135.562 110.046 135.605 110.263 135.692 110.409C135.778 110.552 135.889 110.649 136.025 110.702C136.164 110.752 136.315 110.777 136.477 110.777C136.596 110.777 136.701 110.769 136.79 110.752C136.88 110.736 136.949 110.722 136.999 110.712L137.268 111.94C137.181 111.973 137.059 112.007 136.9 112.04C136.741 112.076 136.542 112.096 136.303 112.099C135.912 112.106 135.547 112.036 135.209 111.891C134.871 111.745 134.598 111.519 134.389 111.214C134.18 110.91 134.076 110.527 134.076 110.066V102.534ZM146.112 104.364V105.557H141.797V104.364H146.112ZM142.98 112V103.479C142.98 103.001 143.084 102.605 143.293 102.29C143.502 101.972 143.779 101.735 144.123 101.58C144.468 101.42 144.843 101.341 145.247 101.341C145.545 101.341 145.8 101.366 146.013 101.415C146.225 101.462 146.382 101.505 146.485 101.545L146.137 102.748C146.067 102.728 145.978 102.705 145.868 102.678C145.759 102.648 145.626 102.634 145.471 102.634C145.109 102.634 144.851 102.723 144.695 102.902C144.543 103.081 144.466 103.339 144.466 103.678V112H142.98ZM150.562 112.154C149.846 112.154 149.221 111.99 148.687 111.662C148.154 111.334 147.739 110.875 147.444 110.285C147.149 109.695 147.002 109.005 147.002 108.217C147.002 107.424 147.149 106.732 147.444 106.138C147.739 105.545 148.154 105.085 148.687 104.756C149.221 104.428 149.846 104.264 150.562 104.264C151.278 104.264 151.902 104.428 152.436 104.756C152.97 105.085 153.384 105.545 153.679 106.138C153.974 106.732 154.121 107.424 154.121 108.217C154.121 109.005 153.974 109.695 153.679 110.285C153.384 110.875 152.97 111.334 152.436 111.662C151.902 111.99 151.278 112.154 150.562 112.154ZM150.567 110.906C151.031 110.906 151.415 110.784 151.72 110.538C152.025 110.293 152.25 109.967 152.396 109.559C152.545 109.151 152.62 108.702 152.62 108.212C152.62 107.724 152.545 107.277 152.396 106.869C152.25 106.458 152.025 106.129 151.72 105.88C151.415 105.631 151.031 105.507 150.567 105.507C150.099 105.507 149.711 105.631 149.403 105.88C149.098 106.129 148.871 106.458 148.722 106.869C148.576 107.277 148.503 107.724 148.503 108.212C148.503 108.702 148.576 109.151 148.722 109.559C148.871 109.967 149.098 110.293 149.403 110.538C149.711 110.784 150.099 110.906 150.567 110.906ZM155.781 112V104.364H157.217V105.577H157.297C157.436 105.166 157.681 104.843 158.033 104.607C158.387 104.369 158.788 104.249 159.236 104.249C159.329 104.249 159.438 104.253 159.564 104.259C159.693 104.266 159.794 104.274 159.867 104.284V105.706C159.808 105.689 159.701 105.671 159.549 105.651C159.397 105.628 159.244 105.616 159.092 105.616C158.74 105.616 158.427 105.691 158.152 105.84C157.88 105.986 157.665 106.19 157.506 106.452C157.347 106.71 157.267 107.005 157.267 107.337V112H155.781ZM165.798 114.864C165.576 114.864 165.374 114.845 165.192 114.809C165.009 114.776 164.874 114.739 164.784 114.7L165.142 113.482C165.414 113.554 165.656 113.586 165.868 113.576C166.08 113.566 166.267 113.487 166.43 113.337C166.595 113.188 166.741 112.945 166.867 112.607L167.051 112.099L164.257 104.364H165.848L167.782 110.29H167.862L169.795 104.364H171.391L168.244 113.019C168.098 113.417 167.913 113.753 167.688 114.028C167.462 114.307 167.194 114.516 166.882 114.655C166.571 114.794 166.209 114.864 165.798 114.864ZM175.745 112.154C175.029 112.154 174.405 111.99 173.871 111.662C173.337 111.334 172.923 110.875 172.628 110.285C172.333 109.695 172.186 109.005 172.186 108.217C172.186 107.424 172.333 106.732 172.628 106.138C172.923 105.545 173.337 105.085 173.871 104.756C174.405 104.428 175.029 104.264 175.745 104.264C176.461 104.264 177.086 104.428 177.619 104.756C178.153 105.085 178.567 105.545 178.862 106.138C179.157 106.732 179.305 107.424 179.305 108.217C179.305 109.005 179.157 109.695 178.862 110.285C178.567 110.875 178.153 111.334 177.619 111.662C177.086 111.99 176.461 112.154 175.745 112.154ZM175.75 110.906C176.214 110.906 176.599 110.784 176.904 110.538C177.209 110.293 177.434 109.967 177.58 109.559C177.729 109.151 177.803 108.702 177.803 108.212C177.803 107.724 177.729 107.277 177.58 106.869C177.434 106.458 177.209 106.129 176.904 105.88C176.599 105.631 176.214 105.507 175.75 105.507C175.283 105.507 174.895 105.631 174.587 105.88C174.282 106.129 174.055 106.458 173.906 106.869C173.76 107.277 173.687 107.724 173.687 108.212C173.687 108.702 173.76 109.151 173.906 109.559C174.055 109.967 174.282 110.293 174.587 110.538C174.895 110.784 175.283 110.906 175.75 110.906ZM185.801 108.833V104.364H187.293V112H185.831V110.678H185.752C185.576 111.085 185.294 111.425 184.907 111.697C184.522 111.965 184.043 112.099 183.47 112.099C182.979 112.099 182.545 111.992 182.167 111.776C181.793 111.558 181.498 111.234 181.282 110.807C181.07 110.379 180.964 109.851 180.964 109.221V104.364H182.451V109.042C182.451 109.562 182.595 109.977 182.883 110.285C183.172 110.593 183.546 110.747 184.007 110.747C184.285 110.747 184.562 110.678 184.837 110.538C185.115 110.399 185.346 110.189 185.528 109.907C185.714 109.625 185.805 109.267 185.801 108.833ZM191.165 101.818L191.035 109.072H189.658L189.529 101.818H191.165ZM190.349 112.094C190.074 112.094 189.839 111.998 189.643 111.806C189.448 111.611 189.352 111.375 189.355 111.1C189.352 110.828 189.448 110.596 189.643 110.404C189.839 110.209 190.074 110.111 190.349 110.111C190.618 110.111 190.85 110.209 191.045 110.404C191.241 110.596 191.34 110.828 191.344 111.1C191.34 111.282 191.292 111.45 191.199 111.602C191.11 111.751 190.991 111.871 190.841 111.96C190.692 112.05 190.528 112.094 190.349 112.094Z" fill="#555555"/>
<circle cx="148" cy="42" r="27" fill="#00BFB2"/>
</svg>
