<svg width="319" height="263" viewBox="0 0 319 263" fill="none" xmlns="http://www.w3.org/2000/svg">
<g filter="url(#filter0_d_416_1739)">
<rect x="60" y="56" width="199" height="143" rx="8" fill="white" shape-rendering="crispEdges"/>
<rect x="76" y="72" width="38" height="38" rx="8" fill="#E0E6FF"/>
<path d="M92.5915 93.4565L92.9113 93.4579C97.5557 93.4983 100.183 94.4363 100.183 96.9985C100.183 99.5064 97.665 100.474 93.2236 100.555L92.5915 100.561C87.7472 100.561 85.0005 99.6396 85.0005 97.0185C85.0005 94.3939 87.7581 93.4565 92.5915 93.4565ZM92.5915 94.9565C88.5741 94.9565 86.5005 95.6614 86.5005 97.0185C86.5005 98.3669 88.5692 99.0605 92.5915 99.0605C96.6091 99.0605 98.6835 98.3555 98.6835 96.9985C98.6835 95.6508 96.6129 94.9565 92.5915 94.9565ZM100.587 92.7483C101.168 92.7878 101.745 92.871 102.3 92.994C103.488 93.2303 104.371 93.6715 104.776 94.5206C105.074 95.1494 105.074 95.8808 104.776 96.5095C104.373 97.3565 103.499 97.7945 102.304 98.0402C101.899 98.1237 101.502 97.8624 101.419 97.4567C101.335 97.051 101.596 96.6544 102.002 96.571C102.771 96.4128 103.283 96.1564 103.421 95.8656C103.526 95.6444 103.526 95.3858 103.421 95.1653C103.282 94.8734 102.768 94.6165 101.991 94.4619C101.494 94.3518 100.991 94.2793 100.485 94.2449C100.072 94.2168 99.7599 93.859 99.788 93.4457C99.8161 93.0324 100.174 92.7202 100.587 92.7483ZM92.5915 81.5C95.4395 81.5 97.7265 83.7866 97.7265 86.634C97.7265 89.4822 95.4397 91.769 92.5915 91.769C89.7434 91.769 87.4575 89.4824 87.4575 86.634C87.4575 83.7865 89.7436 81.5 92.5915 81.5ZM99.0202 82.5696C101.255 82.5696 103.067 84.3821 103.067 86.6166C103.067 88.8518 101.255 90.6636 99.0202 90.6636C98.606 90.6636 98.2702 90.3278 98.2702 89.9136C98.2702 89.4994 98.606 89.1636 99.0202 89.1636C100.427 89.1636 101.567 88.0234 101.567 86.6166C101.567 85.2104 100.427 84.0696 99.0202 84.0696C98.606 84.0696 98.2702 83.7338 98.2702 83.3196C98.2702 82.9054 98.606 82.5696 99.0202 82.5696ZM92.5915 83C90.5721 83 88.9575 84.6148 88.9575 86.634C88.9575 88.654 90.5719 90.269 92.5915 90.269C94.6113 90.269 96.2265 88.6538 96.2265 86.634C96.2265 84.6151 94.6111 83 92.5915 83Z" fill="#2B59FF"/>
<path d="M129.422 94.0341V88.2727H130.568V94.0341H129.422ZM127.116 91.7244V90.5824H132.878V91.7244H127.116ZM137.753 95.6193C137.168 95.6193 136.645 95.5185 136.185 95.3168C135.727 95.1151 135.365 94.8352 135.098 94.4773C134.834 94.1165 134.692 93.6989 134.672 93.2244H136.01C136.027 93.483 136.114 93.7074 136.27 93.8977C136.429 94.0852 136.636 94.2301 136.892 94.3324C137.148 94.4347 137.432 94.4858 137.744 94.4858C138.088 94.4858 138.392 94.4261 138.656 94.3068C138.923 94.1875 139.132 94.0213 139.283 93.8082C139.433 93.5923 139.509 93.3438 139.509 93.0625C139.509 92.7699 139.433 92.5128 139.283 92.2912C139.135 92.0668 138.918 91.8906 138.631 91.7628C138.347 91.6349 138.003 91.571 137.599 91.571H136.862V90.4972H137.599C137.923 90.4972 138.207 90.4389 138.452 90.3224C138.699 90.206 138.892 90.044 139.031 89.8366C139.17 89.6264 139.24 89.3807 139.24 89.0994C139.24 88.8295 139.179 88.5952 139.057 88.3963C138.938 88.1946 138.767 88.0369 138.545 87.9233C138.327 87.8097 138.068 87.7528 137.77 87.7528C137.486 87.7528 137.22 87.8054 136.973 87.9105C136.729 88.0128 136.53 88.1605 136.376 88.3537C136.223 88.544 136.141 88.7727 136.129 89.0398H134.855C134.869 88.5682 135.009 88.1534 135.273 87.7955C135.54 87.4375 135.892 87.1577 136.33 86.956C136.767 86.7543 137.253 86.6534 137.787 86.6534C138.347 86.6534 138.83 86.7628 139.236 86.9815C139.645 87.1974 139.96 87.4858 140.182 87.8466C140.406 88.2074 140.517 88.6023 140.514 89.0312C140.517 89.5199 140.381 89.9347 140.105 90.2756C139.832 90.6165 139.469 90.8452 139.014 90.9616V91.0298C139.594 91.1179 140.043 91.348 140.361 91.7202C140.682 92.0923 140.841 92.554 140.838 93.1051C140.841 93.5852 140.707 94.0156 140.438 94.3963C140.17 94.777 139.805 95.0767 139.342 95.2955C138.879 95.5114 138.349 95.6193 137.753 95.6193ZM143.048 95.581C142.815 95.581 142.614 95.4986 142.447 95.3338C142.279 95.1662 142.195 94.9645 142.195 94.7287C142.195 94.4957 142.279 94.2969 142.447 94.1321C142.614 93.9645 142.815 93.8807 143.048 93.8807C143.281 93.8807 143.481 93.9645 143.648 94.1321C143.816 94.2969 143.9 94.4957 143.9 94.7287C143.9 94.8849 143.86 95.0284 143.781 95.1591C143.704 95.2869 143.602 95.3892 143.474 95.4659C143.346 95.5426 143.204 95.581 143.048 95.581ZM148.33 95.6193C147.795 95.6193 147.315 95.517 146.889 95.3125C146.466 95.1051 146.128 94.821 145.875 94.4602C145.622 94.0994 145.487 93.6875 145.47 93.2244H146.749C146.78 93.5994 146.946 93.9077 147.247 94.1491C147.548 94.3906 147.909 94.5114 148.33 94.5114C148.665 94.5114 148.962 94.4347 149.22 94.2812C149.482 94.125 149.686 93.9105 149.834 93.6378C149.984 93.3651 150.06 93.054 150.06 92.7045C150.06 92.3494 149.983 92.0327 149.83 91.7543C149.676 91.4759 149.464 91.2571 149.195 91.098C148.928 90.9389 148.621 90.858 148.274 90.8551C148.01 90.8551 147.744 90.9006 147.477 90.9915C147.21 91.0824 146.994 91.2017 146.83 91.3494L145.624 91.1705L146.114 86.7727H150.912V87.902H147.209L146.932 90.3438H146.983C147.153 90.179 147.379 90.0412 147.661 89.9304C147.945 89.8196 148.249 89.7642 148.572 89.7642C149.104 89.7642 149.577 89.8906 149.991 90.1435C150.409 90.3963 150.737 90.7415 150.976 91.179C151.217 91.6136 151.337 92.1136 151.334 92.679C151.337 93.2443 151.209 93.7486 150.95 94.1918C150.695 94.6349 150.339 94.9844 149.885 95.2401C149.433 95.4929 148.915 95.6193 148.33 95.6193ZM155.929 95.6449C155.255 95.642 154.68 95.4645 154.203 95.1122C153.725 94.7599 153.36 94.2472 153.108 93.5739C152.855 92.9006 152.728 92.0895 152.728 91.1406C152.728 90.1946 152.855 89.3864 153.108 88.7159C153.363 88.0455 153.73 87.5341 154.207 87.1818C154.687 86.8295 155.261 86.6534 155.929 86.6534C156.596 86.6534 157.169 86.831 157.646 87.1861C158.123 87.5384 158.488 88.0497 158.741 88.7202C158.997 89.3878 159.125 90.1946 159.125 91.1406C159.125 92.0923 158.998 92.9048 158.745 93.5781C158.493 94.2486 158.127 94.7614 157.65 95.1165C157.173 95.4688 156.599 95.6449 155.929 95.6449ZM155.929 94.5071C156.52 94.5071 156.981 94.2188 157.314 93.642C157.649 93.0653 157.816 92.2315 157.816 91.1406C157.816 90.4162 157.74 89.804 157.586 89.304C157.436 88.8011 157.218 88.4205 156.934 88.1619C156.653 87.9006 156.318 87.7699 155.929 87.7699C155.341 87.7699 154.879 88.0597 154.544 88.6392C154.208 89.2187 154.039 90.0526 154.037 91.1406C154.037 91.8679 154.112 92.483 154.262 92.9858C154.416 93.4858 154.633 93.8651 154.914 94.1236C155.196 94.3793 155.534 94.5071 155.929 94.5071ZM165.192 93.8636V93.4034C165.192 93.0739 165.26 92.7727 165.396 92.5C165.536 92.2244 165.737 92.0043 166.001 91.8395C166.268 91.6719 166.591 91.5881 166.969 91.5881C167.355 91.5881 167.679 91.6705 167.94 91.8352C168.202 92 168.399 92.2202 168.533 92.4957C168.669 92.7713 168.737 93.0739 168.737 93.4034V93.8636C168.737 94.1932 168.669 94.4957 168.533 94.7713C168.396 95.044 168.196 95.2642 167.932 95.4318C167.67 95.5966 167.349 95.679 166.969 95.679C166.585 95.679 166.261 95.5966 165.997 95.4318C165.733 95.2642 165.533 95.044 165.396 94.7713C165.26 94.4957 165.192 94.1932 165.192 93.8636ZM166.185 93.4034V93.8636C166.185 94.108 166.243 94.3295 166.359 94.5284C166.476 94.7273 166.679 94.8267 166.969 94.8267C167.256 94.8267 167.456 94.7273 167.57 94.5284C167.683 94.3295 167.74 94.108 167.74 93.8636V93.4034C167.74 93.1591 167.685 92.9375 167.574 92.7386C167.466 92.5398 167.264 92.4403 166.969 92.4403C166.685 92.4403 166.483 92.5398 166.364 92.7386C166.244 92.9375 166.185 93.1591 166.185 93.4034ZM160.803 88.8693V88.4091C160.803 88.0795 160.871 87.777 161.007 87.5014C161.146 87.2259 161.348 87.0057 161.612 86.8409C161.879 86.6761 162.202 86.5938 162.58 86.5938C162.966 86.5938 163.29 86.6761 163.551 86.8409C163.813 87.0057 164.01 87.2259 164.143 87.5014C164.277 87.777 164.344 88.0795 164.344 88.4091V88.8693C164.344 89.1989 164.276 89.5014 164.139 89.777C164.006 90.0497 163.807 90.2699 163.543 90.4375C163.281 90.6023 162.96 90.6847 162.58 90.6847C162.193 90.6847 161.868 90.6023 161.604 90.4375C161.342 90.2699 161.143 90.0497 161.007 89.777C160.871 89.5014 160.803 89.1989 160.803 88.8693ZM161.8 88.4091V88.8693C161.8 89.1136 161.857 89.3352 161.97 89.5341C162.087 89.733 162.29 89.8324 162.58 89.8324C162.864 89.8324 163.062 89.733 163.176 89.5341C163.293 89.3352 163.351 89.1136 163.351 88.8693V88.4091C163.351 88.1648 163.295 87.9432 163.185 87.7443C163.074 87.5455 162.872 87.446 162.58 87.446C162.295 87.446 162.094 87.5455 161.974 87.7443C161.858 87.9432 161.8 88.1648 161.8 88.4091ZM161.207 95.5L167.207 86.7727H168.226L162.226 95.5H161.207Z" fill="#50D1AA"/>
<rect x="176" y="82" width="18" height="18" rx="9" fill="#88E091" fill-opacity="0.24"/>
<path d="M185 96.25C184.755 96.25 184.552 96.0704 184.52 95.8375L184.516 95.7727L184.516 87.3828L181.453 90.4139C181.264 90.6007 180.957 90.6013 180.768 90.4154C180.595 90.2463 180.579 89.9812 180.719 89.794L180.766 89.7404L184.656 85.8904L184.667 85.881C184.677 85.8712 184.688 85.8619 184.699 85.853L184.656 85.8904C184.675 85.8718 184.695 85.8551 184.716 85.8403C184.729 85.8313 184.743 85.8225 184.757 85.8145C184.788 85.7963 184.821 85.7822 184.854 85.7718C184.866 85.7683 184.878 85.765 184.89 85.7622C184.9 85.76 184.909 85.7581 184.919 85.7565C184.929 85.7549 184.94 85.7535 184.95 85.7525C184.961 85.7513 184.971 85.7506 184.982 85.7502C184.988 85.7501 184.994 85.75 185 85.75L185.016 85.7501C185.028 85.7505 185.04 85.7514 185.052 85.7526L185 85.75C185.028 85.75 185.055 85.7523 185.081 85.7567C185.093 85.7586 185.105 85.7611 185.117 85.7641C185.127 85.7664 185.136 85.769 185.145 85.7719C185.156 85.7752 185.167 85.7791 185.178 85.7834C185.19 85.7878 185.201 85.7926 185.211 85.7977C185.22 85.8017 185.228 85.806 185.237 85.8107C185.252 85.8195 185.267 85.8288 185.281 85.8388C185.284 85.8404 185.286 85.8421 185.288 85.8439C185.31 85.8598 185.329 85.8763 185.347 85.8942L189.234 89.7404C189.423 89.9271 189.422 90.2293 189.232 90.4153C189.06 90.5844 188.791 90.5993 188.602 90.4603L188.547 90.4139L185.485 87.3833L185.484 95.7727C185.484 96.0363 185.267 96.25 185 96.25Z" fill="#50D1AA"/>
<path d="M85.0483 148.278C83.5701 148.278 82.2576 148.03 81.1108 147.533C79.9706 147.036 79.0758 146.356 78.4261 145.494C77.7831 144.626 77.465 143.642 77.4716 142.541C77.465 141.686 77.6506 140.901 78.0284 140.185C78.4063 139.469 78.9167 138.872 79.5597 138.395C80.2093 137.911 80.9318 137.603 81.7273 137.47V137.331C80.6799 137.099 79.8314 136.565 79.1818 135.73C78.5388 134.888 78.2206 133.917 78.2273 132.817C78.2206 131.769 78.5123 130.835 79.1023 130.013C79.6922 129.191 80.5009 128.545 81.5284 128.074C82.5559 127.597 83.7292 127.358 85.0483 127.358C86.3542 127.358 87.5175 127.597 88.5384 128.074C89.5658 128.545 90.3745 129.191 90.9645 130.013C91.5611 130.835 91.8594 131.769 91.8594 132.817C91.8594 133.917 91.5312 134.888 90.875 135.73C90.2254 136.565 89.3868 137.099 88.3594 137.331V137.47C89.1548 137.603 89.8707 137.911 90.5071 138.395C91.1501 138.872 91.6605 139.469 92.0384 140.185C92.4228 140.901 92.6151 141.686 92.6151 142.541C92.6151 143.642 92.2902 144.626 91.6406 145.494C90.991 146.356 90.0961 147.036 88.956 147.533C87.8224 148.03 86.5199 148.278 85.0483 148.278ZM85.0483 145.435C85.8106 145.435 86.4735 145.305 87.0369 145.047C87.6004 144.782 88.0379 144.411 88.3494 143.933C88.661 143.456 88.8201 142.906 88.8267 142.283C88.8201 141.633 88.651 141.06 88.3196 140.562C87.9948 140.059 87.5473 139.664 86.9773 139.379C86.4138 139.094 85.7708 138.952 85.0483 138.952C84.3191 138.952 83.6695 139.094 83.0994 139.379C82.5294 139.664 82.0786 140.059 81.7472 140.562C81.4223 141.06 81.2633 141.633 81.2699 142.283C81.2633 142.906 81.4157 143.456 81.7273 143.933C82.0388 144.404 82.4763 144.772 83.0398 145.037C83.6098 145.302 84.2794 145.435 85.0483 145.435ZM85.0483 136.158C85.6714 136.158 86.2216 136.032 86.6989 135.78C87.1828 135.528 87.5639 135.177 87.8423 134.726C88.1207 134.275 88.2633 133.755 88.2699 133.165C88.2633 132.581 88.1241 132.071 87.8523 131.634C87.5805 131.189 87.2027 130.848 86.7188 130.609C86.2348 130.364 85.678 130.241 85.0483 130.241C84.4053 130.241 83.8385 130.364 83.348 130.609C82.8641 130.848 82.4863 131.189 82.2145 131.634C81.9493 132.071 81.8201 132.581 81.8267 133.165C81.8201 133.755 81.9527 134.275 82.2244 134.726C82.5028 135.17 82.884 135.521 83.3679 135.78C83.8584 136.032 84.4186 136.158 85.0483 136.158ZM103.341 148.278C102.367 148.272 101.416 148.103 100.488 147.771C99.5595 147.433 98.7243 146.886 97.9819 146.131C97.2395 145.368 96.6495 144.357 96.212 143.098C95.7745 141.832 95.5591 140.264 95.5657 138.395C95.5657 136.652 95.7513 135.097 96.1225 133.732C96.4937 132.366 97.0273 131.213 97.7234 130.271C98.4194 129.323 99.2579 128.601 100.239 128.104C101.227 127.607 102.33 127.358 103.55 127.358C104.829 127.358 105.963 127.61 106.951 128.114C107.945 128.617 108.747 129.307 109.357 130.182C109.967 131.05 110.345 132.031 110.49 133.125H106.861C106.676 132.343 106.294 131.72 105.718 131.256C105.148 130.785 104.425 130.55 103.55 130.55C102.138 130.55 101.051 131.163 100.289 132.389C99.533 133.616 99.1519 135.299 99.1452 137.44H99.2844C99.6093 136.857 100.03 136.357 100.547 135.939C101.064 135.521 101.648 135.2 102.297 134.974C102.953 134.742 103.646 134.626 104.375 134.626C105.569 134.626 106.639 134.911 107.587 135.482C108.542 136.052 109.297 136.837 109.854 137.838C110.411 138.832 110.686 139.973 110.679 141.259C110.686 142.598 110.381 143.801 109.765 144.868C109.148 145.929 108.29 146.764 107.189 147.374C106.089 147.983 104.806 148.285 103.341 148.278ZM103.321 145.295C104.044 145.295 104.69 145.12 105.26 144.768C105.83 144.417 106.281 143.943 106.613 143.347C106.944 142.75 107.106 142.08 107.1 141.338C107.106 140.609 106.947 139.949 106.623 139.359C106.304 138.769 105.864 138.302 105.3 137.957C104.737 137.613 104.094 137.44 103.371 137.44C102.834 137.44 102.334 137.543 101.87 137.749C101.406 137.954 101.001 138.239 100.657 138.604C100.312 138.962 100.04 139.379 99.8413 139.857C99.649 140.327 99.5496 140.831 99.543 141.368C99.5496 142.077 99.7153 142.73 100.04 143.327C100.365 143.923 100.812 144.401 101.382 144.759C101.953 145.116 102.599 145.295 103.321 145.295ZM117.431 145.216L117.301 146.31C117.209 147.145 117.043 147.993 116.804 148.855C116.572 149.723 116.327 150.522 116.069 151.251C115.81 151.981 115.601 152.554 115.442 152.972H113.016C113.109 152.567 113.235 152.017 113.394 151.321C113.56 150.625 113.719 149.843 113.871 148.974C114.024 148.106 114.126 147.224 114.179 146.33L114.249 145.216H117.431ZM128.256 148.278C126.931 148.278 125.744 148.03 124.697 147.533C123.649 147.029 122.817 146.339 122.201 145.464C121.591 144.589 121.266 143.589 121.227 142.462H124.806C124.872 143.297 125.234 143.98 125.89 144.51C126.546 145.034 127.335 145.295 128.256 145.295C128.979 145.295 129.622 145.13 130.185 144.798C130.749 144.467 131.193 144.006 131.518 143.416C131.843 142.826 132.002 142.153 131.995 141.398C132.002 140.629 131.839 139.946 131.508 139.349C131.176 138.753 130.722 138.286 130.146 137.947C129.569 137.603 128.906 137.43 128.157 137.43C127.547 137.424 126.947 137.536 126.357 137.768C125.767 138 125.3 138.305 124.955 138.683L121.624 138.136L122.688 127.636H134.501V130.719H125.741L125.154 136.118H125.273C125.651 135.674 126.185 135.306 126.874 135.014C127.564 134.716 128.319 134.567 129.141 134.567C130.374 134.567 131.475 134.858 132.442 135.442C133.41 136.018 134.173 136.814 134.729 137.828C135.286 138.842 135.565 140.002 135.565 141.308C135.565 142.654 135.253 143.854 134.63 144.908C134.013 145.955 133.155 146.78 132.055 147.384C130.961 147.98 129.695 148.278 128.256 148.278ZM145.965 127.358C146.94 127.365 147.888 127.537 148.809 127.875C149.737 128.206 150.572 128.75 151.315 129.506C152.057 130.255 152.647 131.259 153.085 132.518C153.522 133.778 153.741 135.336 153.741 137.192C153.747 138.942 153.562 140.506 153.184 141.885C152.813 143.257 152.279 144.417 151.583 145.365C150.887 146.313 150.049 147.036 149.067 147.533C148.086 148.03 146.983 148.278 145.756 148.278C144.47 148.278 143.33 148.027 142.336 147.523C141.348 147.019 140.549 146.33 139.94 145.455C139.33 144.58 138.955 143.579 138.816 142.452H142.445C142.631 143.26 143.009 143.903 143.579 144.381C144.156 144.851 144.881 145.087 145.756 145.087C147.168 145.087 148.255 144.473 149.018 143.247C149.78 142.021 150.161 140.317 150.161 138.136H150.022C149.697 138.72 149.276 139.223 148.759 139.648C148.242 140.065 147.656 140.387 146.999 140.612C146.35 140.838 145.66 140.95 144.931 140.95C143.738 140.95 142.664 140.665 141.71 140.095C140.762 139.525 140.009 138.743 139.452 137.749C138.902 136.754 138.624 135.617 138.617 134.338C138.617 133.012 138.922 131.822 139.532 130.768C140.148 129.708 141.007 128.873 142.107 128.263C143.208 127.646 144.494 127.345 145.965 127.358ZM145.975 130.341C145.259 130.341 144.613 130.517 144.036 130.868C143.466 131.213 143.015 131.683 142.684 132.28C142.359 132.87 142.197 133.529 142.197 134.259C142.203 134.981 142.366 135.637 142.684 136.227C143.009 136.817 143.45 137.285 144.006 137.629C144.57 137.974 145.213 138.146 145.935 138.146C146.472 138.146 146.973 138.044 147.437 137.838C147.901 137.633 148.305 137.348 148.65 136.983C149.001 136.612 149.273 136.191 149.465 135.72C149.664 135.25 149.76 134.752 149.754 134.229C149.754 133.533 149.588 132.89 149.256 132.3C148.932 131.71 148.484 131.236 147.914 130.878C147.351 130.52 146.704 130.341 145.975 130.341ZM164.579 148.388C162.942 148.388 161.536 147.973 160.363 147.145C159.196 146.31 158.298 145.107 157.668 143.536C157.045 141.958 156.734 140.059 156.734 137.838C156.74 135.617 157.055 133.728 157.678 132.17C158.308 130.606 159.206 129.413 160.373 128.591C161.546 127.769 162.948 127.358 164.579 127.358C166.21 127.358 167.612 127.769 168.785 128.591C169.958 129.413 170.856 130.606 171.479 132.17C172.109 133.735 172.424 135.624 172.424 137.838C172.424 140.065 172.109 141.968 171.479 143.545C170.856 145.116 169.958 146.316 168.785 147.145C167.618 147.973 166.216 148.388 164.579 148.388ZM164.579 145.276C165.852 145.276 166.856 144.649 167.592 143.396C168.334 142.137 168.705 140.284 168.705 137.838C168.705 136.221 168.536 134.862 168.198 133.761C167.86 132.661 167.383 131.832 166.766 131.276C166.15 130.712 165.421 130.43 164.579 130.43C163.313 130.43 162.312 131.06 161.576 132.32C160.84 133.572 160.469 135.412 160.462 137.838C160.456 139.462 160.618 140.828 160.95 141.935C161.288 143.042 161.765 143.877 162.381 144.44C162.998 144.997 163.73 145.276 164.579 145.276Z" fill="#12141D"/>
<path d="M76.6165 170.141V168.818H84.4964V170.141H81.3196V179H79.7884V170.141H76.6165ZM88.2276 179.154C87.5117 179.154 86.887 178.99 86.3533 178.662C85.8197 178.334 85.4054 177.875 85.1104 177.285C84.8155 176.695 84.668 176.005 84.668 175.217C84.668 174.424 84.8155 173.732 85.1104 173.138C85.4054 172.545 85.8197 172.085 86.3533 171.756C86.887 171.428 87.5117 171.264 88.2276 171.264C88.9435 171.264 89.5683 171.428 90.1019 171.756C90.6355 172.085 91.0498 172.545 91.3448 173.138C91.6398 173.732 91.7873 174.424 91.7873 175.217C91.7873 176.005 91.6398 176.695 91.3448 177.285C91.0498 177.875 90.6355 178.334 90.1019 178.662C89.5683 178.99 88.9435 179.154 88.2276 179.154ZM88.2326 177.906C88.6966 177.906 89.0811 177.784 89.386 177.538C89.6909 177.293 89.9163 176.967 90.0621 176.559C90.2113 176.151 90.2859 175.702 90.2859 175.212C90.2859 174.724 90.2113 174.277 90.0621 173.869C89.9163 173.458 89.6909 173.129 89.386 172.88C89.0811 172.631 88.6966 172.507 88.2326 172.507C87.7653 172.507 87.3775 172.631 87.0692 172.88C86.7643 173.129 86.5373 173.458 86.3881 173.869C86.2423 174.277 86.1694 174.724 86.1694 175.212C86.1694 175.702 86.2423 176.151 86.3881 176.559C86.5373 176.967 86.7643 177.293 87.0692 177.538C87.3775 177.784 87.7653 177.906 88.2326 177.906ZM95.6689 179.169C95.185 179.169 94.7475 179.08 94.3564 178.901C93.9653 178.718 93.6554 178.455 93.4267 178.11C93.2013 177.765 93.0886 177.343 93.0886 176.842C93.0886 176.411 93.1715 176.057 93.3372 175.778C93.5029 175.5 93.7266 175.28 94.0083 175.117C94.2901 174.955 94.6049 174.832 94.9529 174.749C95.301 174.666 95.6556 174.603 96.0169 174.56C96.4743 174.507 96.8455 174.464 97.1305 174.431C97.4155 174.395 97.6227 174.337 97.752 174.257C97.8812 174.178 97.9458 174.048 97.9458 173.869V173.835C97.9458 173.4 97.8232 173.064 97.5779 172.825C97.336 172.587 96.9747 172.467 96.4941 172.467C95.9937 172.467 95.5993 172.578 95.3109 172.8C95.0259 173.019 94.8287 173.263 94.7193 173.531L93.3223 173.213C93.488 172.749 93.7299 172.375 94.0481 172.089C94.3696 171.801 94.7392 171.592 95.1568 171.463C95.5744 171.33 96.0136 171.264 96.4743 171.264C96.7792 171.264 97.1023 171.301 97.4437 171.374C97.7884 171.443 98.1099 171.572 98.4082 171.761C98.7098 171.95 98.9567 172.22 99.149 172.572C99.3412 172.92 99.4373 173.372 99.4373 173.929V179H97.9856V177.956H97.926C97.8298 178.148 97.6857 178.337 97.4934 178.523C97.3012 178.708 97.0543 178.862 96.7527 178.985C96.4511 179.108 96.0898 179.169 95.6689 179.169ZM95.992 177.976C96.403 177.976 96.7543 177.895 97.046 177.732C97.341 177.57 97.5647 177.358 97.7172 177.096C97.8729 176.831 97.9508 176.547 97.9508 176.246V175.261C97.8978 175.314 97.795 175.364 97.6426 175.411C97.4934 175.454 97.3227 175.492 97.1305 175.525C96.9383 175.555 96.751 175.583 96.5687 175.609C96.3864 175.633 96.234 175.652 96.1113 175.669C95.823 175.705 95.5595 175.767 95.3208 175.853C95.0855 175.939 94.8966 176.063 94.7541 176.226C94.6149 176.385 94.5453 176.597 94.5453 176.862C94.5453 177.23 94.6812 177.509 94.9529 177.697C95.2247 177.883 95.5711 177.976 95.992 177.976ZM102.904 168.818V179H101.417V168.818H102.904ZM111.81 182.023C111.204 182.023 110.682 181.943 110.244 181.784C109.81 181.625 109.455 181.415 109.18 181.153C108.905 180.891 108.7 180.604 108.564 180.293L109.842 179.766C109.931 179.911 110.05 180.066 110.2 180.228C110.352 180.394 110.558 180.535 110.816 180.651C111.078 180.767 111.414 180.825 111.825 180.825C112.389 180.825 112.854 180.687 113.222 180.412C113.59 180.14 113.774 179.706 113.774 179.109V177.608H113.68C113.59 177.77 113.461 177.951 113.292 178.15C113.126 178.349 112.897 178.521 112.606 178.667C112.314 178.813 111.935 178.886 111.467 178.886C110.864 178.886 110.321 178.745 109.837 178.463C109.356 178.178 108.975 177.759 108.693 177.205C108.415 176.648 108.276 175.964 108.276 175.152C108.276 174.34 108.413 173.644 108.688 173.064C108.967 172.484 109.348 172.04 109.832 171.732C110.316 171.42 110.864 171.264 111.477 171.264C111.951 171.264 112.334 171.344 112.626 171.503C112.917 171.659 113.144 171.841 113.307 172.05C113.473 172.259 113.6 172.442 113.69 172.602H113.799V171.364H115.256V179.169C115.256 179.825 115.103 180.364 114.798 180.785C114.493 181.206 114.081 181.517 113.56 181.719C113.043 181.922 112.46 182.023 111.81 182.023ZM111.795 177.653C112.223 177.653 112.584 177.553 112.879 177.354C113.178 177.152 113.403 176.864 113.555 176.489C113.711 176.112 113.789 175.659 113.789 175.132C113.789 174.618 113.713 174.166 113.56 173.775C113.408 173.384 113.184 173.079 112.889 172.86C112.594 172.638 112.23 172.527 111.795 172.527C111.348 172.527 110.975 172.643 110.677 172.875C110.379 173.104 110.153 173.415 110.001 173.81C109.852 174.204 109.777 174.645 109.777 175.132C109.777 175.633 109.853 176.072 110.006 176.45C110.158 176.827 110.384 177.122 110.682 177.335C110.983 177.547 111.355 177.653 111.795 177.653ZM117.249 179V171.364H118.736V179H117.249ZM118 170.185C117.741 170.185 117.519 170.099 117.334 169.927C117.152 169.751 117.06 169.542 117.06 169.3C117.06 169.055 117.152 168.846 117.334 168.674C117.519 168.498 117.741 168.411 118 168.411C118.259 168.411 118.479 168.498 118.661 168.674C118.847 168.846 118.94 169.055 118.94 169.3C118.94 169.542 118.847 169.751 118.661 169.927C118.479 170.099 118.259 170.185 118 170.185ZM124.37 171.364V172.557H120.055V171.364H124.37ZM121.238 179V170.479C121.238 170.001 121.342 169.605 121.551 169.29C121.76 168.972 122.037 168.735 122.381 168.58C122.726 168.42 123.1 168.341 123.505 168.341C123.803 168.341 124.058 168.366 124.27 168.415C124.483 168.462 124.64 168.505 124.743 168.545L124.395 169.748C124.325 169.728 124.236 169.705 124.126 169.678C124.017 169.648 123.884 169.634 123.729 169.634C123.367 169.634 123.109 169.723 122.953 169.902C122.8 170.081 122.724 170.339 122.724 170.678V179H121.238ZM129.468 171.364V172.557H125.297V171.364H129.468ZM126.416 169.534H127.902V176.758C127.902 177.046 127.945 177.263 128.031 177.409C128.118 177.552 128.229 177.649 128.365 177.702C128.504 177.752 128.655 177.777 128.817 177.777C128.936 177.777 129.041 177.769 129.13 177.752C129.22 177.736 129.289 177.722 129.339 177.712L129.607 178.94C129.521 178.973 129.399 179.007 129.24 179.04C129.08 179.076 128.882 179.096 128.643 179.099C128.252 179.106 127.887 179.036 127.549 178.891C127.211 178.745 126.938 178.519 126.729 178.214C126.52 177.91 126.416 177.527 126.416 177.066V169.534ZM136.712 173.228L135.365 173.467C135.308 173.294 135.219 173.13 135.096 172.974C134.977 172.819 134.814 172.691 134.609 172.592C134.403 172.492 134.146 172.442 133.838 172.442C133.417 172.442 133.066 172.537 132.784 172.726C132.503 172.911 132.362 173.152 132.362 173.447C132.362 173.702 132.456 173.907 132.645 174.063C132.834 174.219 133.139 174.347 133.56 174.446L134.773 174.724C135.476 174.887 135.999 175.137 136.344 175.475C136.689 175.813 136.861 176.252 136.861 176.793C136.861 177.25 136.728 177.658 136.463 178.016C136.201 178.37 135.835 178.649 135.365 178.851C134.897 179.053 134.355 179.154 133.739 179.154C132.884 179.154 132.186 178.972 131.646 178.607C131.106 178.239 130.774 177.717 130.651 177.041L132.088 176.822C132.178 177.197 132.362 177.48 132.64 177.673C132.919 177.862 133.281 177.956 133.729 177.956C134.216 177.956 134.606 177.855 134.897 177.653C135.189 177.447 135.335 177.197 135.335 176.902C135.335 176.663 135.245 176.463 135.066 176.3C134.891 176.138 134.62 176.015 134.256 175.933L132.963 175.649C132.251 175.487 131.724 175.228 131.382 174.874C131.044 174.519 130.875 174.07 130.875 173.526C130.875 173.076 131.001 172.681 131.253 172.343C131.505 172.005 131.853 171.741 132.297 171.553C132.741 171.36 133.25 171.264 133.823 171.264C134.649 171.264 135.298 171.443 135.772 171.801C136.246 172.156 136.559 172.631 136.712 173.228ZM145.835 171.364V172.557H141.519V171.364H145.835ZM142.703 179V170.479C142.703 170.001 142.807 169.605 143.016 169.29C143.225 168.972 143.501 168.735 143.846 168.58C144.191 168.42 144.565 168.341 144.97 168.341C145.268 168.341 145.523 168.366 145.735 168.415C145.947 168.462 146.105 168.505 146.208 168.545L145.86 169.748C145.79 169.728 145.7 169.705 145.591 169.678C145.482 169.648 145.349 169.634 145.193 169.634C144.832 169.634 144.574 169.723 144.418 169.902C144.265 170.081 144.189 170.339 144.189 170.678V179H142.703ZM150.284 179.154C149.568 179.154 148.944 178.99 148.41 178.662C147.876 178.334 147.462 177.875 147.167 177.285C146.872 176.695 146.725 176.005 146.725 175.217C146.725 174.424 146.872 173.732 147.167 173.138C147.462 172.545 147.876 172.085 148.41 171.756C148.944 171.428 149.568 171.264 150.284 171.264C151 171.264 151.625 171.428 152.159 171.756C152.692 172.085 153.106 172.545 153.401 173.138C153.696 173.732 153.844 174.424 153.844 175.217C153.844 176.005 153.696 176.695 153.401 177.285C153.106 177.875 152.692 178.334 152.159 178.662C151.625 178.99 151 179.154 150.284 179.154ZM150.289 177.906C150.753 177.906 151.138 177.784 151.443 177.538C151.748 177.293 151.973 176.967 152.119 176.559C152.268 176.151 152.343 175.702 152.343 175.212C152.343 174.724 152.268 174.277 152.119 173.869C151.973 173.458 151.748 173.129 151.443 172.88C151.138 172.631 150.753 172.507 150.289 172.507C149.822 172.507 149.434 172.631 149.126 172.88C148.821 173.129 148.594 173.458 148.445 173.869C148.299 174.277 148.226 174.724 148.226 175.212C148.226 175.702 148.299 176.151 148.445 176.559C148.594 176.967 148.821 177.293 149.126 177.538C149.434 177.784 149.822 177.906 150.289 177.906ZM155.503 179V171.364H156.94V172.577H157.02C157.159 172.166 157.404 171.843 157.755 171.607C158.11 171.369 158.511 171.249 158.958 171.249C159.051 171.249 159.161 171.253 159.287 171.259C159.416 171.266 159.517 171.274 159.59 171.284V172.706C159.53 172.689 159.424 172.671 159.272 172.651C159.119 172.628 158.967 172.616 158.814 172.616C158.463 172.616 158.15 172.691 157.875 172.84C157.603 172.986 157.387 173.19 157.228 173.452C157.069 173.71 156.99 174.005 156.99 174.337V179H155.503ZM165.521 181.864C165.299 181.864 165.097 181.845 164.914 181.809C164.732 181.776 164.596 181.739 164.507 181.7L164.865 180.482C165.136 180.554 165.378 180.586 165.591 180.576C165.803 180.566 165.99 180.487 166.152 180.337C166.318 180.188 166.464 179.945 166.59 179.607L166.774 179.099L163.98 171.364H165.571L167.505 177.29H167.584L169.518 171.364H171.114L167.967 180.019C167.821 180.417 167.636 180.753 167.41 181.028C167.185 181.307 166.916 181.516 166.605 181.655C166.293 181.794 165.932 181.864 165.521 181.864ZM175.468 179.154C174.752 179.154 174.127 178.99 173.594 178.662C173.06 178.334 172.646 177.875 172.351 177.285C172.056 176.695 171.908 176.005 171.908 175.217C171.908 174.424 172.056 173.732 172.351 173.138C172.646 172.545 173.06 172.085 173.594 171.756C174.127 171.428 174.752 171.264 175.468 171.264C176.184 171.264 176.809 171.428 177.342 171.756C177.876 172.085 178.29 172.545 178.585 173.138C178.88 173.732 179.028 174.424 179.028 175.217C179.028 176.005 178.88 176.695 178.585 177.285C178.29 177.875 177.876 178.334 177.342 178.662C176.809 178.99 176.184 179.154 175.468 179.154ZM175.473 177.906C175.937 177.906 176.321 177.784 176.626 177.538C176.931 177.293 177.157 176.967 177.302 176.559C177.452 176.151 177.526 175.702 177.526 175.212C177.526 174.724 177.452 174.277 177.302 173.869C177.157 173.458 176.931 173.129 176.626 172.88C176.321 172.631 175.937 172.507 175.473 172.507C175.006 172.507 174.618 172.631 174.309 172.88C174.005 173.129 173.778 173.458 173.628 173.869C173.483 174.277 173.41 174.724 173.41 175.212C173.41 175.702 173.483 176.151 173.628 176.559C173.778 176.967 174.005 177.293 174.309 177.538C174.618 177.784 175.006 177.906 175.473 177.906ZM185.524 175.833V171.364H187.016V179H185.554V177.678H185.474C185.299 178.085 185.017 178.425 184.629 178.697C184.245 178.965 183.766 179.099 183.192 179.099C182.702 179.099 182.268 178.992 181.89 178.776C181.515 178.558 181.22 178.234 181.005 177.807C180.793 177.379 180.687 176.851 180.687 176.221V171.364H182.173V176.042C182.173 176.562 182.317 176.977 182.606 177.285C182.894 177.593 183.269 177.747 183.729 177.747C184.008 177.747 184.285 177.678 184.56 177.538C184.838 177.399 185.068 177.189 185.251 176.907C185.436 176.625 185.527 176.267 185.524 175.833Z" fill="black" fill-opacity="0.25"/>
</g>
<defs>
<filter id="filter0_d_416_1739" x="0" y="0" width="319" height="263" filterUnits="userSpaceOnUse" color-interpolation-filters="sRGB">
<feFlood flood-opacity="0" result="BackgroundImageFix"/>
<feColorMatrix in="SourceAlpha" type="matrix" values="0 0 0 0 0 0 0 0 0 0 0 0 0 0 0 0 0 0 127 0" result="hardAlpha"/>
<feOffset dy="4"/>
<feGaussianBlur stdDeviation="30"/>
<feComposite in2="hardAlpha" operator="out"/>
<feColorMatrix type="matrix" values="0 0 0 0 0 0 0 0 0 0 0 0 0 0 0 0 0 0 0.08 0"/>
<feBlend mode="normal" in2="BackgroundImageFix" result="effect1_dropShadow_416_1739"/>
<feBlend mode="normal" in="SourceGraphic" in2="effect1_dropShadow_416_1739" result="shape"/>
</filter>
</defs>
</svg>
