<svg width="319" height="263" viewBox="0 0 319 263" fill="none" xmlns="http://www.w3.org/2000/svg">
<g filter="url(#filter0_d_416_1738)">
<rect x="60" y="56" width="199" height="143" rx="8" fill="white" shape-rendering="crispEdges"/>
<rect x="76" y="72" width="38" height="38" rx="8" fill="#FFF8E8"/>
<circle cx="95" cy="91" r="9" stroke="#FFC947" stroke-width="1.8"/>
<path d="M93.459 88.9401C93.459 88.346 93.916 87.9739 94.5362 87.9021V89.9978C94.471 89.9847 94.4122 89.9651 94.3534 89.9456C93.7593 89.7497 93.459 89.4102 93.459 88.9401ZM96.7233 93.014C96.7233 93.6538 96.2337 94.0782 95.5417 94.1369V91.8846C95.5874 91.8976 95.6331 91.9107 95.6722 91.9172C96.4034 92.1196 96.7233 92.4787 96.7233 93.014ZM95.5547 96.3763L95.5482 95.5471C97.337 95.3774 98.473 94.3915 98.473 92.8377C98.473 91.2578 97.4088 90.5919 96.0966 90.3112L95.5417 90.1936V87.9152C96.2337 88.0261 96.6189 88.5484 96.6385 89.0707H98.3098C98.2837 87.7128 97.2195 86.6812 95.5678 86.505V85.6562H94.5101V86.4984C92.9302 86.6421 91.6898 87.5104 91.6898 89.0772C91.6898 90.5592 92.7605 91.3166 93.9748 91.5842L94.5362 91.7083V94.1369C93.7006 94.0259 93.2632 93.5232 93.2305 92.9226H91.52C91.5331 94.1304 92.3426 95.4035 94.5036 95.5602L94.4971 96.3763H95.5547Z" fill="#FFC947"/>
<path d="M129.422 94.0341V88.2727H130.568V94.0341H129.422ZM127.116 91.7244V90.5824H132.878V91.7244H127.116ZM134.648 93.7955V92.7301L138.42 86.7727H139.259V88.3409H138.727L136.029 92.6108V92.679H141.198V93.7955H134.648ZM138.786 95.5V93.4716L138.795 92.9858V86.7727H140.043V95.5H138.786ZM145.632 95.6193C145.021 95.6193 144.482 95.5142 144.013 95.304C143.547 95.0937 143.182 94.804 142.918 94.4347C142.653 94.0653 142.523 93.6449 142.526 93.1733C142.523 92.804 142.598 92.4645 142.751 92.1548C142.908 91.8423 143.119 91.5824 143.386 91.375C143.653 91.1648 143.952 91.0312 144.281 90.9744V90.9233C143.847 90.8182 143.499 90.5852 143.237 90.2244C142.976 89.8636 142.847 89.4489 142.849 88.9801C142.847 88.5341 142.964 88.1364 143.203 87.7869C143.445 87.4347 143.776 87.1577 144.196 86.956C144.616 86.7543 145.095 86.6534 145.632 86.6534C146.163 86.6534 146.638 86.7557 147.055 86.9602C147.476 87.1619 147.807 87.4389 148.048 87.7912C148.29 88.1406 148.412 88.5369 148.415 88.9801C148.412 89.4489 148.278 89.8636 148.014 90.2244C147.75 90.5852 147.406 90.8182 146.983 90.9233V90.9744C147.31 91.0312 147.604 91.1648 147.865 91.375C148.129 91.5824 148.339 91.8423 148.496 92.1548C148.655 92.4645 148.736 92.804 148.739 93.1733C148.736 93.6449 148.602 94.0653 148.338 94.4347C148.074 94.804 147.707 95.0937 147.239 95.304C146.773 95.5142 146.237 95.6193 145.632 95.6193ZM145.632 94.5412C145.993 94.5412 146.305 94.4815 146.57 94.3622C146.834 94.2401 147.038 94.071 147.183 93.8551C147.328 93.6364 147.402 93.3807 147.405 93.0881C147.402 92.7841 147.322 92.5156 147.166 92.2827C147.013 92.0497 146.804 91.8665 146.54 91.733C146.276 91.5994 145.973 91.5327 145.632 91.5327C145.288 91.5327 144.983 91.5994 144.716 91.733C144.449 91.8665 144.239 92.0497 144.085 92.2827C143.932 92.5156 143.857 92.7841 143.859 93.0881C143.857 93.3807 143.926 93.6364 144.068 93.8551C144.213 94.071 144.419 94.2401 144.686 94.3622C144.953 94.4815 145.268 94.5412 145.632 94.5412ZM145.632 90.4801C145.922 90.4801 146.179 90.4219 146.403 90.3054C146.628 90.1889 146.804 90.027 146.932 89.8196C147.063 89.6122 147.129 89.3693 147.132 89.0909C147.129 88.8182 147.064 88.5795 146.936 88.375C146.811 88.1705 146.636 88.0128 146.412 87.902C146.188 87.7884 145.928 87.7315 145.632 87.7315C145.331 87.7315 145.067 87.7884 144.839 87.902C144.615 88.0128 144.44 88.1705 144.315 88.375C144.19 88.5795 144.129 88.8182 144.132 89.0909C144.129 89.3693 144.192 89.6122 144.32 89.8196C144.447 90.027 144.624 90.1889 144.848 90.3054C145.075 90.4219 145.337 90.4801 145.632 90.4801ZM150.864 95.581C150.631 95.581 150.431 95.4986 150.263 95.3338C150.096 95.1662 150.012 94.9645 150.012 94.7287C150.012 94.4957 150.096 94.2969 150.263 94.1321C150.431 93.9645 150.631 93.8807 150.864 93.8807C151.097 93.8807 151.297 93.9645 151.465 94.1321C151.632 94.2969 151.716 94.4957 151.716 94.7287C151.716 94.8849 151.676 95.0284 151.597 95.1591C151.52 95.2869 151.418 95.3892 151.29 95.4659C151.162 95.5426 151.02 95.581 150.864 95.581ZM156.146 95.6193C155.612 95.6193 155.132 95.517 154.706 95.3125C154.282 95.1051 153.944 94.821 153.691 94.4602C153.439 94.0994 153.304 93.6875 153.287 93.2244H154.565C154.596 93.5994 154.762 93.9077 155.064 94.1491C155.365 94.3906 155.725 94.5114 156.146 94.5114C156.481 94.5114 156.778 94.4347 157.037 94.2812C157.298 94.125 157.502 93.9105 157.65 93.6378C157.801 93.3651 157.876 93.054 157.876 92.7045C157.876 92.3494 157.799 92.0327 157.646 91.7543C157.493 91.4759 157.281 91.2571 157.011 91.098C156.744 90.9389 156.437 90.858 156.091 90.8551C155.826 90.8551 155.561 90.9006 155.294 90.9915C155.027 91.0824 154.811 91.2017 154.646 91.3494L153.44 91.1705L153.93 86.7727H158.728V87.902H155.025L154.748 90.3438H154.799C154.97 90.179 155.196 90.0412 155.477 89.9304C155.761 89.8196 156.065 89.7642 156.389 89.7642C156.92 89.7642 157.393 89.8906 157.808 90.1435C158.225 90.3963 158.554 90.7415 158.792 91.179C159.034 91.6136 159.153 92.1136 159.15 92.679C159.153 93.2443 159.025 93.7486 158.767 94.1918C158.511 94.6349 158.156 94.9844 157.701 95.2401C157.25 95.4929 156.731 95.6193 156.146 95.6193ZM163.745 95.6449C163.072 95.642 162.496 95.4645 162.019 95.1122C161.542 94.7599 161.177 94.2472 160.924 93.5739C160.671 92.9006 160.545 92.0895 160.545 91.1406C160.545 90.1946 160.671 89.3864 160.924 88.7159C161.18 88.0455 161.546 87.5341 162.023 87.1818C162.504 86.8295 163.077 86.6534 163.745 86.6534C164.413 86.6534 164.985 86.831 165.462 87.1861C165.94 87.5384 166.305 88.0497 166.558 88.7202C166.813 89.3878 166.941 90.1946 166.941 91.1406C166.941 92.0923 166.815 92.9048 166.562 93.5781C166.309 94.2486 165.944 94.7614 165.467 95.1165C164.989 95.4688 164.415 95.6449 163.745 95.6449ZM163.745 94.5071C164.336 94.5071 164.798 94.2188 165.13 93.642C165.465 93.0653 165.633 92.2315 165.633 91.1406C165.633 90.4162 165.556 89.804 165.403 89.304C165.252 88.8011 165.035 88.4205 164.751 88.1619C164.469 87.9006 164.134 87.7699 163.745 87.7699C163.157 87.7699 162.695 88.0597 162.36 88.6392C162.025 89.2187 161.856 90.0526 161.853 91.1406C161.853 91.8679 161.928 92.483 162.079 92.9858C162.232 93.4858 162.45 93.8651 162.731 94.1236C163.012 94.3793 163.35 94.5071 163.745 94.5071ZM173.008 93.8636V93.4034C173.008 93.0739 173.076 92.7727 173.213 92.5C173.352 92.2244 173.554 92.0043 173.818 91.8395C174.085 91.6719 174.407 91.5881 174.785 91.5881C175.172 91.5881 175.495 91.6705 175.757 91.8352C176.018 92 176.216 92.2202 176.349 92.4957C176.485 92.7713 176.554 93.0739 176.554 93.4034V93.8636C176.554 94.1932 176.485 94.4957 176.349 94.7713C176.213 95.044 176.012 95.2642 175.748 95.4318C175.487 95.5966 175.166 95.679 174.785 95.679C174.402 95.679 174.078 95.5966 173.814 95.4318C173.549 95.2642 173.349 95.044 173.213 94.7713C173.076 94.4957 173.008 94.1932 173.008 93.8636ZM174.001 93.4034V93.8636C174.001 94.108 174.059 94.3295 174.176 94.5284C174.292 94.7273 174.495 94.8267 174.785 94.8267C175.072 94.8267 175.272 94.7273 175.386 94.5284C175.5 94.3295 175.556 94.108 175.556 93.8636V93.4034C175.556 93.1591 175.501 92.9375 175.39 92.7386C175.282 92.5398 175.081 92.4403 174.785 92.4403C174.501 92.4403 174.299 92.5398 174.18 92.7386C174.061 92.9375 174.001 93.1591 174.001 93.4034ZM168.619 88.8693V88.4091C168.619 88.0795 168.687 87.777 168.824 87.5014C168.963 87.2259 169.164 87.0057 169.429 86.8409C169.696 86.6761 170.018 86.5938 170.396 86.5938C170.782 86.5938 171.106 86.6761 171.368 86.8409C171.629 87.0057 171.826 87.2259 171.96 87.5014C172.093 87.777 172.16 88.0795 172.16 88.4091V88.8693C172.16 89.1989 172.092 89.5014 171.956 89.777C171.822 90.0497 171.623 90.2699 171.359 90.4375C171.098 90.6023 170.777 90.6847 170.396 90.6847C170.01 90.6847 169.684 90.6023 169.42 90.4375C169.159 90.2699 168.96 90.0497 168.824 89.777C168.687 89.5014 168.619 89.1989 168.619 88.8693ZM169.616 88.4091V88.8693C169.616 89.1136 169.673 89.3352 169.787 89.5341C169.903 89.733 170.106 89.8324 170.396 89.8324C170.68 89.8324 170.879 89.733 170.993 89.5341C171.109 89.3352 171.167 89.1136 171.167 88.8693V88.4091C171.167 88.1648 171.112 87.9432 171.001 87.7443C170.89 87.5455 170.689 87.446 170.396 87.446C170.112 87.446 169.91 87.5455 169.791 87.7443C169.674 87.9432 169.616 88.1648 169.616 88.4091ZM169.024 95.5L175.024 86.7727H176.042L170.042 95.5H169.024Z" fill="#50D1AA"/>
<rect x="184" y="82" width="18" height="18" rx="9" fill="#88E091" fill-opacity="0.24"/>
<path d="M193 96.25C192.755 96.25 192.552 96.0704 192.52 95.8375L192.516 95.7727L192.516 87.3828L189.453 90.4139C189.264 90.6007 188.957 90.6013 188.768 90.4154C188.595 90.2463 188.579 89.9812 188.719 89.794L188.766 89.7404L192.656 85.8904L192.667 85.881C192.677 85.8712 192.688 85.8619 192.699 85.853L192.656 85.8904C192.675 85.8718 192.695 85.8551 192.716 85.8403C192.729 85.8313 192.743 85.8225 192.757 85.8145C192.788 85.7963 192.821 85.7822 192.854 85.7718C192.866 85.7683 192.878 85.765 192.89 85.7622C192.9 85.76 192.909 85.7581 192.919 85.7565C192.929 85.7549 192.94 85.7535 192.95 85.7525C192.961 85.7513 192.971 85.7506 192.982 85.7502C192.988 85.7501 192.994 85.75 193 85.75L193.016 85.7501C193.028 85.7505 193.04 85.7514 193.052 85.7526L193 85.75C193.028 85.75 193.055 85.7523 193.081 85.7567C193.093 85.7586 193.105 85.7611 193.117 85.7641C193.127 85.7664 193.136 85.769 193.145 85.7719C193.156 85.7752 193.167 85.7791 193.178 85.7834C193.19 85.7878 193.201 85.7926 193.211 85.7977C193.22 85.8017 193.228 85.806 193.237 85.8107C193.252 85.8195 193.267 85.8288 193.281 85.8388C193.284 85.8404 193.286 85.8421 193.288 85.8439C193.31 85.8598 193.329 85.8763 193.347 85.8942L197.234 89.7404C197.423 89.9271 197.422 90.2293 197.232 90.4153C197.06 90.5844 196.791 90.5993 196.602 90.4603L196.547 90.4139L193.485 87.3833L193.484 95.7727C193.484 96.0363 193.267 96.25 193 96.25Z" fill="#50D1AA"/>
<path d="M84.3722 150.545V125.091H86.0028V150.545H84.3722ZM89.0753 133.234C88.9825 132.366 88.5914 131.69 87.902 131.206C87.2192 130.722 86.331 130.48 85.2372 130.48C84.4683 130.48 83.8087 130.596 83.2585 130.828C82.7083 131.06 82.2874 131.375 81.9957 131.773C81.7041 132.17 81.5549 132.625 81.5483 133.135C81.5483 133.559 81.6444 133.927 81.8366 134.239C82.0355 134.55 82.304 134.815 82.642 135.034C82.9801 135.246 83.3546 135.425 83.7656 135.571C84.1766 135.717 84.5909 135.839 85.0085 135.939L86.9176 136.416C87.6866 136.595 88.4257 136.837 89.1349 137.142C89.8509 137.447 90.4905 137.831 91.054 138.295C91.6241 138.759 92.0748 139.32 92.4062 139.976C92.7377 140.632 92.9034 141.401 92.9034 142.283C92.9034 143.476 92.5985 144.527 91.9886 145.435C91.3788 146.336 90.4972 147.042 89.3438 147.553C88.197 148.056 86.8082 148.308 85.1776 148.308C83.5933 148.308 82.2178 148.063 81.0511 147.572C79.8911 147.082 78.983 146.366 78.3267 145.425C77.6771 144.483 77.3258 143.337 77.2727 141.984H80.902C80.955 142.694 81.1738 143.284 81.5582 143.754C81.9427 144.225 82.4432 144.576 83.0597 144.808C83.6828 145.04 84.3788 145.156 85.1477 145.156C85.9498 145.156 86.6525 145.037 87.2557 144.798C87.8655 144.553 88.3428 144.215 88.6875 143.784C89.0322 143.347 89.2079 142.836 89.2145 142.253C89.2079 141.723 89.0521 141.285 88.7472 140.94C88.4422 140.589 88.0147 140.297 87.4645 140.065C86.9209 139.827 86.2846 139.615 85.5554 139.429L83.2386 138.832C81.5616 138.402 80.2358 137.749 79.2614 136.874C78.2936 135.992 77.8097 134.822 77.8097 133.364C77.8097 132.164 78.1345 131.113 78.7841 130.212C79.4403 129.31 80.3319 128.611 81.4588 128.114C82.5857 127.61 83.8617 127.358 85.2869 127.358C86.732 127.358 87.9981 127.61 89.0852 128.114C90.179 128.611 91.0374 129.304 91.6605 130.192C92.2836 131.073 92.6051 132.088 92.625 133.234H89.0753ZM103.301 148.278C101.87 148.278 100.597 148.033 99.4833 147.543C98.3763 147.052 97.5013 146.369 96.8583 145.494C96.2153 144.619 95.8739 143.608 95.8342 142.462H99.5728C99.6059 143.012 99.7882 143.492 100.12 143.903C100.451 144.308 100.892 144.623 101.442 144.848C101.992 145.073 102.609 145.186 103.292 145.186C104.021 145.186 104.667 145.06 105.23 144.808C105.794 144.55 106.235 144.192 106.553 143.734C106.871 143.277 107.027 142.75 107.02 142.153C107.027 141.537 106.868 140.993 106.543 140.523C106.218 140.052 105.748 139.684 105.131 139.419C104.521 139.154 103.785 139.021 102.924 139.021H101.124V136.178H102.924C103.633 136.178 104.253 136.055 104.783 135.81C105.32 135.564 105.741 135.22 106.046 134.776C106.351 134.325 106.5 133.804 106.493 133.214C106.5 132.638 106.371 132.137 106.105 131.713C105.847 131.282 105.479 130.947 105.002 130.709C104.531 130.47 103.978 130.351 103.341 130.351C102.718 130.351 102.141 130.464 101.611 130.689C101.081 130.914 100.653 131.236 100.328 131.653C100.004 132.064 99.8313 132.555 99.8114 133.125H96.2617C96.2882 131.985 96.6164 130.984 97.2461 130.122C97.8825 129.254 98.7309 128.578 99.7915 128.094C100.852 127.603 102.042 127.358 103.361 127.358C104.72 127.358 105.9 127.613 106.901 128.124C107.908 128.627 108.687 129.307 109.238 130.162C109.788 131.017 110.063 131.962 110.063 132.996C110.069 134.143 109.731 135.104 109.049 135.879C108.373 136.655 107.484 137.162 106.384 137.401V137.56C107.816 137.759 108.913 138.289 109.675 139.151C110.444 140.006 110.825 141.07 110.819 142.342C110.819 143.482 110.494 144.503 109.844 145.405C109.201 146.3 108.313 147.002 107.179 147.513C106.052 148.023 104.76 148.278 103.301 148.278ZM121.689 148.278C120.714 148.272 119.763 148.103 118.835 147.771C117.907 147.433 117.072 146.886 116.33 146.131C115.587 145.368 114.997 144.357 114.56 143.098C114.122 141.832 113.907 140.264 113.913 138.395C113.913 136.652 114.099 135.097 114.47 133.732C114.841 132.366 115.375 131.213 116.071 130.271C116.767 129.323 117.606 128.601 118.587 128.104C119.574 127.607 120.678 127.358 121.898 127.358C123.177 127.358 124.311 127.61 125.298 128.114C126.293 128.617 127.095 129.307 127.705 130.182C128.314 131.05 128.692 132.031 128.838 133.125H125.209C125.023 132.343 124.642 131.72 124.065 131.256C123.495 130.785 122.773 130.55 121.898 130.55C120.486 130.55 119.399 131.163 118.636 132.389C117.881 133.616 117.5 135.299 117.493 137.44H117.632C117.957 136.857 118.378 136.357 118.895 135.939C119.412 135.521 119.995 135.2 120.645 134.974C121.301 134.742 121.994 134.626 122.723 134.626C123.916 134.626 124.987 134.911 125.935 135.482C126.889 136.052 127.645 136.837 128.202 137.838C128.759 138.832 129.034 139.973 129.027 141.259C129.034 142.598 128.729 143.801 128.112 144.868C127.496 145.929 126.637 146.764 125.537 147.374C124.437 147.983 123.154 148.285 121.689 148.278ZM121.669 145.295C122.392 145.295 123.038 145.12 123.608 144.768C124.178 144.417 124.629 143.943 124.96 143.347C125.292 142.75 125.454 142.08 125.447 141.338C125.454 140.609 125.295 139.949 124.97 139.359C124.652 138.769 124.211 138.302 123.648 137.957C123.084 137.613 122.441 137.44 121.719 137.44C121.182 137.44 120.681 137.543 120.217 137.749C119.753 137.954 119.349 138.239 119.004 138.604C118.66 138.962 118.388 139.379 118.189 139.857C117.997 140.327 117.897 140.831 117.891 141.368C117.897 142.077 118.063 142.73 118.388 143.327C118.713 143.923 119.16 144.401 119.73 144.759C120.3 145.116 120.946 145.295 121.669 145.295ZM135.778 145.216L135.649 146.31C135.556 147.145 135.391 147.993 135.152 148.855C134.92 149.723 134.675 150.522 134.416 151.251C134.158 151.981 133.949 152.554 133.79 152.972H131.364C131.456 152.567 131.582 152.017 131.741 151.321C131.907 150.625 132.066 149.843 132.219 148.974C132.371 148.106 132.474 147.224 132.527 146.33L132.597 145.216H135.778ZM146.244 148.278C144.765 148.278 143.453 148.03 142.306 147.533C141.166 147.036 140.271 146.356 139.621 145.494C138.978 144.626 138.66 143.642 138.667 142.541C138.66 141.686 138.846 140.901 139.224 140.185C139.602 139.469 140.112 138.872 140.755 138.395C141.405 137.911 142.127 137.603 142.923 137.47V137.331C141.875 137.099 141.027 136.565 140.377 135.73C139.734 134.888 139.416 133.917 139.423 132.817C139.416 131.769 139.708 130.835 140.298 130.013C140.888 129.191 141.696 128.545 142.724 128.074C143.751 127.597 144.924 127.358 146.244 127.358C147.549 127.358 148.713 127.597 149.734 128.074C150.761 128.545 151.57 129.191 152.16 130.013C152.756 130.835 153.055 131.769 153.055 132.817C153.055 133.917 152.727 134.888 152.07 135.73C151.421 136.565 150.582 137.099 149.555 137.331V137.47C150.35 137.603 151.066 137.911 151.702 138.395C152.345 138.872 152.856 139.469 153.234 140.185C153.618 140.901 153.81 141.686 153.81 142.541C153.81 143.642 153.486 144.626 152.836 145.494C152.186 146.356 151.291 147.036 150.151 147.533C149.018 148.03 147.715 148.278 146.244 148.278ZM146.244 145.435C147.006 145.435 147.669 145.305 148.232 145.047C148.796 144.782 149.233 144.411 149.545 143.933C149.856 143.456 150.015 142.906 150.022 142.283C150.015 141.633 149.846 141.06 149.515 140.562C149.19 140.059 148.743 139.664 148.173 139.379C147.609 139.094 146.966 138.952 146.244 138.952C145.514 138.952 144.865 139.094 144.295 139.379C143.725 139.664 143.274 140.059 142.942 140.562C142.618 141.06 142.459 141.633 142.465 142.283C142.459 142.906 142.611 143.456 142.923 143.933C143.234 144.404 143.672 144.772 144.235 145.037C144.805 145.302 145.475 145.435 146.244 145.435ZM146.244 136.158C146.867 136.158 147.417 136.032 147.894 135.78C148.378 135.528 148.759 135.177 149.038 134.726C149.316 134.275 149.459 133.755 149.465 133.165C149.459 132.581 149.319 132.071 149.048 131.634C148.776 131.189 148.398 130.848 147.914 130.609C147.43 130.364 146.873 130.241 146.244 130.241C145.601 130.241 145.034 130.364 144.543 130.609C144.059 130.848 143.682 131.189 143.41 131.634C143.145 132.071 143.015 132.581 143.022 133.165C143.015 133.755 143.148 134.275 143.42 134.726C143.698 135.17 144.079 135.521 144.563 135.78C145.054 136.032 145.614 136.158 146.244 136.158ZM156.711 144.222V141.288L165.352 127.636H167.798V131.812H166.306L160.49 141.03V141.189H172.551V144.222H156.711ZM166.426 148V143.327L166.466 142.014V127.636H169.946V148H166.426ZM182.807 148.278C181.481 148.278 180.295 148.03 179.248 147.533C178.2 147.029 177.368 146.339 176.752 145.464C176.142 144.589 175.817 143.589 175.777 142.462H179.357C179.423 143.297 179.784 143.98 180.441 144.51C181.097 145.034 181.886 145.295 182.807 145.295C183.53 145.295 184.173 145.13 184.736 144.798C185.3 144.467 185.744 144.006 186.069 143.416C186.393 142.826 186.552 142.153 186.546 141.398C186.552 140.629 186.39 139.946 186.059 139.349C185.727 138.753 185.273 138.286 184.696 137.947C184.12 137.603 183.457 137.43 182.708 137.43C182.098 137.424 181.498 137.536 180.908 137.768C180.318 138 179.851 138.305 179.506 138.683L176.175 138.136L177.239 127.636H189.051V130.719H180.292L179.705 136.118H179.824C180.202 135.674 180.736 135.306 181.425 135.014C182.114 134.716 182.87 134.567 183.692 134.567C184.925 134.567 186.025 134.858 186.993 135.442C187.961 136.018 188.723 136.814 189.28 137.828C189.837 138.842 190.115 140.002 190.115 141.308C190.115 142.654 189.804 143.854 189.181 144.908C188.564 145.955 187.706 146.78 186.605 147.384C185.512 147.98 184.246 148.278 182.807 148.278ZM195.02 148.219C194.417 148.219 193.9 148.007 193.469 147.582C193.038 147.158 192.826 146.641 192.832 146.031C192.826 145.435 193.038 144.924 193.469 144.5C193.9 144.076 194.417 143.864 195.02 143.864C195.603 143.864 196.11 144.076 196.541 144.5C196.979 144.924 197.201 145.435 197.207 146.031C197.201 146.436 197.095 146.804 196.889 147.135C196.69 147.466 196.425 147.732 196.094 147.93C195.769 148.123 195.411 148.219 195.02 148.219ZM207.618 148.388C205.981 148.388 204.575 147.973 203.402 147.145C202.235 146.31 201.337 145.107 200.707 143.536C200.084 141.958 199.773 140.059 199.773 137.838C199.779 135.617 200.094 133.728 200.717 132.17C201.347 130.606 202.245 129.413 203.412 128.591C204.585 127.769 205.987 127.358 207.618 127.358C209.249 127.358 210.651 127.769 211.824 128.591C212.997 129.413 213.895 130.606 214.518 132.17C215.148 133.735 215.463 135.624 215.463 137.838C215.463 140.065 215.148 141.968 214.518 143.545C213.895 145.116 212.997 146.316 211.824 147.145C210.657 147.973 209.255 148.388 207.618 148.388ZM207.618 145.276C208.891 145.276 209.895 144.649 210.631 143.396C211.373 142.137 211.744 140.284 211.744 137.838C211.744 136.221 211.575 134.862 211.237 133.761C210.899 132.661 210.422 131.832 209.805 131.276C209.189 130.712 208.46 130.43 207.618 130.43C206.352 130.43 205.351 131.06 204.615 132.32C203.879 133.572 203.508 135.412 203.501 137.838C203.495 139.462 203.657 140.828 203.989 141.935C204.327 143.042 204.804 143.877 205.42 144.44C206.037 144.997 206.769 145.276 207.618 145.276ZM226.294 148.388C224.656 148.388 223.251 147.973 222.078 147.145C220.911 146.31 220.013 145.107 219.383 143.536C218.76 141.958 218.449 140.059 218.449 137.838C218.455 135.617 218.77 133.728 219.393 132.17C220.023 130.606 220.921 129.413 222.088 128.591C223.261 127.769 224.663 127.358 226.294 127.358C227.924 127.358 229.326 127.769 230.5 128.591C231.673 129.413 232.571 130.606 233.194 132.17C233.824 133.735 234.139 135.624 234.139 137.838C234.139 140.065 233.824 141.968 233.194 143.545C232.571 145.116 231.673 146.316 230.5 147.145C229.333 147.973 227.931 148.388 226.294 148.388ZM226.294 145.276C227.566 145.276 228.571 144.649 229.306 143.396C230.049 142.137 230.42 140.284 230.42 137.838C230.42 136.221 230.251 134.862 229.913 133.761C229.575 132.661 229.098 131.832 228.481 131.276C227.865 130.712 227.136 130.43 226.294 130.43C225.028 130.43 224.027 131.06 223.291 132.32C222.555 133.572 222.184 135.412 222.177 137.838C222.171 139.462 222.333 140.828 222.664 141.935C223.002 143.042 223.48 143.877 224.096 144.44C224.713 144.997 225.445 145.276 226.294 145.276Z" fill="#12141D"/>
<path d="M76.6165 170.141V168.818H84.4964V170.141H81.3196V179H79.7884V170.141H76.6165ZM88.2276 179.154C87.5117 179.154 86.887 178.99 86.3533 178.662C85.8197 178.334 85.4054 177.875 85.1104 177.285C84.8155 176.695 84.668 176.005 84.668 175.217C84.668 174.424 84.8155 173.732 85.1104 173.138C85.4054 172.545 85.8197 172.085 86.3533 171.756C86.887 171.428 87.5117 171.264 88.2276 171.264C88.9435 171.264 89.5683 171.428 90.1019 171.756C90.6355 172.085 91.0498 172.545 91.3448 173.138C91.6398 173.732 91.7873 174.424 91.7873 175.217C91.7873 176.005 91.6398 176.695 91.3448 177.285C91.0498 177.875 90.6355 178.334 90.1019 178.662C89.5683 178.99 88.9435 179.154 88.2276 179.154ZM88.2326 177.906C88.6966 177.906 89.0811 177.784 89.386 177.538C89.6909 177.293 89.9163 176.967 90.0621 176.559C90.2113 176.151 90.2859 175.702 90.2859 175.212C90.2859 174.724 90.2113 174.277 90.0621 173.869C89.9163 173.458 89.6909 173.129 89.386 172.88C89.0811 172.631 88.6966 172.507 88.2326 172.507C87.7653 172.507 87.3775 172.631 87.0692 172.88C86.7643 173.129 86.5373 173.458 86.3881 173.869C86.2423 174.277 86.1694 174.724 86.1694 175.212C86.1694 175.702 86.2423 176.151 86.3881 176.559C86.5373 176.967 86.7643 177.293 87.0692 177.538C87.3775 177.784 87.7653 177.906 88.2326 177.906ZM97.0112 171.364V172.557H92.84V171.364H97.0112ZM93.9586 169.534H95.4451V176.758C95.4451 177.046 95.4882 177.263 95.5744 177.409C95.6606 177.552 95.7716 177.649 95.9075 177.702C96.0467 177.752 96.1975 177.777 96.3599 177.777C96.4792 177.777 96.5836 177.769 96.6731 177.752C96.7626 177.736 96.8322 177.722 96.8819 177.712L97.1504 178.94C97.0642 178.973 96.9416 179.007 96.7825 179.04C96.6234 179.076 96.4245 179.096 96.1859 179.099C95.7948 179.106 95.4302 179.036 95.0922 178.891C94.7541 178.745 94.4806 178.519 94.2718 178.214C94.063 177.91 93.9586 177.527 93.9586 177.066V169.534ZM100.878 179.169C100.394 179.169 99.9564 179.08 99.5653 178.901C99.1742 178.718 98.8643 178.455 98.6357 178.11C98.4103 177.765 98.2976 177.343 98.2976 176.842C98.2976 176.411 98.3804 176.057 98.5462 175.778C98.7119 175.5 98.9356 175.28 99.2173 175.117C99.4991 174.955 99.8139 174.832 100.162 174.749C100.51 174.666 100.865 174.603 101.226 174.56C101.683 174.507 102.054 174.464 102.339 174.431C102.625 174.395 102.832 174.337 102.961 174.257C103.09 174.178 103.155 174.048 103.155 173.869V173.835C103.155 173.4 103.032 173.064 102.787 172.825C102.545 172.587 102.184 172.467 101.703 172.467C101.203 172.467 100.808 172.578 100.52 172.8C100.235 173.019 100.038 173.263 99.9283 173.531L98.5312 173.213C98.697 172.749 98.9389 172.375 99.2571 172.089C99.5786 171.801 99.9482 171.592 100.366 171.463C100.783 171.33 101.223 171.264 101.683 171.264C101.988 171.264 102.311 171.301 102.653 171.374C102.997 171.443 103.319 171.572 103.617 171.761C103.919 171.95 104.166 172.22 104.358 172.572C104.55 172.92 104.646 173.372 104.646 173.929V179H103.195V177.956H103.135C103.039 178.148 102.895 178.337 102.702 178.523C102.51 178.708 102.263 178.862 101.962 178.985C101.66 179.108 101.299 179.169 100.878 179.169ZM101.201 177.976C101.612 177.976 101.963 177.895 102.255 177.732C102.55 177.57 102.774 177.358 102.926 177.096C103.082 176.831 103.16 176.547 103.16 176.246V175.261C103.107 175.314 103.004 175.364 102.852 175.411C102.702 175.454 102.532 175.492 102.339 175.525C102.147 175.555 101.96 175.583 101.778 175.609C101.595 175.633 101.443 175.652 101.32 175.669C101.032 175.705 100.768 175.767 100.53 175.853C100.295 175.939 100.106 176.063 99.9631 176.226C99.8239 176.385 99.7543 176.597 99.7543 176.862C99.7543 177.23 99.8902 177.509 100.162 177.697C100.434 177.883 100.78 177.976 101.201 177.976ZM108.113 168.818V179H106.626V168.818H108.113ZM114.797 179H113.166L116.83 168.818H118.605L122.269 179H120.639L117.76 170.668H117.681L114.797 179ZM115.07 175.013H120.36V176.305H115.07V175.013ZM129.288 173.228L127.941 173.467C127.884 173.294 127.795 173.13 127.672 172.974C127.553 172.819 127.391 172.691 127.185 172.592C126.98 172.492 126.723 172.442 126.414 172.442C125.993 172.442 125.642 172.537 125.36 172.726C125.079 172.911 124.938 173.152 124.938 173.447C124.938 173.702 125.032 173.907 125.221 174.063C125.41 174.219 125.715 174.347 126.136 174.446L127.349 174.724C128.052 174.887 128.575 175.137 128.92 175.475C129.265 175.813 129.437 176.252 129.437 176.793C129.437 177.25 129.305 177.658 129.039 178.016C128.778 178.37 128.411 178.649 127.941 178.851C127.473 179.053 126.931 179.154 126.315 179.154C125.46 179.154 124.762 178.972 124.222 178.607C123.682 178.239 123.35 177.717 123.228 177.041L124.664 176.822C124.754 177.197 124.938 177.48 125.216 177.673C125.495 177.862 125.858 177.956 126.305 177.956C126.792 177.956 127.182 177.855 127.473 177.653C127.765 177.447 127.911 177.197 127.911 176.902C127.911 176.663 127.821 176.463 127.642 176.3C127.467 176.138 127.197 176.015 126.832 175.933L125.539 175.649C124.827 175.487 124.3 175.228 123.958 174.874C123.62 174.519 123.451 174.07 123.451 173.526C123.451 173.076 123.577 172.681 123.829 172.343C124.081 172.005 124.429 171.741 124.873 171.553C125.317 171.36 125.826 171.264 126.4 171.264C127.225 171.264 127.874 171.443 128.348 171.801C128.822 172.156 129.136 172.631 129.288 173.228ZM136.794 173.228L135.447 173.467C135.39 173.294 135.301 173.13 135.178 172.974C135.059 172.819 134.896 172.691 134.691 172.592C134.485 172.492 134.229 172.442 133.92 172.442C133.499 172.442 133.148 172.537 132.866 172.726C132.585 172.911 132.444 173.152 132.444 173.447C132.444 173.702 132.538 173.907 132.727 174.063C132.916 174.219 133.221 174.347 133.642 174.446L134.855 174.724C135.558 174.887 136.081 175.137 136.426 175.475C136.771 175.813 136.943 176.252 136.943 176.793C136.943 177.25 136.81 177.658 136.545 178.016C136.283 178.37 135.917 178.649 135.447 178.851C134.979 179.053 134.437 179.154 133.821 179.154C132.966 179.154 132.268 178.972 131.728 178.607C131.188 178.239 130.856 177.717 130.733 177.041L132.17 176.822C132.26 177.197 132.444 177.48 132.722 177.673C133.001 177.862 133.363 177.956 133.811 177.956C134.298 177.956 134.688 177.855 134.979 177.653C135.271 177.447 135.417 177.197 135.417 176.902C135.417 176.663 135.327 176.463 135.148 176.3C134.973 176.138 134.702 176.015 134.338 175.933L133.045 175.649C132.333 175.487 131.806 175.228 131.464 174.874C131.126 174.519 130.957 174.07 130.957 173.526C130.957 173.076 131.083 172.681 131.335 172.343C131.587 172.005 131.935 171.741 132.379 171.553C132.823 171.36 133.332 171.264 133.905 171.264C134.731 171.264 135.38 171.443 135.854 171.801C136.328 172.156 136.641 172.631 136.794 173.228ZM141.869 179.154C141.116 179.154 140.468 178.993 139.925 178.672C139.384 178.347 138.967 177.891 138.672 177.305C138.38 176.715 138.234 176.024 138.234 175.232C138.234 174.449 138.38 173.76 138.672 173.163C138.967 172.567 139.378 172.101 139.905 171.766C140.435 171.432 141.055 171.264 141.764 171.264C142.195 171.264 142.613 171.335 143.017 171.478C143.421 171.621 143.784 171.844 144.106 172.149C144.427 172.454 144.681 172.85 144.866 173.337C145.052 173.821 145.145 174.41 145.145 175.102V175.629H139.075V174.516H143.688C143.688 174.125 143.609 173.778 143.45 173.477C143.29 173.172 143.067 172.931 142.778 172.756C142.493 172.58 142.159 172.492 141.774 172.492C141.357 172.492 140.992 172.595 140.68 172.8C140.372 173.003 140.134 173.268 139.964 173.596C139.799 173.921 139.716 174.274 139.716 174.655V175.525C139.716 176.035 139.805 176.469 139.984 176.827C140.167 177.185 140.42 177.459 140.745 177.648C141.07 177.833 141.449 177.926 141.884 177.926C142.165 177.926 142.422 177.886 142.654 177.807C142.886 177.724 143.087 177.601 143.256 177.439C143.425 177.277 143.554 177.076 143.643 176.837L145.05 177.091C144.938 177.505 144.736 177.868 144.444 178.18C144.156 178.488 143.793 178.728 143.355 178.901C142.921 179.07 142.425 179.154 141.869 179.154ZM150.359 171.364V172.557H146.188V171.364H150.359ZM147.306 169.534H148.793V176.758C148.793 177.046 148.836 177.263 148.922 177.409C149.008 177.552 149.119 177.649 149.255 177.702C149.394 177.752 149.545 177.777 149.708 177.777C149.827 177.777 149.931 177.769 150.021 177.752C150.11 177.736 150.18 177.722 150.23 177.712L150.498 178.94C150.412 178.973 150.289 179.007 150.13 179.04C149.971 179.076 149.772 179.096 149.534 179.099C149.142 179.106 148.778 179.036 148.44 178.891C148.102 178.745 147.828 178.519 147.619 178.214C147.411 177.91 147.306 177.527 147.306 177.066V169.534ZM157.602 173.228L156.255 173.467C156.199 173.294 156.109 173.13 155.987 172.974C155.867 172.819 155.705 172.691 155.499 172.592C155.294 172.492 155.037 172.442 154.729 172.442C154.308 172.442 153.957 172.537 153.675 172.726C153.393 172.911 153.252 173.152 153.252 173.447C153.252 173.702 153.347 173.907 153.536 174.063C153.725 174.219 154.03 174.347 154.45 174.446L155.664 174.724C156.366 174.887 156.89 175.137 157.235 175.475C157.579 175.813 157.752 176.252 157.752 176.793C157.752 177.25 157.619 177.658 157.354 178.016C157.092 178.37 156.726 178.649 156.255 178.851C155.788 179.053 155.246 179.154 154.629 179.154C153.774 179.154 153.077 178.972 152.536 178.607C151.996 178.239 151.665 177.717 151.542 177.041L152.979 176.822C153.068 177.197 153.252 177.48 153.531 177.673C153.809 177.862 154.172 177.956 154.619 177.956C155.107 177.956 155.496 177.855 155.788 177.653C156.079 177.447 156.225 177.197 156.225 176.902C156.225 176.663 156.136 176.463 155.957 176.3C155.781 176.138 155.511 176.015 155.146 175.933L153.854 175.649C153.141 175.487 152.614 175.228 152.273 174.874C151.935 174.519 151.766 174.07 151.766 173.526C151.766 173.076 151.892 172.681 152.144 172.343C152.396 172.005 152.744 171.741 153.188 171.553C153.632 171.36 154.141 171.264 154.714 171.264C155.539 171.264 156.189 171.443 156.663 171.801C157.137 172.156 157.45 172.631 157.602 173.228Z" fill="black" fill-opacity="0.25"/>
</g>
<defs>
<filter id="filter0_d_416_1738" x="0" y="0" width="319" height="263" filterUnits="userSpaceOnUse" color-interpolation-filters="sRGB">
<feFlood flood-opacity="0" result="BackgroundImageFix"/>
<feColorMatrix in="SourceAlpha" type="matrix" values="0 0 0 0 0 0 0 0 0 0 0 0 0 0 0 0 0 0 127 0" result="hardAlpha"/>
<feOffset dy="4"/>
<feGaussianBlur stdDeviation="30"/>
<feComposite in2="hardAlpha" operator="out"/>
<feColorMatrix type="matrix" values="0 0 0 0 0 0 0 0 0 0 0 0 0 0 0 0 0 0 0.08 0"/>
<feBlend mode="normal" in2="BackgroundImageFix" result="effect1_dropShadow_416_1738"/>
<feBlend mode="normal" in="SourceGraphic" in2="effect1_dropShadow_416_1738" result="shape"/>
</filter>
</defs>
</svg>
