<svg width="1440" height="1024" viewBox="0 0 1440 1024" fill="none" xmlns="http://www.w3.org/2000/svg">
<path opacity="0.3" d="M345.7 237.203L550.679 442.182H-196.46C-179.687 223.218 -85.1044 17.4781 70.1888 -137.815C225.482 -293.108 431.222 -387.691 650.186 -404.464V342.332L445.207 137.353L445.207 137.352C433.54 125.737 417.749 119.216 401.286 119.216C384.824 119.216 369.031 125.737 357.365 137.352L357.359 137.358L345.7 149.361C345.699 149.362 345.698 149.363 345.697 149.364C334.084 161.03 327.564 176.821 327.564 193.282C327.564 209.745 334.085 225.536 345.7 237.203L345.7 237.203ZM1094.95 237.203L1094.95 237.203C1106.57 225.536 1113.09 209.745 1113.09 193.282C1113.09 176.82 1106.57 161.027 1094.95 149.361L1094.95 149.36L1083.29 137.697L1083.29 137.696C1071.62 126.081 1055.83 119.56 1039.37 119.56C1022.91 119.56 1007.11 126.081 995.447 137.696L995.447 137.697L790.468 342.675V-404.464C1009.41 -387.622 1215.11 -293.017 1370.39 -137.738C1525.67 17.5419 1620.27 223.242 1637.11 442.182H889.975L1094.95 237.203ZM650.19 682.308V1429.45C431.287 1412.6 225.629 1317.98 70.4062 1162.69C-84.8168 1007.41 -179.351 801.711 -196.114 582.801H550.683L345.704 787.78L345.704 787.781C334.088 799.447 327.568 815.239 327.568 831.701C327.568 848.164 334.088 863.955 345.704 875.621L345.704 875.622L357.365 887.284C363.095 893.119 369.931 897.754 377.473 900.917C385.015 904.082 393.112 905.711 401.29 905.711C409.469 905.711 417.564 904.082 425.106 900.917C432.648 897.754 439.484 893.119 445.214 887.284L650.19 682.308ZM1095.3 875.622L1095.3 875.621C1106.92 863.955 1113.44 848.164 1113.44 831.701C1113.44 815.239 1106.92 799.447 1095.3 787.781L1095.3 787.78L890.321 582.801H1637.46C1620.62 801.741 1526.01 1007.44 1370.73 1162.72C1215.45 1318 1009.75 1412.61 790.814 1429.45V682.308L995.79 887.284C1001.52 893.119 1008.35 897.754 1015.9 900.917C1023.44 904.082 1031.54 905.711 1039.71 905.711C1047.89 905.711 1055.99 904.082 1063.53 900.917C1071.07 897.754 1077.91 893.119 1083.64 887.284L1095.3 875.622Z" stroke="#CCF2F0"/>
</svg>
