<svg width="25" height="25" viewBox="0 0 25 25" fill="none" xmlns="http://www.w3.org/2000/svg">
<path d="M21.7 12.5V24.0001H3.2998V12.5" stroke="black" stroke-linecap="round" stroke-linejoin="round"/>
<path d="M24.0003 6.74951H1V12.4996H24.0003V6.74951Z" stroke="black" stroke-linecap="round" stroke-linejoin="round"/>
<path d="M12.5 23.9997V6.74951" stroke="black" stroke-linecap="round" stroke-linejoin="round"/>
<path d="M12.5003 6.75007H7.32523C6.56272 6.75007 5.83145 6.44717 5.29227 5.90799C4.7531 5.36882 4.4502 4.63754 4.4502 3.87504C4.4502 3.11253 4.7531 2.38125 5.29227 1.84208C5.83145 1.3029 6.56272 1 7.32523 1C11.3503 1 12.5003 6.75007 12.5003 6.75007Z" stroke="black" stroke-linecap="round" stroke-linejoin="round"/>
<path d="M12.5 6.75007H17.6751C18.4376 6.75007 19.1688 6.44717 19.708 5.90799C20.2472 5.36882 20.5501 4.63754 20.5501 3.87504C20.5501 3.11253 20.2472 2.38125 19.708 1.84208C19.1688 1.3029 18.4376 1 17.6751 1C13.65 1 12.5 6.75007 12.5 6.75007Z" stroke="black" stroke-linecap="round" stroke-linejoin="round"/>
</svg>
