<svg width="24" height="24" viewBox="0 0 24 24" fill="none" xmlns="http://www.w3.org/2000/svg">
<circle cx="12" cy="12" r="12" fill="#D9D9D9"/>
<g clip-path="url(#clip0_416_9592)">
<path d="M12.3871 7.94451C13.835 7.94451 14.005 7.95096 14.5773 7.97678C15.1065 8.00044 15.3926 8.08865 15.5841 8.16395C15.838 8.26291 16.0187 8.37909 16.208 8.56841C16.3973 8.75773 16.5157 8.93845 16.6125 9.19231C16.6856 9.38379 16.776 9.66992 16.7996 10.1992C16.8255 10.7714 16.8319 10.9414 16.8319 12.3893C16.8319 13.8372 16.8255 14.0071 16.7996 14.5794C16.776 15.1086 16.6878 15.3948 16.6125 15.5862C16.5135 15.8401 16.3973 16.0208 16.208 16.2102C16.0187 16.3995 15.838 16.5178 15.5841 16.6146C15.3926 16.6878 15.1065 16.7781 14.5773 16.8018C14.005 16.8276 13.835 16.8341 12.3871 16.8341C10.9392 16.8341 10.7693 16.8276 10.197 16.8018C9.66777 16.7781 9.38164 16.6899 9.19016 16.6146C8.9363 16.5156 8.75558 16.3995 8.56626 16.2102C8.37694 16.0208 8.25861 15.8401 8.1618 15.5862C8.08865 15.3948 7.99829 15.1086 7.97463 14.5794C7.94881 14.0071 7.94235 13.8372 7.94235 12.3893C7.94235 10.9414 7.94881 10.7714 7.97463 10.1992C7.99829 9.66992 8.0865 9.38379 8.1618 9.19231C8.26076 8.93845 8.37694 8.75773 8.56626 8.56841C8.75558 8.37909 8.9363 8.26076 9.19016 8.16395C9.38164 8.0908 9.66777 8.00044 10.197 7.97678C10.7693 7.94881 10.9414 7.94451 12.3871 7.94451ZM12.3871 6.96777C10.9156 6.96777 10.7306 6.97423 10.1518 7.00004C9.57526 7.02586 9.18156 7.11837 8.83733 7.25176C8.4802 7.38945 8.17901 7.57662 7.87781 7.87781C7.57662 8.17901 7.3916 8.48235 7.25176 8.83733C7.11837 9.18156 7.02586 9.57526 7.00004 10.154C6.97423 10.7306 6.96777 10.9156 6.96777 12.3871C6.96777 13.8587 6.97423 14.0437 7.00004 14.6224C7.02586 15.199 7.11837 15.5927 7.25176 15.9391C7.38945 16.2962 7.57662 16.5974 7.87781 16.8986C8.17901 17.1998 8.48235 17.3848 8.83733 17.5247C9.18156 17.658 9.57526 17.7505 10.154 17.7764C10.7327 17.8022 10.9156 17.8086 12.3893 17.8086C13.863 17.8086 14.0459 17.8022 14.6246 17.7764C15.2012 17.7505 15.5949 17.658 15.9412 17.5247C16.2984 17.387 16.5996 17.1998 16.9008 16.8986C17.202 16.5974 17.387 16.2941 17.5268 15.9391C17.6602 15.5949 17.7527 15.2011 17.7785 14.6224C17.8043 14.0437 17.8108 13.8608 17.8108 12.3871C17.8108 10.9134 17.8043 10.7306 17.7785 10.1518C17.7527 9.57526 17.6602 9.18156 17.5268 8.83518C17.3891 8.47805 17.202 8.17686 16.9008 7.87566C16.5996 7.57447 16.2962 7.38945 15.9412 7.24961C15.597 7.11622 15.2033 7.02371 14.6246 6.99789C14.0437 6.97423 13.8587 6.96777 12.3871 6.96777Z" fill="black"/>
<path d="M12.3871 7.94451C13.835 7.94451 14.005 7.95096 14.5773 7.97678C15.1065 8.00044 15.3926 8.08865 15.5841 8.16395C15.838 8.26291 16.0187 8.37909 16.208 8.56841C16.3973 8.75773 16.5157 8.93845 16.6125 9.19231C16.6856 9.38379 16.776 9.66992 16.7996 10.1992C16.8255 10.7714 16.8319 10.9414 16.8319 12.3893C16.8319 13.8372 16.8255 14.0071 16.7996 14.5794C16.776 15.1086 16.6878 15.3948 16.6125 15.5862C16.5135 15.8401 16.3973 16.0208 16.208 16.2102C16.0187 16.3995 15.838 16.5178 15.5841 16.6146C15.3926 16.6878 15.1065 16.7781 14.5773 16.8018C14.005 16.8276 13.835 16.8341 12.3871 16.8341C10.9392 16.8341 10.7693 16.8276 10.197 16.8018C9.66777 16.7781 9.38164 16.6899 9.19016 16.6146C8.9363 16.5156 8.75558 16.3995 8.56626 16.2102C8.37694 16.0208 8.25861 15.8401 8.1618 15.5862C8.08865 15.3948 7.99829 15.1086 7.97463 14.5794C7.94881 14.0071 7.94235 13.8372 7.94235 12.3893C7.94235 10.9414 7.94881 10.7714 7.97463 10.1992C7.99829 9.66992 8.0865 9.38379 8.1618 9.19231C8.26076 8.93845 8.37694 8.75773 8.56626 8.56841C8.75558 8.37909 8.9363 8.26076 9.19016 8.16395C9.38164 8.0908 9.66777 8.00044 10.197 7.97678C10.7693 7.94881 10.9414 7.94451 12.3871 7.94451Z" fill="black"/>
<path d="M12.3872 9.60547C10.8511 9.60547 9.60327 10.8511 9.60327 12.3894C9.60327 13.9276 10.8489 15.1733 12.3872 15.1733C13.9254 15.1733 15.1711 13.9276 15.1711 12.3894C15.1711 10.8511 13.9254 9.60547 12.3872 9.60547ZM12.3872 14.1944C11.3889 14.1944 10.58 13.3855 10.58 12.3872C10.58 11.389 11.3889 10.58 12.3872 10.58C13.3854 10.58 14.1943 11.389 14.1943 12.3872C14.1943 13.3855 13.3854 14.1944 12.3872 14.1944Z" fill="white"/>
<path d="M15.2808 10.1432C15.6397 10.1432 15.9305 9.8523 15.9305 9.49347C15.9305 9.13464 15.6397 8.84375 15.2808 8.84375C14.922 8.84375 14.6311 9.13464 14.6311 9.49347C14.6311 9.8523 14.922 10.1432 15.2808 10.1432Z" fill="white"/>
</g>
<defs>
<clipPath id="clip0_416_9592">
<rect width="10.8387" height="10.8387" fill="white" transform="translate(6.96777 6.96777)"/>
</clipPath>
</defs>
</svg>
