<svg width="24" height="24" viewBox="0 0 24 24" fill="none" xmlns="http://www.w3.org/2000/svg">
<circle cx="12" cy="12" r="12" fill="#D9D9D9"/>
<g clip-path="url(#clip0_416_9595)">
<path d="M17.0064 6.96777H7.76788C7.55568 6.96777 7.35217 7.05207 7.20212 7.20212C7.05207 7.35217 6.96777 7.55568 6.96777 7.76788V17.0064C6.96777 17.2186 7.05207 17.4221 7.20212 17.5721C7.35217 17.7222 7.55568 17.8065 7.76788 17.8065H17.0064C17.2186 17.8065 17.4221 17.7222 17.5721 17.5721C17.7222 17.4221 17.8065 17.2186 17.8065 17.0064V7.76788C17.8065 7.55568 17.7222 7.35217 17.5721 7.20212C17.4221 7.05207 17.2186 6.96777 17.0064 6.96777ZM10.1983 16.201H8.56874V11.0248H10.1983V16.201ZM9.3824 10.3075C9.19755 10.3064 9.01715 10.2506 8.86398 10.1472C8.7108 10.0437 8.5917 9.89717 8.52172 9.72608C8.45174 9.55499 8.434 9.36701 8.47076 9.18585C8.50751 9.00469 8.5971 8.83848 8.72823 8.70819C8.85936 8.5779 9.02614 8.48938 9.20753 8.45379C9.38892 8.4182 9.57679 8.43714 9.74743 8.50822C9.91807 8.5793 10.0638 8.69933 10.1663 8.85317C10.2688 9.00701 10.3234 9.18776 10.3233 9.37261C10.325 9.49637 10.3018 9.61921 10.2551 9.73381C10.2083 9.84842 10.139 9.95244 10.0512 10.0397C9.96339 10.1269 9.85893 10.1956 9.74403 10.2416C9.62913 10.2876 9.50614 10.31 9.3824 10.3075ZM16.2048 16.2055H14.5759V13.3777C14.5759 12.5437 14.2214 12.2863 13.7638 12.2863C13.2806 12.2863 12.8064 12.6506 12.8064 13.3987V16.2055H11.1768V11.0285H12.7439V11.7458H12.765C12.9223 11.4275 13.4733 10.8833 14.314 10.8833C15.2233 10.8833 16.2055 11.4229 16.2055 13.0036L16.2048 16.2055Z" fill="black"/>
</g>
<defs>
<clipPath id="clip0_416_9595">
<rect width="10.8387" height="10.8387" fill="white" transform="translate(6.96777 6.96777)"/>
</clipPath>
</defs>
</svg>
