<svg width="24" height="24" viewBox="0 0 24 24" fill="none" xmlns="http://www.w3.org/2000/svg">
<circle cx="12" cy="12" r="12" fill="#D9D9D9"/>
<g clip-path="url(#clip0_416_9589)">
<path d="M16.4774 10.2108C16.4816 10.3062 16.4816 10.3972 16.4816 10.4926C16.4858 13.3844 14.3612 16.7227 10.4759 16.7227C9.32991 16.7227 8.20488 16.3802 7.23877 15.7386C7.40606 15.7602 7.57335 15.7689 7.74064 15.7689C8.69002 15.7689 9.6143 15.4394 10.3629 14.8281C9.45956 14.8108 8.66493 14.1995 8.3889 13.3064C8.70675 13.3714 9.03297 13.3584 9.34246 13.2673C8.35962 13.0679 7.65282 12.1705 7.64863 11.1256C7.64863 11.1169 7.64863 11.1083 7.64863 11.0996C7.94139 11.2687 8.27179 11.3641 8.60638 11.3727C7.68209 10.7311 7.39351 9.4521 7.95394 8.4506C9.02879 9.82061 10.6097 10.6487 12.3077 10.7397C12.1362 9.98103 12.3704 9.1833 12.9183 8.64569C13.7673 7.81761 15.1056 7.86097 15.9086 8.74107C16.3812 8.64569 16.8371 8.4636 17.2511 8.20781C17.0922 8.71506 16.7618 9.14428 16.3227 9.41741C16.7409 9.36539 17.1508 9.24833 17.5355 9.07491C17.2511 9.51713 16.8915 9.89865 16.4774 10.2108Z" fill="black"/>
</g>
<defs>
<clipPath id="clip0_416_9589">
<rect width="10.8387" height="10.8387" fill="white" transform="translate(6.96777 6.96777)"/>
</clipPath>
</defs>
</svg>
