<svg width="28" height="28" viewBox="0 0 28 28" fill="none" xmlns="http://www.w3.org/2000/svg">
<g clip-path="url(#clip0_1117_629)">
<path d="M8.03696 8.63102C7.86644 8.80229 7.77071 9.03414 7.77071 9.27582C7.77071 9.5175 7.86644 9.74933 8.03696 9.9206L11.0832 12.9668H0C0.246691 9.72151 1.64764 6.67189 3.94904 4.37049C6.25045 2.06909 9.30006 0.668139 12.5454 0.421448V11.4995L9.49915 8.45332C9.32788 8.2828 9.09605 8.18707 8.85437 8.18707C8.61269 8.18707 8.38084 8.2828 8.20957 8.45332L8.03696 8.63102Z" fill="#00BFB2"/>
<path d="M19.1149 9.9206C19.2854 9.74933 19.3811 9.5175 19.3811 9.27582C19.3811 9.03414 19.2854 8.80229 19.1149 8.63102L18.9422 8.4584C18.771 8.28789 18.5391 8.19216 18.2975 8.19216C18.0558 8.19216 17.8239 8.28789 17.6527 8.4584L14.6064 11.5046V0.421448C17.8514 0.669156 20.9004 2.07044 23.2016 4.37164C25.5028 6.67284 26.9041 9.72187 27.1518 12.9668H16.0686L19.1149 9.9206Z" fill="#00BFB2"/>
<path d="M12.5462 16.4953V27.5785C9.30176 27.3307 6.25336 25.9292 3.953 23.6279C1.65263 21.3266 0.252396 18.2777 0.00585938 15.0331H11.084L8.03775 18.0794C7.86723 18.2506 7.7715 18.4825 7.7715 18.7241C7.7715 18.9658 7.86723 19.1977 8.03775 19.3689L8.21037 19.5416C8.29449 19.6272 8.39484 19.6953 8.50554 19.7417C8.61625 19.7881 8.73511 19.8121 8.85516 19.8121C8.97522 19.8121 9.09406 19.7881 9.20477 19.7417C9.31547 19.6953 9.41582 19.6272 9.49994 19.5416L12.5462 16.4953Z" fill="#00BFB2"/>
<path d="M27.1577 15.0331C26.91 18.2781 25.5087 21.3271 23.2075 23.6283C20.9063 25.9295 17.8573 27.3308 14.6123 27.5785V16.4953L17.6585 19.5416C17.7427 19.6272 17.843 19.6953 17.9537 19.7417C18.0644 19.7881 18.1833 19.8121 18.3033 19.8121C18.4234 19.8121 18.5422 19.7881 18.6529 19.7417C18.7636 19.6953 18.864 19.6272 18.9481 19.5416L19.1207 19.3689C19.2912 19.1977 19.387 18.9658 19.387 18.7241C19.387 18.4825 19.2912 18.2506 19.1207 18.0794L16.0745 15.0331H27.1577Z" fill="#00BFB2"/>
</g>
<defs>
<clipPath id="clip0_1117_629">
<rect width="27.1571" height="27.1571" fill="white" transform="translate(0 0.421432)"/>
</clipPath>
</defs>
</svg>
