<svg width="117" height="30" viewBox="0 0 117 30" fill="none" xmlns="http://www.w3.org/2000/svg">
<g clip-path="url(#clip0_416_1691)">
<path d="M8.53296 9.30021C8.35192 9.48205 8.25028 9.72821 8.25028 9.9848C8.25028 10.2414 8.35192 10.4875 8.53296 10.6694L11.7672 13.9036H0C0.261916 10.458 1.74932 7.22018 4.19276 4.77674C6.63619 2.33331 9.87402 0.8459 13.3196 0.583984V12.3458L10.0854 9.11155C9.90355 8.93051 9.65741 8.82887 9.40082 8.82887C9.14422 8.82887 8.89807 8.93051 8.71623 9.11155L8.53296 9.30021Z" fill="#00BFB2"/>
<path d="M20.2945 10.6694C20.4755 10.4875 20.5771 10.2414 20.5771 9.9848C20.5771 9.72821 20.4755 9.48205 20.2945 9.30021L20.1112 9.11694C19.9294 8.9359 19.6832 8.83426 19.4266 8.83426C19.17 8.83426 18.9239 8.9359 18.742 9.11694L15.5078 12.3512V0.583984C18.953 0.84698 22.1902 2.33474 24.6335 4.77796C27.0767 7.22118 28.5644 10.4584 28.8274 13.9036H17.0602L20.2945 10.6694Z" fill="#00BFB2"/>
<path d="M13.3191 17.6501V29.4173C9.87448 29.1541 6.63795 27.6662 4.19562 25.2229C1.75329 22.7795 0.266635 19.5424 0.00488281 16.0977H11.7667L8.53246 19.3319C8.35142 19.5137 8.24978 19.7599 8.24978 20.0165C8.24978 20.273 8.35142 20.5192 8.53246 20.701L8.71573 20.8843C8.80505 20.9753 8.91159 21.0475 9.02913 21.0968C9.14667 21.1461 9.27286 21.1715 9.40032 21.1715C9.52779 21.1715 9.65396 21.1461 9.7715 21.0968C9.88904 21.0475 9.99558 20.9753 10.0849 20.8843L13.3191 17.6501Z" fill="#00BFB2"/>
<path d="M28.8333 16.0977C28.5703 19.5429 27.0825 22.7801 24.6393 25.2233C22.1961 27.6665 18.9589 29.1543 15.5137 29.4173V17.6501L18.7479 20.8843C18.8372 20.9753 18.9437 21.0475 19.0613 21.0968C19.1788 21.1461 19.305 21.1715 19.4325 21.1715C19.5599 21.1715 19.6861 21.1461 19.8037 21.0968C19.9212 21.0475 20.0277 20.9753 20.117 20.8843L20.3003 20.701C20.4814 20.5192 20.583 20.273 20.583 20.0165C20.583 19.7599 20.4814 19.5137 20.3003 19.3319L17.0661 16.0977H28.8333Z" fill="#00BFB2"/>
</g>
<path d="M44.6723 12.6117C44.5657 12.2661 44.4185 11.9568 44.2308 11.6838C44.0473 11.4065 43.8255 11.1697 43.5652 10.9735C43.3092 10.7772 43.0149 10.63 42.6821 10.5319C42.3493 10.4295 41.9867 10.3783 41.5942 10.3783C40.8903 10.3783 40.2631 10.5554 39.7128 10.9095C39.1624 11.2636 38.7294 11.7841 38.4137 12.4709C38.1023 13.1535 37.9465 13.9855 37.9465 14.9667C37.9465 15.9565 38.1023 16.7948 38.4137 17.4817C38.7251 18.1685 39.1582 18.6911 39.7128 19.0495C40.2674 19.4036 40.9116 19.5807 41.6454 19.5807C42.3109 19.5807 42.8869 19.4527 43.3732 19.1967C43.8639 18.9407 44.2414 18.5781 44.5059 18.1088C44.7704 17.6352 44.9027 17.0806 44.9027 16.445L45.4402 16.5281H41.8822V14.6723H47.2001V16.2466C47.2001 17.3686 46.9612 18.3392 46.4833 19.1583C46.0055 19.9774 45.3485 20.6088 44.5123 21.0525C43.6761 21.4919 42.7162 21.7117 41.6326 21.7117C40.4252 21.7117 39.3651 21.4408 38.4521 20.8989C37.5434 20.3529 36.8331 19.5785 36.3211 18.576C35.8134 17.5691 35.5596 16.3746 35.5596 14.9923C35.5596 13.9343 35.7089 12.9893 36.0075 12.1574C36.3104 11.3254 36.7328 10.6194 37.2746 10.0392C37.8164 9.45468 38.4521 9.01099 39.1816 8.70808C39.9112 8.40091 40.7047 8.24733 41.5622 8.24733C42.2875 8.24733 42.9637 8.35398 43.5908 8.5673C44.218 8.77634 44.7747 9.07498 45.2611 9.46321C45.7517 9.85144 46.1548 10.3122 46.4705 10.8455C46.7862 11.3788 46.9932 11.9675 47.0913 12.6117H44.6723Z" fill="black"/>
<path d="M50.0094 21.5325V11.703H52.326V21.5325H50.0094ZM51.1741 10.3079C50.8072 10.3079 50.4915 10.1863 50.227 9.94317C49.9625 9.69572 49.8302 9.39922 49.8302 9.05365C49.8302 8.70382 49.9625 8.40731 50.227 8.16413C50.4915 7.91669 50.8072 7.79297 51.1741 7.79297C51.5453 7.79297 51.861 7.91669 52.1212 8.16413C52.3857 8.40731 52.518 8.70382 52.518 9.05365C52.518 9.39922 52.3857 9.69572 52.1212 9.94317C51.861 10.1863 51.5453 10.3079 51.1741 10.3079Z" fill="black"/>
<path d="M59.6869 11.703V13.4948H53.8762V11.703H59.6869ZM55.3289 21.5325V10.7751C55.3289 10.1138 55.4654 9.56347 55.7385 9.12404C56.0158 8.68462 56.3869 8.35612 56.852 8.13854C57.317 7.92096 57.8332 7.81217 58.4006 7.81217C58.8017 7.81217 59.1579 7.84416 59.4693 7.90816C59.7808 7.97215 60.0111 8.02975 60.1605 8.08094L59.6997 9.87277C59.6016 9.84291 59.4779 9.81305 59.3285 9.78318C59.1792 9.74905 59.0128 9.73199 58.8294 9.73199C58.3985 9.73199 58.0935 9.83651 57.9143 10.0456C57.7394 10.2503 57.6519 10.5447 57.6519 10.9287V21.5325H55.3289Z" fill="black"/>
<path d="M66.4095 11.703V13.4948H60.7588V11.703H66.4095ZM62.1539 9.34802H64.4705V18.576C64.4705 18.8874 64.5174 19.1263 64.6112 19.2927C64.7094 19.4548 64.8374 19.5657 64.9952 19.6255C65.1531 19.6852 65.328 19.715 65.52 19.715C65.665 19.715 65.7973 19.7044 65.9167 19.6831C66.0404 19.6617 66.1343 19.6425 66.1983 19.6255L66.5887 21.4365C66.4649 21.4791 66.2879 21.5261 66.0575 21.5773C65.8314 21.6285 65.5541 21.6583 65.2256 21.6669C64.6454 21.6839 64.1228 21.5965 63.6577 21.4045C63.1927 21.2082 62.8237 20.9053 62.5506 20.4958C62.2819 20.0862 62.1496 19.5743 62.1539 18.9599V9.34802Z" fill="black"/>
<path d="M79.6674 12.8485H77.2741C77.2058 12.456 77.0799 12.1083 76.8965 11.8054C76.713 11.4982 76.4848 11.238 76.2118 11.0247C75.9387 10.8114 75.6273 10.6514 75.2774 10.5447C74.9319 10.4338 74.5586 10.3783 74.1575 10.3783C73.4451 10.3783 72.8137 10.5575 72.2633 10.9159C71.713 11.27 71.2821 11.7905 70.9706 12.4773C70.6592 13.1599 70.5035 13.994 70.5035 14.9795C70.5035 15.9821 70.6592 16.8268 70.9706 17.5137C71.2864 18.1963 71.7172 18.7125 72.2633 19.0623C72.8137 19.4079 73.4429 19.5807 74.1511 19.5807C74.5436 19.5807 74.9105 19.5295 75.2518 19.4271C75.5974 19.3204 75.9067 19.1647 76.1798 18.9599C76.4571 18.7551 76.6896 18.5034 76.8773 18.2048C77.0693 17.9062 77.2015 17.5648 77.2741 17.1809L79.6674 17.1937C79.5778 17.8166 79.3837 18.401 79.0851 18.9471C78.7907 19.4932 78.4046 19.9753 77.9268 20.3934C77.449 20.8072 76.8901 21.1314 76.2501 21.3661C75.6102 21.5965 74.8999 21.7117 74.1191 21.7117C72.9673 21.7117 71.9391 21.445 71.0346 20.9117C70.1302 20.3785 69.4177 19.6084 68.8972 18.6016C68.3768 17.5947 68.1165 16.3874 68.1165 14.9795C68.1165 13.5674 68.3789 12.36 68.9036 11.3574C69.4284 10.3506 70.143 9.58053 71.0474 9.04725C71.9519 8.51397 72.9758 8.24733 74.1191 8.24733C74.8487 8.24733 75.527 8.34972 76.1542 8.5545C76.7813 8.75928 77.3402 9.06005 77.8308 9.45681C78.3214 9.84931 78.7246 10.3314 79.0403 10.9031C79.3603 11.4705 79.5693 12.119 79.6674 12.8485Z" fill="black"/>
<path d="M81.7392 21.5325V11.703H84.0558V21.5325H81.7392ZM82.9039 10.3079C82.537 10.3079 82.2213 10.1863 81.9568 9.94317C81.6923 9.69572 81.5601 9.39922 81.5601 9.05365C81.5601 8.70382 81.6923 8.40731 81.9568 8.16413C82.2213 7.91669 82.537 7.79297 82.9039 7.79297C83.2751 7.79297 83.5908 7.91669 83.851 8.16413C84.1155 8.40731 84.2478 8.70382 84.2478 9.05365C84.2478 9.39922 84.1155 9.69572 83.851 9.94317C83.5908 10.1863 83.2751 10.3079 82.9039 10.3079Z" fill="black"/>
<path d="M86.438 21.5325V11.703H88.6842V13.3412H88.7866C88.9658 12.7738 89.2729 12.3365 89.7081 12.0294C90.1475 11.7179 90.6488 11.5622 91.2119 11.5622C91.3399 11.5622 91.4828 11.5686 91.6407 11.5814C91.8028 11.5899 91.9372 11.6049 92.0439 11.6262V13.7572C91.9457 13.7231 91.79 13.6932 91.5767 13.6676C91.3677 13.6378 91.165 13.6228 90.9688 13.6228C90.5464 13.6228 90.1667 13.7145 89.8297 13.898C89.4969 14.0772 89.2345 14.3268 89.0425 14.6467C88.8506 14.9667 88.7546 15.3357 88.7546 15.7538V21.5325H86.438Z" fill="black"/>
<path d="M97.4658 21.7245C96.4845 21.7245 95.6419 21.509 94.938 21.0781C94.2383 20.6472 93.6986 20.0521 93.3189 19.2927C92.9435 18.529 92.7558 17.6502 92.7558 16.6561C92.7558 15.6578 92.9478 14.7768 93.3317 14.0132C93.7157 13.2453 94.2575 12.648 94.9572 12.2214C95.6611 11.7905 96.493 11.575 97.453 11.575C98.2507 11.575 98.9568 11.7222 99.5712 12.0166C100.19 12.3067 100.683 12.7184 101.049 13.2517C101.416 13.7807 101.625 14.3993 101.677 15.1075H99.4624C99.3728 14.6339 99.1595 14.2393 98.8224 13.9236C98.4897 13.6036 98.0438 13.4436 97.485 13.4436C97.0114 13.4436 96.5954 13.5716 96.2371 13.8276C95.8787 14.0793 95.5993 14.4419 95.3988 14.9155C95.2025 15.3891 95.1044 15.9565 95.1044 16.6177C95.1044 17.2875 95.2025 17.8635 95.3988 18.3456C95.595 18.8234 95.8702 19.1924 96.2243 19.4527C96.5826 19.7086 97.0029 19.8366 97.485 19.8366C97.8263 19.8366 98.1313 19.7726 98.4001 19.6447C98.6731 19.5124 98.9014 19.3226 99.0848 19.0751C99.2683 18.8277 99.3941 18.5269 99.4624 18.1728H101.677C101.621 18.8682 101.416 19.4847 101.062 20.0222C100.708 20.5555 100.226 20.9736 99.616 21.2765C99.0059 21.5751 98.2891 21.7245 97.4658 21.7245Z" fill="black"/>
<path d="M105.895 8.42651V21.5325H103.579V8.42651H105.895Z" fill="black"/>
<path d="M112.629 21.7245C111.644 21.7245 110.793 21.5197 110.076 21.1101C109.363 20.6963 108.815 20.1118 108.431 19.3567C108.047 18.5973 107.855 17.7035 107.855 16.6753C107.855 15.6642 108.047 14.7768 108.431 14.0132C108.819 13.2453 109.361 12.648 110.057 12.2214C110.752 11.7905 111.569 11.575 112.508 11.575C113.113 11.575 113.685 11.6731 114.223 11.8694C114.764 12.0614 115.242 12.36 115.656 12.7653C116.074 13.1706 116.403 13.6868 116.642 14.314C116.88 14.9368 117 15.6792 117 16.5409V17.2513H108.943V15.6898H114.779C114.775 15.2461 114.679 14.8515 114.491 14.5059C114.304 14.1561 114.041 13.8809 113.704 13.6804C113.371 13.4799 112.983 13.3796 112.54 13.3796C112.066 13.3796 111.65 13.4948 111.292 13.7252C110.933 13.9513 110.654 14.25 110.453 14.6211C110.257 14.988 110.157 15.3912 110.153 15.8306V17.1937C110.153 17.7654 110.257 18.256 110.466 18.6655C110.675 19.0708 110.967 19.3823 111.343 19.5999C111.718 19.8132 112.158 19.9198 112.661 19.9198C112.998 19.9198 113.303 19.8729 113.576 19.779C113.849 19.6809 114.086 19.538 114.287 19.3503C114.487 19.1626 114.639 18.9301 114.741 18.6527L116.904 18.8959C116.767 19.4676 116.507 19.9668 116.123 20.3934C115.744 20.8157 115.257 21.1442 114.664 21.3789C114.071 21.6093 113.393 21.7245 112.629 21.7245Z" fill="black"/>
<defs>
<clipPath id="clip0_416_1691">
<rect width="28.8331" height="28.8331" fill="white" transform="translate(0 0.583984)"/>
</clipPath>
</defs>
</svg>
