<svg width="20" height="20" viewBox="0 0 20 20" fill="none" xmlns="http://www.w3.org/2000/svg">
<g clip-path="url(#clip0_416_9625)">
<path d="M16.6667 7.5H9.16667C8.24619 7.5 7.5 8.24619 7.5 9.16667V16.6667C7.5 17.5871 8.24619 18.3333 9.16667 18.3333H16.6667C17.5871 18.3333 18.3333 17.5871 18.3333 16.6667V9.16667C18.3333 8.24619 17.5871 7.5 16.6667 7.5Z" stroke="#717171" stroke-width="1.5" stroke-linecap="round" stroke-linejoin="round"/>
<path d="M4.16675 12.5003H3.33341C2.89139 12.5003 2.46746 12.3247 2.1549 12.0122C1.84234 11.6996 1.66675 11.2757 1.66675 10.8337V3.33366C1.66675 2.89163 1.84234 2.46771 2.1549 2.15515C2.46746 1.84259 2.89139 1.66699 3.33341 1.66699H10.8334C11.2754 1.66699 11.6994 1.84259 12.0119 2.15515C12.3245 2.46771 12.5001 2.89163 12.5001 3.33366V4.16699" stroke="#717171" stroke-width="1.5" stroke-linecap="round" stroke-linejoin="round"/>
</g>
<defs>
<clipPath id="clip0_416_9625">
<rect width="20" height="20" fill="white"/>
</clipPath>
</defs>
</svg>
