<svg width="109" height="109" viewBox="0 0 109 109" fill="none" xmlns="http://www.w3.org/2000/svg">
<path d="M86.0771 13.5908H22.652C17.6479 13.5908 13.5913 17.6474 13.5913 22.6515V86.0766C13.5913 91.0807 17.6479 95.1373 22.652 95.1373H86.0771C91.0812 95.1373 95.1378 91.0807 95.1378 86.0766V22.6515C95.1378 17.6474 91.0812 13.5908 86.0771 13.5908Z" stroke="#717171" stroke-width="5" stroke-linecap="round" stroke-linejoin="round"/>
<path d="M38.5079 45.303C42.261 45.303 45.3035 42.2605 45.3035 38.5075C45.3035 34.7544 42.261 31.7119 38.5079 31.7119C34.7549 31.7119 31.7124 34.7544 31.7124 38.5075C31.7124 42.2605 34.7549 45.303 38.5079 45.303Z" stroke="#717171" stroke-width="5" stroke-linecap="round" stroke-linejoin="round"/>
<path d="M95.1376 67.9555L72.4858 45.3037L22.6519 95.1377" stroke="#717171" stroke-width="5" stroke-linecap="round" stroke-linejoin="round"/>
</svg>
