<svg width="117" height="26" viewBox="0 0 117 26" fill="none" xmlns="http://www.w3.org/2000/svg">
<g clip-path="url(#clip0_935_2318)">
<path d="M7.65449 8.08591C7.49843 8.24266 7.41081 8.45485 7.41081 8.67605C7.41081 8.89724 7.49843 9.10942 7.65449 9.26617L10.4425 12.0542H0.298828C0.524607 9.08396 1.8068 6.29286 3.91311 4.18655C6.01942 2.08023 8.81052 0.798045 11.7807 0.572266V10.7113L8.99273 7.92327C8.83598 7.76721 8.6238 7.6796 8.40261 7.6796C8.18142 7.6796 7.96922 7.76721 7.81247 7.92327L7.65449 8.08591Z" fill="#00BFB2"/>
<path d="M17.7932 9.26617C17.9493 9.10942 18.0369 8.89724 18.0369 8.67605C18.0369 8.45485 17.9493 8.24266 17.7932 8.08591L17.6352 7.92793C17.4785 7.77186 17.2663 7.68425 17.0451 7.68425C16.8239 7.68425 16.6117 7.77186 16.455 7.92793L13.667 10.7159V0.572266C16.6369 0.798975 19.4274 2.08147 21.5336 4.1876C23.6397 6.29372 24.9222 9.08429 25.1489 12.0542H15.0052L17.7932 9.26617Z" fill="#00BFB2"/>
<path d="M11.78 15.2836V25.4272C8.81062 25.2004 6.02063 23.9177 3.91527 21.8115C1.80991 19.7053 0.528372 16.9148 0.302734 13.9453H10.4418L7.65376 16.7333C7.49769 16.8901 7.41008 17.1022 7.41008 17.3234C7.41008 17.5446 7.49769 17.7568 7.65376 17.9136L7.81174 18.0716C7.88873 18.1499 7.98057 18.2122 8.0819 18.2547C8.18322 18.2972 8.292 18.3191 8.40188 18.3191C8.51176 18.3191 8.62052 18.2972 8.72185 18.2547C8.82317 18.2122 8.91501 18.1499 8.992 18.0716L11.78 15.2836Z" fill="#00BFB2"/>
<path d="M25.1538 13.9453C24.9271 16.9152 23.6446 19.7058 21.5384 21.8119C19.4323 23.918 16.6417 25.2005 13.6719 25.4272V15.2836L16.4599 18.0716C16.5369 18.1499 16.6287 18.2122 16.73 18.2547C16.8313 18.2972 16.9401 18.3191 17.05 18.3191C17.1599 18.3191 17.2687 18.2972 17.37 18.2547C17.4713 18.2122 17.5631 18.1499 17.6401 18.0716L17.7981 17.9136C17.9542 17.7568 18.0418 17.5446 18.0418 17.3234C18.0418 17.1022 17.9542 16.8901 17.7981 16.7333L15.0101 13.9453H25.1538Z" fill="#00BFB2"/>
</g>
<path d="M31.8638 19V7.91584H39.0728V9.59903H33.8717V12.6082H38.6994V14.2914H33.8717V17.3168H39.1161V19H31.8638ZM47.8506 10.6869L44.8902 19H42.7253L39.7648 10.6869H41.8539L43.7644 16.8622H43.851L45.7669 10.6869H47.8506ZM51.9942 19.1624C51.1608 19.1624 50.4409 18.9892 49.8348 18.6428C49.2322 18.2928 48.7686 17.7985 48.4438 17.1599C48.1191 16.5176 47.9567 15.7617 47.9567 14.8921C47.9567 14.037 48.1191 13.2865 48.4438 12.6407C48.7722 11.9912 49.2304 11.4861 49.8185 11.1253C50.4067 10.7608 51.0976 10.5786 51.8914 10.5786C52.4038 10.5786 52.8873 10.6616 53.3419 10.8276C53.8001 10.99 54.2042 11.2425 54.5542 11.5853C54.9078 11.9281 55.1856 12.3647 55.3877 12.8951C55.5897 13.4218 55.6908 14.0497 55.6908 14.7785V15.3792H48.8768V14.0587H53.8127C53.8091 13.6834 53.7279 13.3497 53.5692 13.0574C53.4104 12.7616 53.1885 12.5288 52.9035 12.3592C52.6221 12.1897 52.2937 12.1049 51.9185 12.1049C51.518 12.1049 51.1662 12.2023 50.8631 12.3971C50.56 12.5884 50.3237 12.8409 50.1541 13.1548C49.9881 13.4651 49.9033 13.8061 49.8997 14.1777V15.3305C49.8997 15.814 49.9881 16.229 50.1649 16.5753C50.3417 16.9181 50.5889 17.1815 50.9064 17.3655C51.2239 17.5459 51.5955 17.6361 52.0213 17.6361C52.3063 17.6361 52.5643 17.5964 52.7952 17.5171C53.0262 17.4341 53.2264 17.3132 53.396 17.1544C53.5656 16.9957 53.6937 16.799 53.7803 16.5645L55.6096 16.7702C55.4941 17.2537 55.274 17.6758 54.9493 18.0366C54.6282 18.3938 54.2168 18.6717 53.7153 18.8701C53.2138 19.0649 52.6401 19.1624 51.9942 19.1624ZM58.6978 14.129V19H56.7386V10.6869H58.6112V12.0995H58.7087C58.8999 11.634 59.2048 11.2642 59.6233 10.99C60.0455 10.7157 60.5668 10.5786 61.1874 10.5786C61.7611 10.5786 62.2609 10.7013 62.6866 10.9467C63.116 11.192 63.4479 11.5474 63.6825 12.0129C63.9206 12.4783 64.0379 13.043 64.0343 13.7069V19H62.075V14.01C62.075 13.4543 61.9307 13.0195 61.6421 12.7056C61.357 12.3917 60.9619 12.2348 60.4568 12.2348C60.114 12.2348 59.8091 12.3105 59.5421 12.4621C59.2787 12.61 59.0713 12.8247 58.9197 13.1061C58.7718 13.3876 58.6978 13.7285 58.6978 14.129ZM69.5675 10.6869V12.2023H64.7885V10.6869H69.5675ZM65.9684 8.69519H67.9276V16.4996C67.9276 16.763 67.9673 16.965 68.0466 17.1057C68.1296 17.2428 68.2379 17.3367 68.3714 17.3872C68.5049 17.4377 68.6528 17.4629 68.8152 17.4629C68.9378 17.4629 69.0497 17.4539 69.1507 17.4359C69.2554 17.4178 69.3347 17.4016 69.3889 17.3872L69.719 18.9188C69.6144 18.9549 69.4646 18.9946 69.2698 19.0379C69.0786 19.0812 68.844 19.1064 68.5662 19.1137C68.0755 19.1281 67.6335 19.0541 67.2402 18.8918C66.8469 18.7258 66.5348 18.4696 66.3039 18.1232C66.0766 17.7768 65.9647 17.3439 65.9684 16.8243V8.69519ZM80.1705 11.6557H78.1464C78.0886 11.3237 77.9822 11.0297 77.8271 10.7735C77.6719 10.5137 77.4789 10.2936 77.2479 10.1132C77.017 9.93278 76.7536 9.79748 76.4578 9.70727C76.1655 9.61346 75.8498 9.56656 75.5106 9.56656C74.9081 9.56656 74.3741 9.7181 73.9086 10.0212C73.4432 10.3207 73.0788 10.7608 72.8154 11.3418C72.552 11.9191 72.4203 12.6244 72.4203 13.4579C72.4203 14.3058 72.552 15.0202 72.8154 15.6011C73.0824 16.1784 73.4468 16.615 73.9086 16.9109C74.3741 17.2032 74.9063 17.3493 75.5052 17.3493C75.8372 17.3493 76.1475 17.306 76.4361 17.2194C76.7284 17.1292 76.99 16.9975 77.2209 16.8243C77.4554 16.6511 77.6521 16.4382 77.8108 16.1857C77.9732 15.9331 78.085 15.6444 78.1464 15.3197L80.1705 15.3305C80.0948 15.8573 79.9306 16.3516 79.678 16.8135C79.4291 17.2753 79.1025 17.683 78.6984 18.0366C78.2943 18.3866 77.8216 18.6608 77.2804 18.8593C76.7392 19.0541 76.1385 19.1515 75.4782 19.1515C74.504 19.1515 73.6344 18.926 72.8695 18.475C72.1046 18.024 71.502 17.3727 71.0618 16.5212C70.6216 15.6697 70.4015 14.6486 70.4015 13.4579C70.4015 12.2636 70.6234 11.2425 71.0672 10.3946C71.511 9.5431 72.1154 8.89184 72.8803 8.44082C73.6452 7.9898 74.5112 7.7643 75.4782 7.7643C76.0952 7.7643 76.6688 7.85089 77.1992 8.02408C77.7296 8.19727 78.2023 8.45164 78.6172 8.7872C79.0322 9.11915 79.3731 9.52687 79.6401 10.0104C79.9107 10.4902 80.0875 11.0387 80.1705 11.6557ZM81.3131 19V10.6869H83.2723V19H81.3131ZM82.2981 9.50702C81.9878 9.50702 81.7208 9.40419 81.4971 9.19853C81.2734 8.98925 81.1616 8.73849 81.1616 8.44623C81.1616 8.15037 81.2734 7.8996 81.4971 7.69394C81.7208 7.48467 81.9878 7.38003 82.2981 7.38003C82.612 7.38003 82.879 7.48467 83.0991 7.69394C83.3228 7.8996 83.4347 8.15037 83.4347 8.44623C83.4347 8.73849 83.3228 8.98925 83.0991 9.19853C82.879 9.40419 82.612 9.50702 82.2981 9.50702ZM84.6774 19V10.6869H86.577V12.0724H86.6636C86.8152 11.5925 87.075 11.2227 87.443 10.9629C87.8146 10.6995 88.2386 10.5678 88.7149 10.5678C88.8231 10.5678 88.944 10.5732 89.0775 10.584C89.2146 10.5913 89.3282 10.6039 89.4184 10.6219V12.4242C89.3355 12.3953 89.2038 12.3701 89.0234 12.3484C88.8466 12.3232 88.6752 12.3105 88.5092 12.3105C88.152 12.3105 87.8309 12.3881 87.5458 12.5433C87.2644 12.6948 87.0425 12.9059 86.8801 13.1765C86.7178 13.4471 86.6366 13.7592 86.6366 14.1128V19H84.6774ZM93.3943 19.1624C92.5644 19.1624 91.8518 18.9802 91.2565 18.6157C90.6647 18.2513 90.2083 17.748 89.8872 17.1057C89.5697 16.4599 89.4109 15.7166 89.4109 14.8759C89.4109 14.0316 89.5733 13.2865 89.898 12.6407C90.2228 11.9912 90.681 11.4861 91.2727 11.1253C91.8681 10.7608 92.5716 10.5786 93.3835 10.5786C94.0582 10.5786 94.6553 10.7031 95.1749 10.9521C95.6981 11.1974 96.1148 11.5456 96.4251 11.9966C96.7354 12.444 96.9122 12.9672 96.9555 13.5662H95.0829C95.0071 13.1657 94.8267 12.8319 94.5417 12.5649C94.2602 12.2943 93.8832 12.159 93.4105 12.159C93.01 12.159 92.6582 12.2672 92.3552 12.4837C92.0521 12.6966 91.8157 13.0033 91.6462 13.4038C91.4802 13.8043 91.3972 14.2842 91.3972 14.8434C91.3972 15.4099 91.4802 15.897 91.6462 16.3047C91.8121 16.7088 92.0449 17.0209 92.3443 17.241C92.6474 17.4575 93.0028 17.5658 93.4105 17.5658C93.6992 17.5658 93.9572 17.5116 94.1845 17.4034C94.4154 17.2916 94.6084 17.131 94.7636 16.9217C94.9187 16.7124 95.0252 16.4581 95.0829 16.1586H96.9555C96.9086 16.7467 96.7354 17.2681 96.4359 17.7227C96.1365 18.1737 95.7288 18.5273 95.2128 18.7835C94.6968 19.0361 94.0907 19.1624 93.3943 19.1624ZM99.9139 7.91584V19H97.9547V7.91584H99.9139ZM104.999 19.1624C104.166 19.1624 103.446 18.9892 102.84 18.6428C102.237 18.2928 101.774 17.7985 101.449 17.1599C101.124 16.5176 100.962 15.7617 100.962 14.8921C100.962 14.037 101.124 13.2865 101.449 12.6407C101.777 11.9912 102.235 11.4861 102.824 11.1253C103.412 10.7608 104.103 10.5786 104.896 10.5786C105.409 10.5786 105.892 10.6616 106.347 10.8276C106.805 10.99 107.209 11.2425 107.559 11.5853C107.913 11.9281 108.191 12.3647 108.393 12.8951C108.595 13.4218 108.696 14.0497 108.696 14.7785V15.3792H101.882V14.0587H106.818C106.814 13.6834 106.733 13.3497 106.574 13.0574C106.415 12.7616 106.194 12.5288 105.908 12.3592C105.627 12.1897 105.299 12.1049 104.923 12.1049C104.523 12.1049 104.171 12.2023 103.868 12.3971C103.565 12.5884 103.329 12.8409 103.159 13.1548C102.993 13.4651 102.908 13.8061 102.905 14.1777V15.3305C102.905 15.814 102.993 16.229 103.17 16.5753C103.347 16.9181 103.594 17.1815 103.911 17.3655C104.229 17.5459 104.601 17.6361 105.026 17.6361C105.311 17.6361 105.569 17.5964 105.8 17.5171C106.031 17.4341 106.231 17.3132 106.401 17.1544C106.571 16.9957 106.699 16.799 106.785 16.5645L108.615 16.7702C108.499 17.2537 108.279 17.6758 107.954 18.0366C107.633 18.3938 107.222 18.6717 106.72 18.8701C106.219 19.0649 105.645 19.1624 104.999 19.1624Z" fill="black"/>
<defs>
<clipPath id="clip0_935_2318">
<rect width="24.855" height="24.855" fill="white" transform="translate(0.298828 0.572266)"/>
</clipPath>
</defs>
</svg>
