<svg width="128" height="28" viewBox="0 0 128 28" fill="none" xmlns="http://www.w3.org/2000/svg">
<g clip-path="url(#clip0_416_1766)">
<path d="M8.03696 8.63145C7.86644 8.80272 7.77071 9.03456 7.77071 9.27624C7.77071 9.51792 7.86644 9.74976 8.03696 9.92102L11.0832 12.9672H0C0.246691 9.72194 1.64764 6.67232 3.94904 4.37092C6.25045 2.06951 9.30006 0.668566 12.5454 0.421875V11.5L9.49915 8.45375C9.32788 8.28323 9.09605 8.1875 8.85437 8.1875C8.61269 8.1875 8.38084 8.28323 8.20957 8.45375L8.03696 8.63145Z" fill="#00BFB2"/>
<path d="M19.1149 9.92102C19.2854 9.74976 19.3811 9.51792 19.3811 9.27624C19.3811 9.03456 19.2854 8.80272 19.1149 8.63145L18.9422 8.45883C18.771 8.28831 18.5391 8.19258 18.2975 8.19258C18.0558 8.19258 17.8239 8.28831 17.6527 8.45883L14.6064 11.5051V0.421875C17.8514 0.669583 20.9004 2.07086 23.2016 4.37206C25.5028 6.67326 26.9041 9.7223 27.1518 12.9672H16.0686L19.1149 9.92102Z" fill="#00BFB2"/>
<path d="M12.5452 16.4954V27.5786C9.30078 27.3307 6.25238 25.9293 3.95202 23.628C1.65166 21.3267 0.251419 18.2777 0.00488281 15.0332H11.083L8.03677 18.0794C7.86626 18.2507 7.77053 18.4825 7.77053 18.7242C7.77053 18.9659 7.86626 19.1977 8.03677 19.369L8.20939 19.5416C8.29351 19.6273 8.39386 19.6953 8.50457 19.7418C8.61527 19.7882 8.73413 19.8121 8.85419 19.8121C8.97424 19.8121 9.09308 19.7882 9.20379 19.7418C9.3145 19.6953 9.41485 19.6273 9.49897 19.5416L12.5452 16.4954Z" fill="#00BFB2"/>
<path d="M27.1572 15.0332C26.9095 18.2782 25.5082 21.3272 23.207 23.6284C20.9058 25.9296 17.8568 27.3309 14.6118 27.5786V16.4954L17.658 19.5416C17.7422 19.6273 17.8425 19.6953 17.9532 19.7418C18.0639 19.7882 18.1828 19.8121 18.3028 19.8121C18.4229 19.8121 18.5417 19.7882 18.6524 19.7418C18.7632 19.6953 18.8635 19.6273 18.9476 19.5416L19.1202 19.369C19.2908 19.1977 19.3865 18.9659 19.3865 18.7242C19.3865 18.4825 19.2908 18.2507 19.1202 18.0794L16.074 15.0332H27.1572Z" fill="#00BFB2"/>
</g>
<path d="M34.488 20V7.8892H42.3647V9.72829H36.6819V13.0162H41.9567V14.8553H36.6819V18.1609H42.412V20H34.488ZM51.9556 10.9169L48.7209 20H46.3555L43.1208 10.9169H45.4034L47.4909 17.6642H47.5855L49.6789 10.9169H51.9556ZM56.483 20.1774C55.5723 20.1774 54.7858 19.9882 54.1235 19.6097C53.4651 19.2273 52.9585 18.6872 52.6037 17.9894C52.2489 17.2877 52.0715 16.4618 52.0715 15.5117C52.0715 14.5773 52.2489 13.7573 52.6037 13.0517C52.9625 12.342 53.4632 11.7901 54.1058 11.3959C54.7484 10.9977 55.5033 10.7986 56.3706 10.7986C56.9304 10.7986 57.4587 10.8893 57.9554 11.0706C58.4561 11.2481 58.8976 11.524 59.2801 11.8985C59.6664 12.2731 59.97 12.7501 60.1907 13.3296C60.4115 13.9052 60.5219 14.5911 60.5219 15.3875V16.0439H53.0768V14.601H58.4699C58.466 14.191 58.3773 13.8263 58.2038 13.507C58.0303 13.1837 57.7879 12.9295 57.4764 12.7442C57.1689 12.5589 56.8102 12.4662 56.4002 12.4662C55.9626 12.4662 55.5782 12.5727 55.2471 12.7856C54.9159 12.9945 54.6577 13.2705 54.4724 13.6134C54.2911 13.9525 54.1984 14.325 54.1945 14.7311V15.9907C54.1945 16.5189 54.2911 16.9723 54.4842 17.3508C54.6774 17.7253 54.9474 18.0131 55.2944 18.2141C55.6413 18.4112 56.0474 18.5098 56.5125 18.5098C56.824 18.5098 57.1059 18.4664 57.3582 18.3797C57.6105 18.289 57.8293 18.157 58.0146 17.9835C58.1999 17.81 58.3398 17.5952 58.4344 17.3389L60.4332 17.5636C60.307 18.0919 60.0665 18.5532 59.7117 18.9474C59.3609 19.3377 58.9114 19.6412 58.3635 19.8581C57.8155 20.071 57.1887 20.1774 56.483 20.1774ZM63.8075 14.6779V20H61.6668V10.9169H63.7129V12.4603H63.8193C64.0282 11.9518 64.3614 11.5477 64.8187 11.2481C65.2799 10.9484 65.8496 10.7986 66.5277 10.7986C67.1545 10.7986 67.7005 10.9327 68.1657 11.2007C68.6348 11.4688 68.9975 11.8571 69.2538 12.3657C69.514 12.8743 69.6421 13.4912 69.6382 14.2166V20H67.4975V14.5478C67.4975 13.9407 67.3398 13.4656 67.0244 13.1226C66.713 12.7796 66.2813 12.6082 65.7294 12.6082C65.3548 12.6082 65.0217 12.6909 64.73 12.8565C64.4422 13.0182 64.2155 13.2527 64.0499 13.5602C63.8883 13.8677 63.8075 14.2403 63.8075 14.6779ZM75.6839 10.9169V12.5727H70.4623V10.9169H75.6839ZM71.7514 8.74074H73.8921V17.268C73.8921 17.5558 73.9354 17.7765 74.0222 17.9303C74.1128 18.0801 74.2311 18.1826 74.377 18.2378C74.5228 18.293 74.6845 18.3206 74.8619 18.3206C74.9959 18.3206 75.1181 18.3107 75.2285 18.291C75.3429 18.2713 75.4296 18.2536 75.4887 18.2378L75.8494 19.9113C75.7351 19.9507 75.5715 19.9941 75.3586 20.0414C75.1497 20.0887 74.8934 20.1163 74.5899 20.1242C74.0537 20.14 73.5708 20.0591 73.1411 19.8817C72.7114 19.7004 72.3703 19.4205 72.118 19.042C71.8697 18.6636 71.7475 18.1905 71.7514 17.6228V8.74074ZM90.7335 11.9754H88.5218C88.4588 11.6127 88.3425 11.2914 88.173 11.0115C88.0034 10.7277 87.7925 10.4872 87.5402 10.2901C87.2879 10.093 87.0001 9.94512 86.6768 9.84656C86.3575 9.74406 86.0126 9.69281 85.642 9.69281C84.9836 9.69281 84.4002 9.85839 83.8916 10.1895C83.383 10.5168 82.9849 10.9977 82.6971 11.6324C82.4093 12.2632 82.2654 13.0339 82.2654 13.9446C82.2654 14.871 82.4093 15.6516 82.6971 16.2863C82.9888 16.9171 83.387 17.3941 83.8916 17.7174C84.4002 18.0367 84.9816 18.1964 85.6361 18.1964C85.9988 18.1964 86.3378 18.1491 86.6532 18.0545C86.9725 17.9559 87.2583 17.812 87.5106 17.6228C87.7669 17.4336 87.9817 17.201 88.1552 16.925C88.3326 16.649 88.4548 16.3336 88.5218 15.9788L90.7335 15.9907C90.6507 16.5662 90.4713 17.1063 90.1954 17.611C89.9233 18.1156 89.5666 18.5611 89.125 18.9474C88.6835 19.3298 88.167 19.6294 87.5757 19.8462C86.9843 20.0591 86.3279 20.1656 85.6065 20.1656C84.5421 20.1656 83.592 19.9192 82.7562 19.4264C81.9204 18.9336 81.2621 18.222 80.7811 17.2916C80.3001 16.3612 80.0597 15.2456 80.0597 13.9446C80.0597 12.6397 80.3021 11.524 80.787 10.5976C81.2719 9.66718 81.9323 8.9556 82.768 8.46281C83.6038 7.97002 84.55 7.72362 85.6065 7.72362C86.2806 7.72362 86.9075 7.81824 87.487 8.00747C88.0665 8.1967 88.583 8.47463 89.0363 8.84127C89.4897 9.20396 89.8622 9.64944 90.154 10.1777C90.4496 10.702 90.6428 11.3013 90.7335 11.9754ZM91.9819 20V10.9169H94.1226V20H91.9819ZM93.0581 9.62776C92.7191 9.62776 92.4274 9.51541 92.1829 9.29069C91.9385 9.06204 91.8163 8.78805 91.8163 8.46872C91.8163 8.14545 91.9385 7.87146 92.1829 7.64675C92.4274 7.41809 92.7191 7.30376 93.0581 7.30376C93.4011 7.30376 93.6928 7.41809 93.9333 7.64675C94.1778 7.87146 94.3 8.14545 94.3 8.46872C94.3 8.78805 94.1778 9.06204 93.9333 9.29069C93.6928 9.51541 93.4011 9.62776 93.0581 9.62776ZM95.6578 20V10.9169H97.7334V12.4307H97.828C97.9936 11.9064 98.2774 11.5023 98.6795 11.2185C99.0856 10.9307 99.5488 10.7868 100.069 10.7868C100.187 10.7868 100.32 10.7927 100.465 10.8045C100.615 10.8124 100.739 10.8262 100.838 10.8459V12.8151C100.747 12.7836 100.603 12.756 100.406 12.7323C100.213 12.7047 100.026 12.6909 99.8445 12.6909C99.4542 12.6909 99.1033 12.7757 98.7919 12.9452C98.4844 13.1108 98.2419 13.3414 98.0645 13.6371C97.8871 13.9328 97.7984 14.2738 97.7984 14.6601V20H95.6578ZM105.182 20.1774C104.275 20.1774 103.497 19.9783 102.846 19.5801C102.2 19.182 101.701 18.632 101.35 17.9303C101.003 17.2246 100.83 16.4125 100.83 15.4939C100.83 14.5714 101.007 13.7573 101.362 13.0517C101.717 12.342 102.217 11.7901 102.864 11.3959C103.514 10.9977 104.283 10.7986 105.17 10.7986C105.907 10.7986 106.56 10.9346 107.128 11.2067C107.699 11.4747 108.155 11.8552 108.494 12.348C108.833 12.8368 109.026 13.4084 109.073 14.0629H107.027C106.944 13.6253 106.747 13.2606 106.436 12.9689C106.128 12.6732 105.716 12.5254 105.2 12.5254C104.762 12.5254 104.378 12.6436 104.047 12.8802C103.716 13.1128 103.457 13.4479 103.272 13.8855C103.091 14.3231 103 14.8474 103 15.4584C103 16.0774 103.091 16.6096 103.272 17.0551C103.453 17.4966 103.708 17.8376 104.035 18.0781C104.366 18.3147 104.754 18.4329 105.2 18.4329C105.515 18.4329 105.797 18.3738 106.045 18.2555C106.298 18.1333 106.509 17.9579 106.678 17.7292C106.848 17.5006 106.964 17.2226 107.027 16.8954H109.073C109.022 17.538 108.833 18.1077 108.505 18.6044C108.178 19.0972 107.733 19.4836 107.169 19.7635C106.605 20.0394 105.943 20.1774 105.182 20.1774ZM112.305 7.8892V20H110.165V7.8892H112.305ZM117.862 20.1774C116.951 20.1774 116.165 19.9882 115.502 19.6097C114.844 19.2273 114.337 18.6872 113.983 17.9894C113.628 17.2877 113.45 16.4618 113.45 15.5117C113.45 14.5773 113.628 13.7573 113.983 13.0517C114.341 12.342 114.842 11.7901 115.485 11.3959C116.127 10.9977 116.882 10.7986 117.749 10.7986C118.309 10.7986 118.838 10.8893 119.334 11.0706C119.835 11.2481 120.277 11.524 120.659 11.8985C121.045 12.2731 121.349 12.7501 121.57 13.3296C121.79 13.9052 121.901 14.5911 121.901 15.3875V16.0439H114.456V14.601H119.849C119.845 14.191 119.756 13.8263 119.583 13.507C119.409 13.1837 119.167 12.9295 118.855 12.7442C118.548 12.5589 118.189 12.4662 117.779 12.4662C117.341 12.4662 116.957 12.5727 116.626 12.7856C116.295 12.9945 116.037 13.2705 115.851 13.6134C115.67 13.9525 115.577 14.325 115.573 14.7311V15.9907C115.573 16.5189 115.67 16.9723 115.863 17.3508C116.056 17.7253 116.326 18.0131 116.673 18.2141C117.02 18.4112 117.426 18.5098 117.891 18.5098C118.203 18.5098 118.485 18.4664 118.737 18.3797C118.989 18.289 119.208 18.157 119.393 17.9835C119.579 17.81 119.719 17.5952 119.813 17.3389L121.812 17.5636C121.686 18.0919 121.445 18.5532 121.091 18.9474C120.74 19.3377 120.29 19.6412 119.742 19.8581C119.194 20.071 118.568 20.1774 117.862 20.1774Z" fill="white"/>
<defs>
<clipPath id="clip0_416_1766">
<rect width="27.1571" height="27.1571" fill="white" transform="translate(0 0.421875)"/>
</clipPath>
</defs>
</svg>
