<svg width="85" height="85" viewBox="0 0 85 85" fill="none" xmlns="http://www.w3.org/2000/svg">
<path d="M70.8333 42.5V77.9167H14.1666V42.5" stroke="#009F94" stroke-width="3" stroke-linecap="round" stroke-linejoin="round"/>
<path d="M77.9167 24.792H7.08337V42.5003H77.9167V24.792Z" stroke="#009F94" stroke-width="3" stroke-linecap="round" stroke-linejoin="round"/>
<path d="M42.5 77.917V24.792" stroke="#009F94" stroke-width="3" stroke-linecap="round" stroke-linejoin="round"/>
<path d="M42.5 24.7913H26.5625C24.2143 24.7913 21.9622 23.8585 20.3017 22.198C18.6412 20.5375 17.7084 18.2854 17.7084 15.9372C17.7084 13.5889 18.6412 11.3368 20.3017 9.67633C21.9622 8.01585 24.2143 7.08301 26.5625 7.08301C38.9584 7.08301 42.5 24.7913 42.5 24.7913Z" stroke="#009F94" stroke-width="3" stroke-linecap="round" stroke-linejoin="round"/>
<path d="M42.5 24.7913H58.4375C60.7858 24.7913 63.0379 23.8585 64.6983 22.198C66.3588 20.5375 67.2917 18.2854 67.2917 15.9372C67.2917 13.5889 66.3588 11.3368 64.6983 9.67633C63.0379 8.01585 60.7858 7.08301 58.4375 7.08301C46.0417 7.08301 42.5 24.7913 42.5 24.7913Z" stroke="#009F94" stroke-width="3" stroke-linecap="round" stroke-linejoin="round"/>
</svg>
