<svg width="24" height="24" viewBox="0 0 24 24" fill="none" xmlns="http://www.w3.org/2000/svg">
<circle cx="12" cy="12" r="12" fill="#D9D9D9"/>
<path d="M17.8066 12.3427C17.8052 15.3321 15.3719 17.7647 12.3825 17.7647H12.3805C11.4748 17.7649 10.5836 17.5379 9.78834 17.1045L6.9126 17.8588L7.68238 15.0487C7.20671 14.2246 6.95704 13.2895 6.95861 12.338C6.95929 9.34753 9.39259 6.91602 12.3826 6.91602C13.8336 6.9167 15.1954 7.48157 16.2196 8.50644C17.2439 9.5313 17.8072 10.8937 17.8066 12.3427Z" fill="black"/>
<path d="M15.0366 14.2765C14.9237 14.5931 14.3703 14.8984 14.1213 14.9205C13.8724 14.9426 13.6404 15.0328 12.4951 14.5816C11.1175 14.0383 10.2476 12.6262 10.1803 12.5358C10.113 12.4454 9.62646 11.8012 9.62646 11.1342C9.62646 10.4672 9.97578 10.1398 10.1007 10.0038C10.2256 9.86781 10.372 9.83398 10.4619 9.83398C10.5519 9.83398 10.6426 9.83398 10.7217 9.83739C10.8184 9.84148 10.9253 9.84591 11.0268 10.0714C11.1472 10.3393 11.4102 11.0097 11.4448 11.0774C11.4794 11.145 11.501 11.2249 11.4557 11.3148C11.4104 11.4048 11.3881 11.4616 11.3204 11.5408C11.2528 11.6199 11.1776 11.718 11.1175 11.7782C11.0493 11.8459 10.9788 11.9196 11.0578 12.0549C11.1369 12.1902 11.4089 12.6342 11.8114 12.9932C12.3296 13.4552 12.7656 13.5981 12.9012 13.6663C13.0368 13.7344 13.1163 13.7224 13.1948 13.6322C13.2733 13.542 13.5337 13.2371 13.6244 13.1011C13.715 12.9652 13.805 12.9882 13.9288 13.0335C14.0526 13.0788 14.7196 13.4062 14.8549 13.4746C14.9902 13.5429 15.0809 13.576 15.1154 13.6322C15.1499 13.6883 15.1494 13.9599 15.0366 14.2765Z" fill="white"/>
</svg>
